<?xml version="1.0" encoding="utf-8" standalone="no"?>
<!DOCTYPE svg PUBLIC "-//W3C//DTD SVG 1.1//EN"
  "http://www.w3.org/Graphics/SVG/1.1/DTD/svg11.dtd">
<svg xmlns:xlink="http://www.w3.org/1999/xlink" width="403.2pt" height="237.6pt" viewBox="0 0 403.2 237.6" xmlns="http://www.w3.org/2000/svg" version="1.1">
 <metadata>
  <rdf:RDF xmlns:dc="http://purl.org/dc/elements/1.1/" xmlns:cc="http://creativecommons.org/ns#" xmlns:rdf="http://www.w3.org/1999/02/22-rdf-syntax-ns#">
   <cc:Work>
    <dc:type rdf:resource="http://purl.org/dc/dcmitype/StillImage"/>
    <dc:date>2026-05-09T23:30:11.146167</dc:date>
    <dc:format>image/svg+xml</dc:format>
    <dc:creator>
     <cc:Agent>
      <dc:title>Matplotlib v3.10.8, https://matplotlib.org/</dc:title>
     </cc:Agent>
    </dc:creator>
   </cc:Work>
  </rdf:RDF>
 </metadata>
 <defs>
  <style type="text/css">*{stroke-linejoin: round; stroke-linecap: butt}</style>
 </defs>
 <g id="figure_1">
  <g id="patch_1">
   <path d="M 0 237.6 
L 403.2 237.6 
L 403.2 0 
L 0 0 
z
" style="fill: #ffffff"/>
  </g>
  <g id="axes_1">
   <g id="patch_2">
    <path d="M 7.2 59.213793 
L 396 59.213793 
Q 399.6 59.213793 399.6 55.241379 
L 399.6 15.517241 
Q 399.6 11.544828 396 11.544828 
L 7.2 11.544828 
Q 3.6 11.544828 3.6 15.517241 
L 3.6 55.241379 
Q 3.6 59.213793 7.2 59.213793 
z
" clip-path="url(#p426ef21341)" style="fill: #f2f6fb"/>
   </g>
   <g id="patch_3">
    <path d="M 7.2 124.758621 
L 396 124.758621 
Q 399.6 124.758621 399.6 120.786207 
L 399.6 67.158621 
Q 399.6 63.186207 396 63.186207 
L 7.2 63.186207 
Q 3.6 63.186207 3.6 67.158621 
L 3.6 120.786207 
Q 3.6 124.758621 7.2 124.758621 
z
" clip-path="url(#p426ef21341)" style="fill: #f7f7f7"/>
   </g>
   <g id="patch_4">
    <path d="M 7.2 230.027586 
L 396 230.027586 
Q 399.6 230.027586 399.6 226.055172 
L 399.6 132.703448 
Q 399.6 128.731034 396 128.731034 
L 7.2 128.731034 
Q 3.6 128.731034 3.6 132.703448 
L 3.6 226.055172 
Q 3.6 230.027586 7.2 230.027586 
z
" clip-path="url(#p426ef21341)" style="fill: #f7f5fa"/>
   </g>
   <g id="patch_5">
    <path d="M 144 50.474483 
L 259.2 50.474483 
Q 262.08 50.474483 262.08 47.296552 
L 262.08 19.489655 
Q 262.08 16.311724 259.2 16.311724 
L 144 16.311724 
Q 141.12 16.311724 141.12 19.489655 
L 141.12 47.296552 
Q 141.12 50.474483 144 50.474483 
z
" clip-path="url(#p426ef21341)" style="fill: #ddeeff; stroke: #666666; stroke-width: 0.7; stroke-linejoin: miter"/>
   </g>
   <g id="patch_6">
    <path d="M 36 113.04 
L 129.6 113.04 
Q 132.48 113.04 132.48 109.862069 
L 132.48 84.041379 
Q 132.48 80.863448 129.6 80.863448 
L 36 80.863448 
Q 33.12 80.863448 33.12 84.041379 
L 33.12 109.862069 
Q 33.12 113.04 36 113.04 
z
" clip-path="url(#p426ef21341)" style="fill: #edf7ed; stroke: #666666; stroke-width: 0.7; stroke-linejoin: miter"/>
   </g>
   <g id="patch_7">
    <path d="M 154.8 113.04 
L 248.4 113.04 
Q 251.28 113.04 251.28 109.862069 
L 251.28 84.041379 
Q 251.28 80.863448 248.4 80.863448 
L 154.8 80.863448 
Q 151.92 80.863448 151.92 84.041379 
L 151.92 109.862069 
Q 151.92 113.04 154.8 113.04 
z
" clip-path="url(#p426ef21341)" style="fill: #fff8e8; stroke: #666666; stroke-width: 0.7; stroke-linejoin: miter"/>
   </g>
   <g id="patch_8">
    <path d="M 273.6 113.04 
L 367.2 113.04 
Q 370.08 113.04 370.08 109.862069 
L 370.08 84.041379 
Q 370.08 80.863448 367.2 80.863448 
L 273.6 80.863448 
Q 270.72 80.863448 270.72 84.041379 
L 270.72 109.862069 
Q 270.72 113.04 273.6 113.04 
z
" clip-path="url(#p426ef21341)" style="fill: #edf7ed; stroke: #666666; stroke-width: 0.7; stroke-linejoin: miter"/>
   </g>
   <g id="patch_9">
    <path d="M 36 180.571034 
L 129.6 180.571034 
Q 132.48 180.571034 132.48 177.393103 
L 132.48 151.572414 
Q 132.48 148.394483 129.6 148.394483 
L 36 148.394483 
Q 33.12 148.394483 33.12 151.572414 
L 33.12 177.393103 
Q 33.12 180.571034 36 180.571034 
z
" clip-path="url(#p426ef21341)" style="fill: #f5edf7; stroke: #666666; stroke-width: 0.7; stroke-linejoin: miter"/>
   </g>
   <g id="patch_10">
    <path d="M 154.8 180.571034 
L 248.4 180.571034 
Q 251.28 180.571034 251.28 177.393103 
L 251.28 151.572414 
Q 251.28 148.394483 248.4 148.394483 
L 154.8 148.394483 
Q 151.92 148.394483 151.92 151.572414 
L 151.92 177.393103 
Q 151.92 180.571034 154.8 180.571034 
z
" clip-path="url(#p426ef21341)" style="fill: #fff8e8; stroke: #666666; stroke-width: 0.7; stroke-linejoin: miter"/>
   </g>
   <g id="patch_11">
    <path d="M 273.6 180.571034 
L 367.2 180.571034 
Q 370.08 180.571034 370.08 177.393103 
L 370.08 151.572414 
Q 370.08 148.394483 367.2 148.394483 
L 273.6 148.394483 
Q 270.72 148.394483 270.72 151.572414 
L 270.72 177.393103 
Q 270.72 180.571034 273.6 180.571034 
z
" clip-path="url(#p426ef21341)" style="fill: #f5edf7; stroke: #666666; stroke-width: 0.7; stroke-linejoin: miter"/>
   </g>
   <g id="patch_12">
    <path d="M 151.2 226.253793 
L 252 226.253793 
Q 254.88 226.253793 254.88 223.075862 
L 254.88 201.227586 
Q 254.88 198.049655 252 198.049655 
L 151.2 198.049655 
Q 148.32 198.049655 148.32 201.227586 
L 148.32 223.075862 
Q 148.32 226.253793 151.2 226.253793 
z
" clip-path="url(#p426ef21341)" style="fill: #f0f0f0; stroke: #666666; stroke-width: 0.7; stroke-linejoin: miter"/>
   </g>
   <g id="text_1">
    <!-- Decision Layer -->
    <g style="fill: #888888" transform="translate(16.2 28.308631) scale(0.065 -0.065)">
     <defs>
      <path id="DejaVuSerif-Italic-44" d="M 1194 331 
L 1775 331 
Q 2684 331 3271 850 
Q 3859 1369 4048 2337 
Q 4238 3306 3852 3818 
Q 3466 4331 2553 4331 
L 1972 4331 
L 1194 331 
z
M -97 0 
L -34 331 
L 559 331 
L 1338 4331 
L 744 4331 
L 809 4666 
L 2666 4666 
Q 3872 4666 4426 4050 
Q 4981 3434 4766 2338 
Q 4553 1238 3758 619 
Q 2963 0 1759 0 
L -97 0 
z
" transform="scale(0.015625)"/>
      <path id="DejaVuSerif-Italic-65" d="M 938 1275 
Q 925 1156 925 1050 
Q 925 756 1031 563 
Q 1216 219 1709 219 
Q 2072 219 2250 328 
Q 2569 525 2644 778 
L 3066 778 
Q 2941 381 2475 103 
Q 2150 -91 1506 -91 
Q 863 -91 516 388 
Q 272 722 272 1206 
Q 272 1419 319 1659 
Q 472 2450 1000 2931 
Q 1528 3413 2278 3413 
Q 3500 3413 3500 2547 
Q 3500 1913 2859 1603 
Q 2206 1288 938 1275 
z
M 2541 1975 
Q 2891 2181 2891 2569 
Q 2891 3103 2181 3103 
Q 1763 3103 1472 2784 
Q 1181 2466 1003 1606 
Q 2006 1653 2541 1975 
z
" transform="scale(0.015625)"/>
      <path id="DejaVuSerif-Italic-63" d="M 3163 997 
Q 2938 466 2536 187 
Q 2134 -91 1584 -91 
Q 859 -91 513 388 
Q 272 722 272 1203 
Q 272 1419 319 1663 
Q 475 2459 1008 2936 
Q 1541 3413 2266 3413 
Q 2581 3413 2879 3339 
Q 3178 3266 3463 3116 
L 3300 2266 
L 2966 2266 
Q 2966 2309 2966 2347 
Q 2966 2722 2803 2903 
Q 2622 3103 2213 3103 
Q 1747 3103 1439 2742 
Q 1131 2381 991 1663 
Q 928 1334 928 1078 
Q 928 778 1016 581 
Q 1181 219 1650 219 
Q 2022 219 2281 412 
Q 2541 606 2700 997 
L 3163 997 
z
" transform="scale(0.015625)"/>
      <path id="DejaVuSerif-Italic-69" d="M 1009 4353 
Q 1038 4497 1163 4603 
Q 1288 4709 1434 4709 
Q 1578 4709 1663 4603 
Q 1728 4522 1728 4422 
Q 1728 4388 1719 4353 
Q 1691 4206 1567 4103 
Q 1444 4000 1297 4000 
Q 1150 4000 1066 4103 
Q 1003 4181 1003 4281 
Q 1003 4316 1009 4353 
z
M 963 331 
L 1506 331 
L 1444 0 
L 325 0 
L 903 2988 
L 353 2988 
L 419 3322 
L 1544 3322 
L 963 331 
z
" transform="scale(0.015625)"/>
      <path id="DejaVuSerif-Italic-73" d="M 222 959 
L 553 959 
Q 541 869 541 788 
Q 541 219 1313 219 
Q 2088 219 2200 788 
Q 2209 844 2209 944 
Q 2209 1041 2103 1158 
Q 1997 1275 1550 1428 
L 1159 1569 
Q 759 1706 629 1882 
Q 500 2059 500 2263 
Q 500 2344 516 2438 
Q 606 2894 990 3153 
Q 1375 3413 1931 3413 
Q 2484 3413 3066 3144 
L 2925 2419 
L 2594 2419 
Q 2606 2491 2606 2553 
Q 2606 2781 2448 2942 
Q 2291 3103 1925 3103 
Q 1191 3103 1091 2591 
Q 1078 2538 1078 2444 
Q 1078 2347 1179 2237 
Q 1281 2128 1678 1997 
L 2106 1856 
Q 2550 1709 2716 1488 
Q 2831 1331 2831 1178 
Q 2831 522 2306 181 
Q 1894 -91 1262 -91 
Q 631 -91 72 184 
L 222 959 
z
" transform="scale(0.015625)"/>
      <path id="DejaVuSerif-Italic-6f" d="M 1644 219 
Q 2106 219 2414 584 
Q 2722 950 2859 1663 
Q 2922 1988 2922 2241 
Q 2922 2541 2834 2738 
Q 2669 3103 2206 3103 
Q 1744 3103 1436 2739 
Q 1128 2375 991 1663 
Q 928 1338 928 1088 
Q 928 784 1019 584 
Q 1184 219 1644 219 
z
M 1584 -91 
Q 859 -91 513 388 
Q 272 722 272 1203 
Q 272 1419 319 1663 
Q 472 2456 1005 2934 
Q 1538 3413 2266 3413 
Q 2994 3413 3341 2934 
Q 3578 2603 3578 2122 
Q 3578 1906 3531 1663 
Q 3378 869 2845 389 
Q 2313 -91 1584 -91 
z
" transform="scale(0.015625)"/>
      <path id="DejaVuSerif-Italic-6e" d="M 450 0 
L 1031 2988 
L 481 2988 
L 544 3322 
L 1669 3322 
L 1556 2731 
Q 1781 3069 2068 3241 
Q 2356 3413 2694 3413 
Q 3244 3413 3444 3097 
Q 3563 2906 3563 2588 
Q 3563 2378 3509 2113 
L 3163 331 
L 3675 331 
L 3613 0 
L 2522 0 
L 2897 1931 
Q 2959 2253 2959 2469 
Q 2959 2659 2909 2769 
Q 2803 2994 2425 2994 
Q 2025 2994 1759 2701 
Q 1494 2409 1384 1850 
L 1025 0 
L 450 0 
z
" transform="scale(0.015625)"/>
      <path id="DejaVuSerif-Italic-20" transform="scale(0.015625)"/>
      <path id="DejaVuSerif-Italic-4c" d="M -97 0 
L -34 331 
L 559 331 
L 1338 4331 
L 744 4331 
L 809 4666 
L 2631 4666 
L 2566 4331 
L 1972 4331 
L 1206 384 
L 3338 384 
L 3488 1166 
L 3872 1166 
L 3647 0 
L -97 0 
z
" transform="scale(0.015625)"/>
      <path id="DejaVuSerif-Italic-61" d="M 2325 519 
Q 1909 -91 1238 -91 
Q 688 -91 409 281 
Q 216 544 216 919 
Q 216 1078 250 1256 
Q 463 2359 1231 2928 
Q 1884 3413 2675 3413 
Q 3206 3413 3388 3322 
L 2806 331 
L 3300 331 
L 3238 0 
L 2225 0 
L 2325 519 
z
M 822 938 
Q 822 269 1469 269 
Q 1863 269 2130 583 
Q 2397 897 2516 1497 
L 2806 3003 
L 2806 3003 
Q 2806 3094 2556 3094 
Q 1956 3094 1491 2625 
Q 1028 2153 863 1297 
Q 822 1097 822 938 
z
" transform="scale(0.015625)"/>
      <path id="DejaVuSerif-Italic-79" d="M 3681 3294 
Q 3372 1506 2828 563 
Q 2031 -822 1391 -1238 
Q 1106 -1422 356 -1422 
Q 209 -1422 60 -1397 
Q -88 -1372 -238 -1325 
L -113 -691 
L 181 -691 
Q 175 -741 175 -788 
Q 175 -919 231 -994 
Q 309 -1100 513 -1100 
Q 1063 -1100 1541 -622 
L 756 2988 
L 378 2988 
L 444 3322 
L 1303 3322 
L 2041 25 
Q 2544 778 2666 1088 
Q 3059 2059 3138 2959 
L 2759 2959 
L 2825 3294 
L 3681 3294 
z
" transform="scale(0.015625)"/>
      <path id="DejaVuSerif-Italic-72" d="M 3375 3328 
L 3213 2497 
L 2881 2497 
Q 2891 2559 2891 2613 
Q 2891 2775 2816 2866 
Q 2719 2988 2484 2988 
Q 2059 2988 1775 2694 
Q 1491 2400 1384 1850 
L 1025 0 
L 450 0 
L 1031 2994 
L 481 2994 
L 544 3322 
L 1669 3322 
L 1556 2731 
Q 1791 3078 2089 3245 
Q 2388 3413 2769 3413 
Q 2909 3413 3059 3391 
Q 3209 3369 3375 3328 
z
" transform="scale(0.015625)"/>
     </defs>
     <use xlink:href="#DejaVuSerif-Italic-44"/>
     <use xlink:href="#DejaVuSerif-Italic-65" transform="translate(80.175781 0)"/>
     <use xlink:href="#DejaVuSerif-Italic-63" transform="translate(139.355469 0)"/>
     <use xlink:href="#DejaVuSerif-Italic-69" transform="translate(195.361328 0)"/>
     <use xlink:href="#DejaVuSerif-Italic-73" transform="translate(227.34375 0)"/>
     <use xlink:href="#DejaVuSerif-Italic-69" transform="translate(278.662109 0)"/>
     <use xlink:href="#DejaVuSerif-Italic-6f" transform="translate(310.644531 0)"/>
     <use xlink:href="#DejaVuSerif-Italic-6e" transform="translate(370.849609 0)"/>
     <use xlink:href="#DejaVuSerif-Italic-20" transform="translate(435.253906 0)"/>
     <use xlink:href="#DejaVuSerif-Italic-4c" transform="translate(467.041016 0)"/>
     <use xlink:href="#DejaVuSerif-Italic-61" transform="translate(533.447266 0)"/>
     <use xlink:href="#DejaVuSerif-Italic-79" transform="translate(593.066406 0)"/>
     <use xlink:href="#DejaVuSerif-Italic-65" transform="translate(649.560547 0)"/>
     <use xlink:href="#DejaVuSerif-Italic-72" transform="translate(708.740234 0)"/>
    </g>
   </g>
   <g id="text_2">
    <!-- Scoring Layer -->
    <g style="fill: #888888" transform="translate(16.2 75.977597) scale(0.065 -0.065)">
     <defs>
      <path id="DejaVuSerif-Italic-53" d="M 184 225 
L 391 1288 
L 750 1284 
Q 663 753 905 498 
Q 1147 244 1744 244 
Q 2300 244 2636 464 
Q 2972 684 3053 1106 
Q 3119 1444 2976 1625 
Q 2834 1806 2300 1978 
L 1722 2163 
Q 1091 2366 877 2669 
Q 663 2972 766 3500 
Q 881 4094 1367 4422 
Q 1853 4750 2616 4750 
Q 2941 4750 3314 4679 
Q 3688 4609 4097 4475 
L 3906 3481 
L 3553 3481 
Q 3594 3975 3361 4195 
Q 3128 4416 2563 4416 
Q 2069 4416 1772 4214 
Q 1475 4013 1400 3628 
Q 1334 3294 1490 3103 
Q 1647 2913 2241 2725 
L 2784 2553 
Q 3381 2363 3593 2067 
Q 3806 1772 3709 1275 
Q 3578 597 3076 253 
Q 2575 -91 1716 -91 
Q 1331 -91 948 -12 
Q 566 66 184 225 
z
" transform="scale(0.015625)"/>
      <path id="DejaVuSerif-Italic-67" d="M 3822 3322 
L 3188 72 
Q 3044 -672 2581 -1031 
Q 2078 -1422 1381 -1422 
Q 1053 -1422 765 -1362 
Q 478 -1303 225 -1184 
L 363 -488 
L 663 -488 
Q 653 -813 834 -963 
Q 1016 -1113 1406 -1113 
Q 1913 -1113 2203 -825 
Q 2494 -544 2613 72 
L 2700 519 
Q 2472 206 2181 57 
Q 1891 -91 1525 -91 
Q 975 -91 697 281 
Q 522 516 503 841 
Q 491 1031 534 1256 
Q 750 2359 1516 2928 
Q 2169 3409 2931 3413 
Q 3631 3416 3822 3322 
z
M 3184 2988 
Q 3181 3094 2844 3094 
Q 2234 3094 1775 2625 
Q 1316 2153 1147 1297 
Q 1100 1044 1113 853 
Q 1125 659 1203 528 
Q 1356 269 1756 269 
Q 2194 269 2484 583 
Q 2775 897 2891 1497 
L 2953 1825 
L 3184 2988 
z
" transform="scale(0.015625)"/>
     </defs>
     <use xlink:href="#DejaVuSerif-Italic-53"/>
     <use xlink:href="#DejaVuSerif-Italic-63" transform="translate(68.505859 0)"/>
     <use xlink:href="#DejaVuSerif-Italic-6f" transform="translate(124.511719 0)"/>
     <use xlink:href="#DejaVuSerif-Italic-72" transform="translate(184.716797 0)"/>
     <use xlink:href="#DejaVuSerif-Italic-69" transform="translate(232.519531 0)"/>
     <use xlink:href="#DejaVuSerif-Italic-6e" transform="translate(264.501953 0)"/>
     <use xlink:href="#DejaVuSerif-Italic-67" transform="translate(328.90625 0)"/>
     <use xlink:href="#DejaVuSerif-Italic-20" transform="translate(392.919922 0)"/>
     <use xlink:href="#DejaVuSerif-Italic-4c" transform="translate(424.707031 0)"/>
     <use xlink:href="#DejaVuSerif-Italic-61" transform="translate(491.113281 0)"/>
     <use xlink:href="#DejaVuSerif-Italic-79" transform="translate(550.732422 0)"/>
     <use xlink:href="#DejaVuSerif-Italic-65" transform="translate(607.226562 0)"/>
     <use xlink:href="#DejaVuSerif-Italic-72" transform="translate(666.40625 0)"/>
    </g>
   </g>
   <g id="text_3">
    <!-- Execution Layer -->
    <g style="fill: #888888" transform="translate(16.2 141.522425) scale(0.065 -0.065)">
     <defs>
      <path id="DejaVuSerif-Italic-45" d="M -97 0 
L -34 331 
L 559 331 
L 1338 4331 
L 744 4331 
L 809 4666 
L 4566 4666 
L 4366 3628 
L 3981 3628 
L 4106 4281 
L 1963 4281 
L 1659 2719 
L 3188 2719 
L 3300 3303 
L 3684 3303 
L 3384 1753 
L 3000 1753 
L 3113 2338 
L 1584 2338 
L 1206 384 
L 3400 384 
L 3525 1038 
L 3909 1038 
L 3709 0 
L -97 0 
z
" transform="scale(0.015625)"/>
      <path id="DejaVuSerif-Italic-78" d="M 409 0 
L 19 0 
L 1484 1594 
L 747 2988 
L 338 2988 
L 400 3322 
L 1244 3322 
L 1934 2028 
L 3125 3322 
L 3516 3322 
L 2078 1759 
L 2838 331 
L 3272 331 
L 3209 0 
L 2338 0 
L 1631 1325 
L 409 0 
z
" transform="scale(0.015625)"/>
      <path id="DejaVuSerif-Italic-75" d="M 3097 3322 
L 3672 3322 
L 3091 331 
L 3634 331 
L 3572 0 
L 2453 0 
L 2566 588 
Q 2341 256 2055 82 
Q 1769 -91 1434 -91 
Q 881 -91 681 225 
Q 559 413 559 734 
Q 559 944 613 1209 
L 956 2988 
L 438 2988 
L 503 3322 
L 1600 3322 
L 1225 1388 
Q 1163 1066 1163 853 
Q 1163 663 1213 556 
Q 1316 331 1697 331 
Q 2097 331 2364 625 
Q 2631 919 2738 1478 
L 3097 3322 
z
" transform="scale(0.015625)"/>
      <path id="DejaVuSerif-Italic-74" d="M 856 2988 
L 350 2988 
L 416 3322 
L 922 3322 
L 1122 4353 
L 1700 4353 
L 1500 3322 
L 2581 3322 
L 2516 2988 
L 1434 2988 
L 1025 878 
Q 978 631 978 488 
Q 978 388 1000 338 
Q 1059 219 1278 219 
Q 1503 219 1633 351 
Q 1763 484 1825 781 
L 2259 781 
Q 2147 328 1884 118 
Q 1622 -91 1169 -91 
Q 672 -91 506 131 
Q 406 266 406 516 
Q 406 675 447 878 
L 856 2988 
z
" transform="scale(0.015625)"/>
     </defs>
     <use xlink:href="#DejaVuSerif-Italic-45"/>
     <use xlink:href="#DejaVuSerif-Italic-78" transform="translate(72.998047 0)"/>
     <use xlink:href="#DejaVuSerif-Italic-65" transform="translate(129.394531 0)"/>
     <use xlink:href="#DejaVuSerif-Italic-63" transform="translate(188.574219 0)"/>
     <use xlink:href="#DejaVuSerif-Italic-75" transform="translate(244.580078 0)"/>
     <use xlink:href="#DejaVuSerif-Italic-74" transform="translate(308.984375 0)"/>
     <use xlink:href="#DejaVuSerif-Italic-69" transform="translate(349.169922 0)"/>
     <use xlink:href="#DejaVuSerif-Italic-6f" transform="translate(381.152344 0)"/>
     <use xlink:href="#DejaVuSerif-Italic-6e" transform="translate(441.357422 0)"/>
     <use xlink:href="#DejaVuSerif-Italic-20" transform="translate(505.761719 0)"/>
     <use xlink:href="#DejaVuSerif-Italic-4c" transform="translate(537.548828 0)"/>
     <use xlink:href="#DejaVuSerif-Italic-61" transform="translate(603.955078 0)"/>
     <use xlink:href="#DejaVuSerif-Italic-79" transform="translate(663.574219 0)"/>
     <use xlink:href="#DejaVuSerif-Italic-65" transform="translate(720.068359 0)"/>
     <use xlink:href="#DejaVuSerif-Italic-72" transform="translate(779.248047 0)"/>
    </g>
   </g>
   <g id="text_4">
    <!-- Orchestrator -->
    <g transform="translate(172.6975 30.436466) scale(0.08 -0.08)">
     <defs>
      <path id="DejaVuSerif-Bold-4f" d="M 2784 288 
Q 3381 288 3672 791 
Q 3963 1294 3963 2328 
Q 3963 3366 3672 3869 
Q 3381 4372 2784 4372 
Q 2191 4372 1898 3864 
Q 1606 3356 1606 2328 
Q 1606 1303 1898 795 
Q 2191 288 2784 288 
z
M 2784 -91 
Q 1606 -91 937 553 
Q 269 1197 269 2328 
Q 269 3459 939 4104 
Q 1609 4750 2784 4750 
Q 3963 4750 4631 4106 
Q 5300 3463 5300 2328 
Q 5300 1197 4629 553 
Q 3959 -91 2784 -91 
z
" transform="scale(0.015625)"/>
      <path id="DejaVuSerif-Bold-72" d="M 3438 3359 
L 3438 2369 
L 3084 2369 
Q 3066 2634 2941 2764 
Q 2816 2894 2578 2894 
Q 2216 2894 2006 2575 
Q 1797 2256 1797 1691 
L 1797 378 
L 2400 378 
L 2400 0 
L 219 0 
L 219 378 
L 691 378 
L 691 2944 
L 184 2944 
L 184 3322 
L 1797 3322 
L 1797 2731 
Q 1959 3078 2226 3245 
Q 2494 3413 2881 3413 
Q 2978 3413 3117 3398 
Q 3256 3384 3438 3359 
z
" transform="scale(0.015625)"/>
      <path id="DejaVuSerif-Bold-63" d="M 3609 1038 
Q 3491 469 3123 189 
Q 2756 -91 2125 -91 
Q 1238 -91 750 368 
Q 263 828 263 1663 
Q 263 2488 744 2950 
Q 1225 3413 2081 3413 
Q 2428 3413 2781 3347 
Q 3134 3281 3500 3150 
L 3500 2228 
L 3150 2228 
Q 3100 2650 2903 2854 
Q 2706 3059 2350 3059 
Q 1888 3059 1692 2746 
Q 1497 2434 1497 1663 
Q 1497 909 1687 586 
Q 1878 263 2309 263 
Q 2644 263 2845 463 
Q 3047 663 3091 1038 
L 3609 1038 
z
" transform="scale(0.015625)"/>
      <path id="DejaVuSerif-Bold-68" d="M 219 0 
L 219 378 
L 691 378 
L 691 4488 
L 197 4488 
L 197 4863 
L 1797 4863 
L 1797 2853 
Q 1997 3150 2253 3281 
Q 2509 3413 2900 3413 
Q 3459 3413 3745 3083 
Q 4031 2753 4031 2113 
L 4031 378 
L 4506 378 
L 4506 0 
L 2522 0 
L 2522 378 
L 2925 378 
L 2925 2144 
Q 2925 2566 2817 2730 
Q 2709 2894 2444 2894 
Q 2109 2894 1953 2648 
Q 1797 2403 1797 1869 
L 1797 378 
L 2203 378 
L 2203 0 
L 219 0 
z
" transform="scale(0.015625)"/>
      <path id="DejaVuSerif-Bold-65" d="M 2566 1875 
Q 2566 2531 2444 2795 
Q 2322 3059 2028 3059 
Q 1744 3059 1620 2800 
Q 1497 2541 1497 1931 
L 1497 1875 
L 2566 1875 
z
M 3781 1503 
L 1497 1503 
L 1497 1478 
Q 1497 834 1690 548 
Q 1884 263 2316 263 
Q 2675 263 2897 453 
Q 3119 644 3181 1006 
L 3700 1006 
Q 3566 441 3166 175 
Q 2766 -91 2047 -91 
Q 1184 -91 723 364 
Q 263 819 263 1663 
Q 263 2488 734 2950 
Q 1206 3413 2047 3413 
Q 2872 3413 3312 2927 
Q 3753 2441 3781 1503 
z
" transform="scale(0.015625)"/>
      <path id="DejaVuSerif-Bold-73" d="M 300 97 
L 300 1025 
L 653 1025 
Q 697 653 931 458 
Q 1166 263 1569 263 
Q 1906 263 2086 380 
Q 2266 497 2266 716 
Q 2266 916 2152 1025 
Q 2038 1134 1709 1216 
L 1253 1331 
Q 738 1459 506 1698 
Q 275 1938 275 2344 
Q 275 2884 650 3148 
Q 1025 3413 1806 3413 
Q 2100 3413 2433 3364 
Q 2766 3316 3169 3213 
L 3169 2375 
L 2816 2375 
Q 2788 2716 2573 2887 
Q 2359 3059 1959 3059 
Q 1622 3059 1448 2951 
Q 1275 2844 1275 2638 
Q 1275 2469 1375 2372 
Q 1475 2275 1734 2209 
L 2188 2094 
Q 2841 1928 3091 1684 
Q 3341 1441 3341 1006 
Q 3341 444 2939 176 
Q 2538 -91 1691 -91 
Q 1381 -91 1034 -44 
Q 688 3 300 97 
z
" transform="scale(0.015625)"/>
      <path id="DejaVuSerif-Bold-74" d="M 634 2944 
L 153 2944 
L 153 3322 
L 634 3322 
L 634 4353 
L 1741 4353 
L 1741 3322 
L 2663 3322 
L 2663 2944 
L 1741 2944 
L 1741 909 
Q 1741 475 1809 369 
Q 1878 263 2059 263 
Q 2259 263 2356 397 
Q 2453 531 2459 813 
L 2925 813 
Q 2897 313 2651 111 
Q 2406 -91 1806 -91 
Q 1122 -91 878 123 
Q 634 338 634 909 
L 634 2944 
z
" transform="scale(0.015625)"/>
      <path id="DejaVuSerif-Bold-61" d="M 3525 2041 
L 3525 378 
L 4000 378 
L 4000 0 
L 2419 0 
L 2419 422 
Q 2200 159 1931 34 
Q 1663 -91 1319 -91 
Q 809 -91 536 182 
Q 263 456 263 966 
Q 263 1525 655 1803 
Q 1047 2081 1838 2081 
L 2419 2081 
L 2419 2278 
Q 2419 2681 2228 2873 
Q 2038 3066 1638 3066 
Q 1306 3066 1126 2930 
Q 947 2794 872 2484 
L 519 2484 
L 519 3200 
Q 816 3306 1134 3359 
Q 1453 3413 1806 3413 
Q 2697 3413 3111 3081 
Q 3525 2750 3525 2041 
z
M 2419 1044 
L 2419 1709 
L 2003 1709 
Q 1694 1709 1528 1540 
Q 1363 1372 1363 1056 
Q 1363 741 1483 584 
Q 1603 428 1850 428 
Q 2106 428 2262 597 
Q 2419 766 2419 1044 
z
" transform="scale(0.015625)"/>
      <path id="DejaVuSerif-Bold-6f" d="M 2138 263 
Q 2488 263 2630 563 
Q 2772 863 2772 1663 
Q 2772 2463 2631 2761 
Q 2491 3059 2138 3059 
Q 1784 3059 1640 2757 
Q 1497 2456 1497 1663 
Q 1497 869 1640 566 
Q 1784 263 2138 263 
z
M 2138 -91 
Q 1259 -91 761 376 
Q 263 844 263 1663 
Q 263 2484 761 2948 
Q 1259 3413 2138 3413 
Q 3019 3413 3516 2948 
Q 4013 2484 4013 1663 
Q 4013 844 3514 376 
Q 3016 -91 2138 -91 
z
" transform="scale(0.015625)"/>
     </defs>
     <use xlink:href="#DejaVuSerif-Bold-4f"/>
     <use xlink:href="#DejaVuSerif-Bold-72" transform="translate(87.109375 0)"/>
     <use xlink:href="#DejaVuSerif-Bold-63" transform="translate(139.794922 0)"/>
     <use xlink:href="#DejaVuSerif-Bold-68" transform="translate(200.683594 0)"/>
     <use xlink:href="#DejaVuSerif-Bold-65" transform="translate(273.388672 0)"/>
     <use xlink:href="#DejaVuSerif-Bold-73" transform="translate(337.011719 0)"/>
     <use xlink:href="#DejaVuSerif-Bold-74" transform="translate(393.310547 0)"/>
     <use xlink:href="#DejaVuSerif-Bold-72" transform="translate(439.501953 0)"/>
     <use xlink:href="#DejaVuSerif-Bold-61" transform="translate(492.1875 0)"/>
     <use xlink:href="#DejaVuSerif-Bold-74" transform="translate(556.982422 0)"/>
     <use xlink:href="#DejaVuSerif-Bold-6f" transform="translate(603.173828 0)"/>
     <use xlink:href="#DejaVuSerif-Bold-72" transform="translate(669.873047 0)"/>
    </g>
   </g>
   <g id="text_5">
    <!-- Selects provider per task -->
    <g style="fill: #555555" transform="translate(160.132539 41.939801) scale(0.065 -0.065)">
     <defs>
      <path id="DejaVuSerif-53" d="M 594 225 
L 594 1288 
L 953 1284 
Q 969 753 1261 498 
Q 1553 244 2150 244 
Q 2706 244 2998 464 
Q 3291 684 3291 1106 
Q 3291 1444 3114 1625 
Q 2938 1806 2369 1978 
L 1753 2163 
Q 1084 2366 811 2669 
Q 538 2972 538 3500 
Q 538 4094 959 4422 
Q 1381 4750 2144 4750 
Q 2469 4750 2856 4679 
Q 3244 4609 3681 4475 
L 3681 3481 
L 3328 3481 
Q 3275 3975 2998 4195 
Q 2722 4416 2156 4416 
Q 1663 4416 1405 4214 
Q 1147 4013 1147 3628 
Q 1147 3294 1340 3103 
Q 1534 2913 2163 2725 
L 2741 2553 
Q 3375 2363 3645 2067 
Q 3916 1772 3916 1275 
Q 3916 597 3481 253 
Q 3047 -91 2188 -91 
Q 1803 -91 1404 -12 
Q 1006 66 594 225 
z
" transform="scale(0.015625)"/>
      <path id="DejaVuSerif-65" d="M 3469 1600 
L 991 1600 
L 991 1575 
Q 991 903 1244 561 
Q 1497 219 1991 219 
Q 2369 219 2611 417 
Q 2853 616 2950 1006 
L 3413 1006 
Q 3275 459 2904 184 
Q 2534 -91 1931 -91 
Q 1203 -91 761 389 
Q 319 869 319 1663 
Q 319 2450 753 2931 
Q 1188 3413 1894 3413 
Q 2647 3413 3050 2948 
Q 3453 2484 3469 1600 
z
M 2791 1931 
Q 2772 2513 2545 2808 
Q 2319 3103 1894 3103 
Q 1497 3103 1269 2806 
Q 1041 2509 991 1931 
L 2791 1931 
z
" transform="scale(0.015625)"/>
      <path id="DejaVuSerif-6c" d="M 1313 331 
L 1856 331 
L 1856 0 
L 184 0 
L 184 331 
L 738 331 
L 738 4531 
L 184 4531 
L 184 4863 
L 1313 4863 
L 1313 331 
z
" transform="scale(0.015625)"/>
      <path id="DejaVuSerif-63" d="M 3291 997 
Q 3169 466 2822 187 
Q 2475 -91 1925 -91 
Q 1200 -91 759 389 
Q 319 869 319 1663 
Q 319 2459 759 2936 
Q 1200 3413 1925 3413 
Q 2241 3413 2553 3339 
Q 2866 3266 3181 3116 
L 3181 2266 
L 2847 2266 
Q 2781 2703 2561 2903 
Q 2341 3103 1931 3103 
Q 1466 3103 1228 2742 
Q 991 2381 991 1663 
Q 991 944 1227 581 
Q 1463 219 1931 219 
Q 2303 219 2525 412 
Q 2747 606 2828 997 
L 3291 997 
z
" transform="scale(0.015625)"/>
      <path id="DejaVuSerif-74" d="M 691 2988 
L 184 2988 
L 184 3322 
L 691 3322 
L 691 4353 
L 1269 4353 
L 1269 3322 
L 2350 3322 
L 2350 2988 
L 1269 2988 
L 1269 878 
Q 1269 456 1350 337 
Q 1431 219 1650 219 
Q 1875 219 1978 351 
Q 2081 484 2088 781 
L 2522 781 
Q 2497 328 2275 118 
Q 2053 -91 1600 -91 
Q 1103 -91 897 129 
Q 691 350 691 878 
L 691 2988 
z
" transform="scale(0.015625)"/>
      <path id="DejaVuSerif-73" d="M 359 184 
L 359 959 
L 691 959 
Q 703 588 923 403 
Q 1144 219 1575 219 
Q 1963 219 2166 364 
Q 2369 509 2369 788 
Q 2369 1006 2220 1140 
Q 2072 1275 1594 1428 
L 1178 1569 
Q 750 1706 558 1912 
Q 366 2119 366 2438 
Q 366 2894 700 3153 
Q 1034 3413 1625 3413 
Q 1888 3413 2178 3344 
Q 2469 3275 2778 3144 
L 2778 2419 
L 2447 2419 
Q 2434 2741 2221 2922 
Q 2009 3103 1644 3103 
Q 1281 3103 1095 2975 
Q 909 2847 909 2591 
Q 909 2381 1050 2254 
Q 1191 2128 1613 1997 
L 2069 1856 
Q 2541 1709 2748 1489 
Q 2956 1269 2956 922 
Q 2956 450 2595 179 
Q 2234 -91 1600 -91 
Q 1278 -91 972 -22 
Q 666 47 359 184 
z
" transform="scale(0.015625)"/>
      <path id="DejaVuSerif-20" transform="scale(0.015625)"/>
      <path id="DejaVuSerif-70" d="M 1313 1825 
L 1313 1497 
Q 1313 897 1542 583 
Q 1772 269 2209 269 
Q 2650 269 2876 622 
Q 3103 975 3103 1663 
Q 3103 2353 2876 2703 
Q 2650 3053 2209 3053 
Q 1772 3053 1542 2737 
Q 1313 2422 1313 1825 
z
M 738 2988 
L 184 2988 
L 184 3322 
L 1313 3322 
L 1313 2803 
Q 1481 3116 1742 3264 
Q 2003 3413 2388 3413 
Q 3000 3413 3387 2928 
Q 3775 2444 3775 1663 
Q 3775 881 3387 395 
Q 3000 -91 2388 -91 
Q 2003 -91 1742 57 
Q 1481 206 1313 519 
L 1313 -997 
L 1856 -997 
L 1856 -1331 
L 184 -1331 
L 184 -997 
L 738 -997 
L 738 2988 
z
" transform="scale(0.015625)"/>
      <path id="DejaVuSerif-72" d="M 3059 3328 
L 3059 2497 
L 2728 2497 
Q 2713 2744 2591 2866 
Q 2469 2988 2234 2988 
Q 1809 2988 1582 2694 
Q 1356 2400 1356 1850 
L 1356 331 
L 2022 331 
L 2022 0 
L 263 0 
L 263 331 
L 781 331 
L 781 2994 
L 231 2994 
L 231 3322 
L 1356 3322 
L 1356 2731 
Q 1525 3078 1790 3245 
Q 2056 3413 2438 3413 
Q 2578 3413 2733 3391 
Q 2888 3369 3059 3328 
z
" transform="scale(0.015625)"/>
      <path id="DejaVuSerif-6f" d="M 1925 219 
Q 2388 219 2623 584 
Q 2859 950 2859 1663 
Q 2859 2375 2623 2739 
Q 2388 3103 1925 3103 
Q 1463 3103 1227 2739 
Q 991 2375 991 1663 
Q 991 950 1228 584 
Q 1466 219 1925 219 
z
M 1925 -91 
Q 1200 -91 759 389 
Q 319 869 319 1663 
Q 319 2456 758 2934 
Q 1197 3413 1925 3413 
Q 2653 3413 3092 2934 
Q 3531 2456 3531 1663 
Q 3531 869 3092 389 
Q 2653 -91 1925 -91 
z
" transform="scale(0.015625)"/>
      <path id="DejaVuSerif-76" d="M 1581 0 
L 359 2988 
L -19 2988 
L -19 3322 
L 1509 3322 
L 1509 2988 
L 978 2988 
L 1913 703 
L 2847 2988 
L 2350 2988 
L 2350 3322 
L 3597 3322 
L 3597 2988 
L 3225 2988 
L 2003 0 
L 1581 0 
z
" transform="scale(0.015625)"/>
      <path id="DejaVuSerif-69" d="M 622 4353 
Q 622 4497 726 4603 
Q 831 4709 978 4709 
Q 1122 4709 1226 4603 
Q 1331 4497 1331 4353 
Q 1331 4206 1228 4103 
Q 1125 4000 978 4000 
Q 831 4000 726 4103 
Q 622 4206 622 4353 
z
M 1356 331 
L 1900 331 
L 1900 0 
L 231 0 
L 231 331 
L 781 331 
L 781 2988 
L 231 2988 
L 231 3322 
L 1356 3322 
L 1356 331 
z
" transform="scale(0.015625)"/>
      <path id="DejaVuSerif-64" d="M 3359 331 
L 3909 331 
L 3909 0 
L 2784 0 
L 2784 519 
Q 2616 206 2355 57 
Q 2094 -91 1709 -91 
Q 1097 -91 708 395 
Q 319 881 319 1663 
Q 319 2444 706 2928 
Q 1094 3413 1709 3413 
Q 2094 3413 2355 3264 
Q 2616 3116 2784 2803 
L 2784 4531 
L 2241 4531 
L 2241 4863 
L 3359 4863 
L 3359 331 
z
M 2784 1497 
L 2784 1825 
Q 2784 2422 2554 2737 
Q 2325 3053 1888 3053 
Q 1444 3053 1217 2703 
Q 991 2353 991 1663 
Q 991 975 1217 622 
Q 1444 269 1888 269 
Q 2325 269 2554 583 
Q 2784 897 2784 1497 
z
" transform="scale(0.015625)"/>
      <path id="DejaVuSerif-61" d="M 2547 1044 
L 2547 1747 
L 1806 1747 
Q 1378 1747 1168 1562 
Q 959 1378 959 997 
Q 959 650 1171 447 
Q 1384 244 1747 244 
Q 2106 244 2326 466 
Q 2547 688 2547 1044 
z
M 3122 2075 
L 3122 331 
L 3634 331 
L 3634 0 
L 2547 0 
L 2547 359 
Q 2356 128 2106 18 
Q 1856 -91 1522 -91 
Q 969 -91 644 203 
Q 319 497 319 997 
Q 319 1513 691 1797 
Q 1063 2081 1741 2081 
L 2547 2081 
L 2547 2309 
Q 2547 2688 2317 2895 
Q 2088 3103 1672 3103 
Q 1328 3103 1125 2947 
Q 922 2791 872 2484 
L 575 2484 
L 575 3156 
Q 875 3284 1158 3348 
Q 1441 3413 1709 3413 
Q 2400 3413 2761 3070 
Q 3122 2728 3122 2075 
z
" transform="scale(0.015625)"/>
      <path id="DejaVuSerif-6b" d="M 1831 0 
L 219 0 
L 219 331 
L 738 331 
L 738 4531 
L 184 4531 
L 184 4863 
L 1313 4863 
L 1313 1697 
L 2713 2988 
L 2234 2988 
L 2234 3322 
L 3738 3322 
L 3738 2988 
L 3169 2988 
L 2181 2075 
L 3444 331 
L 3922 331 
L 3922 0 
L 2284 0 
L 2284 331 
L 2759 331 
L 1766 1697 
L 1313 1275 
L 1313 331 
L 1831 331 
L 1831 0 
z
" transform="scale(0.015625)"/>
     </defs>
     <use xlink:href="#DejaVuSerif-53"/>
     <use xlink:href="#DejaVuSerif-65" transform="translate(68.505859 0)"/>
     <use xlink:href="#DejaVuSerif-6c" transform="translate(127.685547 0)"/>
     <use xlink:href="#DejaVuSerif-65" transform="translate(159.667969 0)"/>
     <use xlink:href="#DejaVuSerif-63" transform="translate(218.847656 0)"/>
     <use xlink:href="#DejaVuSerif-74" transform="translate(274.853516 0)"/>
     <use xlink:href="#DejaVuSerif-73" transform="translate(315.039062 0)"/>
     <use xlink:href="#DejaVuSerif-20" transform="translate(366.357422 0)"/>
     <use xlink:href="#DejaVuSerif-70" transform="translate(398.144531 0)"/>
     <use xlink:href="#DejaVuSerif-72" transform="translate(462.158203 0)"/>
     <use xlink:href="#DejaVuSerif-6f" transform="translate(509.960938 0)"/>
     <use xlink:href="#DejaVuSerif-76" transform="translate(570.166016 0)"/>
     <use xlink:href="#DejaVuSerif-69" transform="translate(626.660156 0)"/>
     <use xlink:href="#DejaVuSerif-64" transform="translate(658.642578 0)"/>
     <use xlink:href="#DejaVuSerif-65" transform="translate(722.65625 0)"/>
     <use xlink:href="#DejaVuSerif-72" transform="translate(781.835938 0)"/>
     <use xlink:href="#DejaVuSerif-20" transform="translate(829.638672 0)"/>
     <use xlink:href="#DejaVuSerif-70" transform="translate(861.425781 0)"/>
     <use xlink:href="#DejaVuSerif-65" transform="translate(925.439453 0)"/>
     <use xlink:href="#DejaVuSerif-72" transform="translate(984.619141 0)"/>
     <use xlink:href="#DejaVuSerif-20" transform="translate(1032.421875 0)"/>
     <use xlink:href="#DejaVuSerif-74" transform="translate(1064.208984 0)"/>
     <use xlink:href="#DejaVuSerif-61" transform="translate(1104.394531 0)"/>
     <use xlink:href="#DejaVuSerif-73" transform="translate(1164.013672 0)"/>
     <use xlink:href="#DejaVuSerif-6b" transform="translate(1215.332031 0)"/>
    </g>
   </g>
   <g id="text_6">
    <!-- Provider Registry -->
    <g transform="translate(47.086875 93.938211) scale(0.08 -0.08)">
     <defs>
      <path id="DejaVuSerif-50" d="M 1581 2375 
L 2406 2375 
Q 2872 2375 3115 2626 
Q 3359 2878 3359 3353 
Q 3359 3831 3115 4081 
Q 2872 4331 2406 4331 
L 1581 4331 
L 1581 2375 
z
M 353 0 
L 353 331 
L 947 331 
L 947 4331 
L 353 4331 
L 353 4666 
L 2559 4666 
Q 3259 4666 3668 4311 
Q 4078 3956 4078 3353 
Q 4078 2753 3668 2397 
Q 3259 2041 2559 2041 
L 1581 2041 
L 1581 331 
L 2303 331 
L 2303 0 
L 353 0 
z
" transform="scale(0.015625)"/>
      <path id="DejaVuSerif-52" d="M 3066 2316 
Q 3284 2256 3442 2114 
Q 3600 1972 3725 1716 
L 4403 331 
L 4972 331 
L 4972 0 
L 3872 0 
L 3144 1484 
Q 2934 1916 2759 2042 
Q 2584 2169 2278 2169 
L 1581 2169 
L 1581 331 
L 2241 331 
L 2241 0 
L 353 0 
L 353 331 
L 947 331 
L 947 4331 
L 353 4331 
L 353 4666 
L 2719 4666 
Q 3400 4666 3770 4341 
Q 4141 4016 4141 3419 
Q 4141 2938 3870 2661 
Q 3600 2384 3066 2316 
z
M 1581 2503 
L 2503 2503 
Q 2975 2503 3200 2726 
Q 3425 2950 3425 3419 
Q 3425 3888 3200 4109 
Q 2975 4331 2503 4331 
L 1581 4331 
L 1581 2503 
z
" transform="scale(0.015625)"/>
      <path id="DejaVuSerif-67" d="M 3359 2988 
L 3359 72 
Q 3359 -644 2965 -1033 
Q 2572 -1422 1844 -1422 
Q 1516 -1422 1216 -1362 
Q 916 -1303 641 -1184 
L 641 -488 
L 941 -488 
Q 997 -813 1206 -963 
Q 1416 -1113 1806 -1113 
Q 2313 -1113 2548 -827 
Q 2784 -541 2784 72 
L 2784 519 
Q 2616 206 2355 57 
Q 2094 -91 1709 -91 
Q 1097 -91 708 395 
Q 319 881 319 1663 
Q 319 2444 706 2928 
Q 1094 3413 1709 3413 
Q 2094 3413 2355 3264 
Q 2616 3116 2784 2803 
L 2784 3322 
L 3909 3322 
L 3909 2988 
L 3359 2988 
z
M 2784 1825 
Q 2784 2422 2554 2737 
Q 2325 3053 1888 3053 
Q 1444 3053 1217 2703 
Q 991 2353 991 1663 
Q 991 975 1217 622 
Q 1444 269 1888 269 
Q 2325 269 2554 583 
Q 2784 897 2784 1497 
L 2784 1825 
z
" transform="scale(0.015625)"/>
      <path id="DejaVuSerif-79" d="M 1381 -609 
L 1600 -56 
L 359 2988 
L -19 2988 
L -19 3322 
L 1509 3322 
L 1509 2988 
L 978 2988 
L 1913 703 
L 2847 2988 
L 2350 2988 
L 2350 3322 
L 3597 3322 
L 3597 2988 
L 3225 2988 
L 1703 -750 
Q 1547 -1138 1356 -1280 
Q 1166 -1422 819 -1422 
Q 672 -1422 517 -1397 
Q 363 -1372 206 -1325 
L 206 -691 
L 500 -691 
Q 519 -903 608 -995 
Q 697 -1088 884 -1088 
Q 1056 -1088 1161 -992 
Q 1266 -897 1381 -609 
z
" transform="scale(0.015625)"/>
     </defs>
     <use xlink:href="#DejaVuSerif-50"/>
     <use xlink:href="#DejaVuSerif-72" transform="translate(67.285156 0)"/>
     <use xlink:href="#DejaVuSerif-6f" transform="translate(115.087891 0)"/>
     <use xlink:href="#DejaVuSerif-76" transform="translate(175.292969 0)"/>
     <use xlink:href="#DejaVuSerif-69" transform="translate(231.787109 0)"/>
     <use xlink:href="#DejaVuSerif-64" transform="translate(263.769531 0)"/>
     <use xlink:href="#DejaVuSerif-65" transform="translate(327.783203 0)"/>
     <use xlink:href="#DejaVuSerif-72" transform="translate(386.962891 0)"/>
     <use xlink:href="#DejaVuSerif-20" transform="translate(434.765625 0)"/>
     <use xlink:href="#DejaVuSerif-52" transform="translate(466.552734 0)"/>
     <use xlink:href="#DejaVuSerif-65" transform="translate(541.845703 0)"/>
     <use xlink:href="#DejaVuSerif-67" transform="translate(601.025391 0)"/>
     <use xlink:href="#DejaVuSerif-69" transform="translate(665.039062 0)"/>
     <use xlink:href="#DejaVuSerif-73" transform="translate(697.021484 0)"/>
     <use xlink:href="#DejaVuSerif-74" transform="translate(748.339844 0)"/>
     <use xlink:href="#DejaVuSerif-72" transform="translate(788.525391 0)"/>
     <use xlink:href="#DejaVuSerif-79" transform="translate(836.328125 0)"/>
    </g>
   </g>
   <g id="text_7">
    <!-- Agents + TRACE scores -->
    <g style="fill: #555555" transform="translate(43.149492 105.405999) scale(0.065 -0.065)">
     <defs>
      <path id="DejaVuSerif-41" d="M 1281 1691 
L 2994 1691 
L 2138 3909 
L 1281 1691 
z
M -38 0 
L -38 331 
L 372 331 
L 2034 4666 
L 2559 4666 
L 4225 331 
L 4684 331 
L 4684 0 
L 2988 0 
L 2988 331 
L 3506 331 
L 3116 1356 
L 1153 1356 
L 763 331 
L 1275 331 
L 1275 0 
L -38 0 
z
" transform="scale(0.015625)"/>
      <path id="DejaVuSerif-6e" d="M 263 0 
L 263 331 
L 781 331 
L 781 2988 
L 231 2988 
L 231 3322 
L 1356 3322 
L 1356 2731 
Q 1516 3069 1770 3241 
Q 2025 3413 2363 3413 
Q 2913 3413 3172 3097 
Q 3431 2781 3431 2113 
L 3431 331 
L 3944 331 
L 3944 0 
L 2356 0 
L 2356 331 
L 2853 331 
L 2853 1931 
Q 2853 2541 2703 2767 
Q 2553 2994 2175 2994 
Q 1775 2994 1565 2701 
Q 1356 2409 1356 1850 
L 1356 331 
L 1856 331 
L 1856 0 
L 263 0 
z
" transform="scale(0.015625)"/>
      <path id="DejaVuSerif-2b" d="M 2931 4013 
L 2931 2259 
L 4684 2259 
L 4684 1753 
L 2931 1753 
L 2931 0 
L 2431 0 
L 2431 1753 
L 678 1753 
L 678 2259 
L 2431 2259 
L 2431 4013 
L 2931 4013 
z
" transform="scale(0.015625)"/>
      <path id="DejaVuSerif-54" d="M 1222 0 
L 1222 331 
L 1819 331 
L 1819 4294 
L 447 4294 
L 447 3566 
L 63 3566 
L 63 4666 
L 4206 4666 
L 4206 3566 
L 3822 3566 
L 3822 4294 
L 2450 4294 
L 2450 331 
L 3047 331 
L 3047 0 
L 1222 0 
z
" transform="scale(0.015625)"/>
      <path id="DejaVuSerif-43" d="M 4513 1234 
Q 4306 581 3820 245 
Q 3334 -91 2591 -91 
Q 2134 -91 1743 65 
Q 1353 222 1050 525 
Q 700 875 529 1320 
Q 359 1766 359 2328 
Q 359 3416 987 4083 
Q 1616 4750 2644 4750 
Q 3025 4750 3456 4650 
Q 3888 4550 4384 4347 
L 4384 3272 
L 4031 3272 
Q 3916 3859 3567 4137 
Q 3219 4416 2591 4416 
Q 1844 4416 1459 3886 
Q 1075 3356 1075 2328 
Q 1075 1303 1459 773 
Q 1844 244 2591 244 
Q 3113 244 3450 492 
Q 3788 741 3938 1234 
L 4513 1234 
z
" transform="scale(0.015625)"/>
      <path id="DejaVuSerif-45" d="M 353 0 
L 353 331 
L 947 331 
L 947 4331 
L 353 4331 
L 353 4666 
L 4109 4666 
L 4109 3628 
L 3725 3628 
L 3725 4281 
L 1581 4281 
L 1581 2719 
L 3109 2719 
L 3109 3303 
L 3494 3303 
L 3494 1753 
L 3109 1753 
L 3109 2338 
L 1581 2338 
L 1581 384 
L 3775 384 
L 3775 1038 
L 4159 1038 
L 4159 0 
L 353 0 
z
" transform="scale(0.015625)"/>
     </defs>
     <use xlink:href="#DejaVuSerif-41"/>
     <use xlink:href="#DejaVuSerif-67" transform="translate(72.216797 0)"/>
     <use xlink:href="#DejaVuSerif-65" transform="translate(136.230469 0)"/>
     <use xlink:href="#DejaVuSerif-6e" transform="translate(195.410156 0)"/>
     <use xlink:href="#DejaVuSerif-74" transform="translate(259.814453 0)"/>
     <use xlink:href="#DejaVuSerif-73" transform="translate(300 0)"/>
     <use xlink:href="#DejaVuSerif-20" transform="translate(351.318359 0)"/>
     <use xlink:href="#DejaVuSerif-2b" transform="translate(383.105469 0)"/>
     <use xlink:href="#DejaVuSerif-20" transform="translate(466.894531 0)"/>
     <use xlink:href="#DejaVuSerif-54" transform="translate(498.681641 0)"/>
     <use xlink:href="#DejaVuSerif-52" transform="translate(565.380859 0)"/>
     <use xlink:href="#DejaVuSerif-41" transform="translate(640.673828 0)"/>
     <use xlink:href="#DejaVuSerif-43" transform="translate(712.890625 0)"/>
     <use xlink:href="#DejaVuSerif-45" transform="translate(789.404297 0)"/>
     <use xlink:href="#DejaVuSerif-20" transform="translate(862.402344 0)"/>
     <use xlink:href="#DejaVuSerif-73" transform="translate(894.189453 0)"/>
     <use xlink:href="#DejaVuSerif-63" transform="translate(945.507812 0)"/>
     <use xlink:href="#DejaVuSerif-6f" transform="translate(1001.513672 0)"/>
     <use xlink:href="#DejaVuSerif-72" transform="translate(1061.71875 0)"/>
     <use xlink:href="#DejaVuSerif-65" transform="translate(1109.521484 0)"/>
     <use xlink:href="#DejaVuSerif-73" transform="translate(1168.701172 0)"/>
    </g>
   </g>
   <g id="text_8">
    <!-- TRACE Scorer -->
    <g transform="translate(172.2 93.995086) scale(0.08 -0.08)">
     <use xlink:href="#DejaVuSerif-54"/>
     <use xlink:href="#DejaVuSerif-52" transform="translate(66.699219 0)"/>
     <use xlink:href="#DejaVuSerif-41" transform="translate(141.992188 0)"/>
     <use xlink:href="#DejaVuSerif-43" transform="translate(214.208984 0)"/>
     <use xlink:href="#DejaVuSerif-45" transform="translate(290.722656 0)"/>
     <use xlink:href="#DejaVuSerif-20" transform="translate(363.720703 0)"/>
     <use xlink:href="#DejaVuSerif-53" transform="translate(395.507812 0)"/>
     <use xlink:href="#DejaVuSerif-63" transform="translate(464.013672 0)"/>
     <use xlink:href="#DejaVuSerif-6f" transform="translate(520.019531 0)"/>
     <use xlink:href="#DejaVuSerif-72" transform="translate(580.224609 0)"/>
     <use xlink:href="#DejaVuSerif-65" transform="translate(628.027344 0)"/>
     <use xlink:href="#DejaVuSerif-72" transform="translate(687.207031 0)"/>
    </g>
   </g>
   <g id="text_9">
    <!-- 6-factor composite -->
    <g style="fill: #555555" transform="translate(170.791523 105.498421) scale(0.065 -0.065)">
     <defs>
      <path id="DejaVuSerif-36" d="M 2094 219 
Q 2534 219 2771 542 
Q 3009 866 3009 1472 
Q 3009 2078 2771 2401 
Q 2534 2725 2094 2725 
Q 1647 2725 1412 2412 
Q 1178 2100 1178 1509 
Q 1178 888 1415 553 
Q 1653 219 2094 219 
z
M 1075 2569 
Q 1288 2803 1556 2918 
Q 1825 3034 2163 3034 
Q 2859 3034 3264 2615 
Q 3669 2197 3669 1472 
Q 3669 763 3233 336 
Q 2797 -91 2069 -91 
Q 1278 -91 853 498 
Q 428 1088 428 2181 
Q 428 3406 931 4078 
Q 1434 4750 2350 4750 
Q 2597 4750 2869 4703 
Q 3141 4656 3425 4563 
L 3425 3794 
L 3072 3794 
Q 3034 4109 2831 4275 
Q 2628 4441 2284 4441 
Q 1678 4441 1381 3981 
Q 1084 3522 1075 2569 
z
" transform="scale(0.015625)"/>
      <path id="DejaVuSerif-2d" d="M 281 1959 
L 1881 1959 
L 1881 1472 
L 281 1472 
L 281 1959 
z
" transform="scale(0.015625)"/>
      <path id="DejaVuSerif-66" d="M 2753 4078 
L 2450 4078 
Q 2447 4313 2317 4434 
Q 2188 4556 1941 4556 
Q 1619 4556 1487 4379 
Q 1356 4203 1356 3750 
L 1356 3322 
L 2284 3322 
L 2284 2988 
L 1356 2988 
L 1356 331 
L 2094 331 
L 2094 0 
L 231 0 
L 231 331 
L 781 331 
L 781 2988 
L 231 2988 
L 231 3322 
L 781 3322 
L 781 3738 
Q 781 4294 1070 4578 
Q 1359 4863 1919 4863 
Q 2128 4863 2337 4825 
Q 2547 4788 2753 4709 
L 2753 4078 
z
" transform="scale(0.015625)"/>
      <path id="DejaVuSerif-6d" d="M 3316 2675 
Q 3481 3041 3739 3227 
Q 3997 3413 4341 3413 
Q 4863 3413 5119 3089 
Q 5375 2766 5375 2113 
L 5375 331 
L 5894 331 
L 5894 0 
L 4300 0 
L 4300 331 
L 4800 331 
L 4800 2047 
Q 4800 2556 4650 2772 
Q 4500 2988 4153 2988 
Q 3769 2988 3567 2697 
Q 3366 2406 3366 1850 
L 3366 331 
L 3866 331 
L 3866 0 
L 2291 0 
L 2291 331 
L 2791 331 
L 2791 2069 
Q 2791 2566 2641 2777 
Q 2491 2988 2144 2988 
Q 1759 2988 1557 2697 
Q 1356 2406 1356 1850 
L 1356 331 
L 1856 331 
L 1856 0 
L 263 0 
L 263 331 
L 781 331 
L 781 2994 
L 231 2994 
L 231 3322 
L 1356 3322 
L 1356 2731 
Q 1516 3063 1762 3238 
Q 2009 3413 2322 3413 
Q 2709 3413 2968 3220 
Q 3228 3028 3316 2675 
z
" transform="scale(0.015625)"/>
     </defs>
     <use xlink:href="#DejaVuSerif-36"/>
     <use xlink:href="#DejaVuSerif-2d" transform="translate(63.623047 0)"/>
     <use xlink:href="#DejaVuSerif-66" transform="translate(97.412109 0)"/>
     <use xlink:href="#DejaVuSerif-61" transform="translate(134.423828 0)"/>
     <use xlink:href="#DejaVuSerif-63" transform="translate(194.042969 0)"/>
     <use xlink:href="#DejaVuSerif-74" transform="translate(250.048828 0)"/>
     <use xlink:href="#DejaVuSerif-6f" transform="translate(290.234375 0)"/>
     <use xlink:href="#DejaVuSerif-72" transform="translate(350.439453 0)"/>
     <use xlink:href="#DejaVuSerif-20" transform="translate(398.242188 0)"/>
     <use xlink:href="#DejaVuSerif-63" transform="translate(430.029297 0)"/>
     <use xlink:href="#DejaVuSerif-6f" transform="translate(486.035156 0)"/>
     <use xlink:href="#DejaVuSerif-6d" transform="translate(546.240234 0)"/>
     <use xlink:href="#DejaVuSerif-70" transform="translate(641.064453 0)"/>
     <use xlink:href="#DejaVuSerif-6f" transform="translate(705.078125 0)"/>
     <use xlink:href="#DejaVuSerif-73" transform="translate(765.283203 0)"/>
     <use xlink:href="#DejaVuSerif-69" transform="translate(816.601562 0)"/>
     <use xlink:href="#DejaVuSerif-74" transform="translate(848.583984 0)"/>
     <use xlink:href="#DejaVuSerif-65" transform="translate(888.769531 0)"/>
    </g>
   </g>
   <g id="text_10">
    <!-- Routing Utility -->
    <g transform="translate(290.424375 93.938211) scale(0.08 -0.08)">
     <defs>
      <path id="DejaVuSerif-75" d="M 2266 3322 
L 3341 3322 
L 3341 331 
L 3884 331 
L 3884 0 
L 2766 0 
L 2766 588 
Q 2606 256 2353 82 
Q 2100 -91 1766 -91 
Q 1213 -91 952 223 
Q 691 538 691 1209 
L 691 2988 
L 172 2988 
L 172 3322 
L 1269 3322 
L 1269 1388 
Q 1269 781 1417 556 
Q 1566 331 1947 331 
Q 2347 331 2556 625 
Q 2766 919 2766 1478 
L 2766 2988 
L 2266 2988 
L 2266 3322 
z
" transform="scale(0.015625)"/>
      <path id="DejaVuSerif-55" d="M 897 4331 
L 300 4331 
L 300 4666 
L 2125 4666 
L 2125 4331 
L 1528 4331 
L 1528 1919 
Q 1528 1025 1820 672 
Q 2113 319 2828 319 
Q 3544 319 3836 672 
Q 4128 1025 4128 1919 
L 4128 4331 
L 3531 4331 
L 3531 4666 
L 5106 4666 
L 5106 4331 
L 4513 4331 
L 4513 1856 
Q 4513 791 4103 350 
Q 3694 -91 2713 -91 
Q 1731 -91 1314 353 
Q 897 797 897 1856 
L 897 4331 
z
" transform="scale(0.015625)"/>
     </defs>
     <use xlink:href="#DejaVuSerif-52"/>
     <use xlink:href="#DejaVuSerif-6f" transform="translate(75.292969 0)"/>
     <use xlink:href="#DejaVuSerif-75" transform="translate(135.498047 0)"/>
     <use xlink:href="#DejaVuSerif-74" transform="translate(199.902344 0)"/>
     <use xlink:href="#DejaVuSerif-69" transform="translate(240.087891 0)"/>
     <use xlink:href="#DejaVuSerif-6e" transform="translate(272.070312 0)"/>
     <use xlink:href="#DejaVuSerif-67" transform="translate(336.474609 0)"/>
     <use xlink:href="#DejaVuSerif-20" transform="translate(400.488281 0)"/>
     <use xlink:href="#DejaVuSerif-55" transform="translate(432.275391 0)"/>
     <use xlink:href="#DejaVuSerif-74" transform="translate(516.552734 0)"/>
     <use xlink:href="#DejaVuSerif-69" transform="translate(556.738281 0)"/>
     <use xlink:href="#DejaVuSerif-6c" transform="translate(588.720703 0)"/>
     <use xlink:href="#DejaVuSerif-69" transform="translate(620.703125 0)"/>
     <use xlink:href="#DejaVuSerif-74" transform="translate(652.685547 0)"/>
     <use xlink:href="#DejaVuSerif-79" transform="translate(692.871094 0)"/>
    </g>
   </g>
   <g id="text_11">
    <!-- Quality/price/risk -->
    <g style="fill: #555555" transform="translate(291.646641 105.45221) scale(0.065 -0.065)">
     <defs>
      <path id="DejaVuSerif-51" d="M 2700 -91 
Q 1628 -91 993 567 
Q 359 1225 359 2328 
Q 359 2894 529 3339 
Q 700 3784 1050 4134 
Q 1356 4441 1750 4595 
Q 2144 4750 2625 4750 
Q 3641 4750 4266 4084 
Q 4891 3419 4891 2328 
Q 4891 1403 4422 773 
Q 3953 144 3128 -38 
Q 3297 -247 3539 -347 
Q 3781 -447 4122 -447 
L 4219 -447 
L 4219 -1025 
Q 3691 -1000 3314 -767 
Q 2938 -534 2700 -91 
z
M 2625 244 
Q 3391 244 3781 770 
Q 4172 1297 4172 2328 
Q 4172 3363 3781 3889 
Q 3391 4416 2625 4416 
Q 1856 4416 1465 3889 
Q 1075 3363 1075 2328 
Q 1075 1297 1465 770 
Q 1856 244 2625 244 
z
" transform="scale(0.015625)"/>
      <path id="DejaVuSerif-2f" d="M 1656 4666 
L 2156 4666 
L 500 -594 
L 0 -594 
L 1656 4666 
z
" transform="scale(0.015625)"/>
     </defs>
     <use xlink:href="#DejaVuSerif-51"/>
     <use xlink:href="#DejaVuSerif-75" transform="translate(81.982422 0)"/>
     <use xlink:href="#DejaVuSerif-61" transform="translate(146.386719 0)"/>
     <use xlink:href="#DejaVuSerif-6c" transform="translate(206.005859 0)"/>
     <use xlink:href="#DejaVuSerif-69" transform="translate(237.988281 0)"/>
     <use xlink:href="#DejaVuSerif-74" transform="translate(269.970703 0)"/>
     <use xlink:href="#DejaVuSerif-79" transform="translate(310.15625 0)"/>
     <use xlink:href="#DejaVuSerif-2f" transform="translate(366.650391 0)"/>
     <use xlink:href="#DejaVuSerif-70" transform="translate(400.341797 0)"/>
     <use xlink:href="#DejaVuSerif-72" transform="translate(464.355469 0)"/>
     <use xlink:href="#DejaVuSerif-69" transform="translate(512.158203 0)"/>
     <use xlink:href="#DejaVuSerif-63" transform="translate(544.140625 0)"/>
     <use xlink:href="#DejaVuSerif-65" transform="translate(600.146484 0)"/>
     <use xlink:href="#DejaVuSerif-2f" transform="translate(659.326172 0)"/>
     <use xlink:href="#DejaVuSerif-72" transform="translate(693.017578 0)"/>
     <use xlink:href="#DejaVuSerif-69" transform="translate(740.820312 0)"/>
     <use xlink:href="#DejaVuSerif-73" transform="translate(772.802734 0)"/>
     <use xlink:href="#DejaVuSerif-6b" transform="translate(824.121094 0)"/>
    </g>
   </g>
   <g id="text_12">
    <!-- Provider Agents -->
    <g transform="translate(50.085 161.469246) scale(0.08 -0.08)">
     <use xlink:href="#DejaVuSerif-50"/>
     <use xlink:href="#DejaVuSerif-72" transform="translate(67.285156 0)"/>
     <use xlink:href="#DejaVuSerif-6f" transform="translate(115.087891 0)"/>
     <use xlink:href="#DejaVuSerif-76" transform="translate(175.292969 0)"/>
     <use xlink:href="#DejaVuSerif-69" transform="translate(231.787109 0)"/>
     <use xlink:href="#DejaVuSerif-64" transform="translate(263.769531 0)"/>
     <use xlink:href="#DejaVuSerif-65" transform="translate(327.783203 0)"/>
     <use xlink:href="#DejaVuSerif-72" transform="translate(386.962891 0)"/>
     <use xlink:href="#DejaVuSerif-20" transform="translate(434.765625 0)"/>
     <use xlink:href="#DejaVuSerif-41" transform="translate(466.552734 0)"/>
     <use xlink:href="#DejaVuSerif-67" transform="translate(538.769531 0)"/>
     <use xlink:href="#DejaVuSerif-65" transform="translate(602.783203 0)"/>
     <use xlink:href="#DejaVuSerif-6e" transform="translate(661.962891 0)"/>
     <use xlink:href="#DejaVuSerif-74" transform="translate(726.367188 0)"/>
     <use xlink:href="#DejaVuSerif-73" transform="translate(766.552734 0)"/>
    </g>
   </g>
   <g id="text_13">
    <!-- Execute + receive pay -->
    <g style="fill: #555555" transform="translate(45.831758 172.937034) scale(0.065 -0.065)">
     <defs>
      <path id="DejaVuSerif-78" d="M 1863 2028 
L 2559 2988 
L 2113 2988 
L 2113 3322 
L 3391 3322 
L 3391 2988 
L 2950 2988 
L 2059 1759 
L 3097 331 
L 3531 331 
L 3531 0 
L 1997 0 
L 1997 331 
L 2419 331 
L 1697 1325 
L 972 331 
L 1403 331 
L 1403 0 
L 141 0 
L 141 331 
L 581 331 
L 1497 1594 
L 488 2988 
L 78 2988 
L 78 3322 
L 1563 3322 
L 1563 2988 
L 1166 2988 
L 1863 2028 
z
" transform="scale(0.015625)"/>
     </defs>
     <use xlink:href="#DejaVuSerif-45"/>
     <use xlink:href="#DejaVuSerif-78" transform="translate(72.998047 0)"/>
     <use xlink:href="#DejaVuSerif-65" transform="translate(129.394531 0)"/>
     <use xlink:href="#DejaVuSerif-63" transform="translate(188.574219 0)"/>
     <use xlink:href="#DejaVuSerif-75" transform="translate(244.580078 0)"/>
     <use xlink:href="#DejaVuSerif-74" transform="translate(308.984375 0)"/>
     <use xlink:href="#DejaVuSerif-65" transform="translate(349.169922 0)"/>
     <use xlink:href="#DejaVuSerif-20" transform="translate(408.349609 0)"/>
     <use xlink:href="#DejaVuSerif-2b" transform="translate(440.136719 0)"/>
     <use xlink:href="#DejaVuSerif-20" transform="translate(523.925781 0)"/>
     <use xlink:href="#DejaVuSerif-72" transform="translate(555.712891 0)"/>
     <use xlink:href="#DejaVuSerif-65" transform="translate(603.515625 0)"/>
     <use xlink:href="#DejaVuSerif-63" transform="translate(662.695312 0)"/>
     <use xlink:href="#DejaVuSerif-65" transform="translate(718.701172 0)"/>
     <use xlink:href="#DejaVuSerif-69" transform="translate(777.880859 0)"/>
     <use xlink:href="#DejaVuSerif-76" transform="translate(809.863281 0)"/>
     <use xlink:href="#DejaVuSerif-65" transform="translate(866.357422 0)"/>
     <use xlink:href="#DejaVuSerif-20" transform="translate(925.537109 0)"/>
     <use xlink:href="#DejaVuSerif-70" transform="translate(957.324219 0)"/>
     <use xlink:href="#DejaVuSerif-61" transform="translate(1021.337891 0)"/>
     <use xlink:href="#DejaVuSerif-79" transform="translate(1080.957031 0)"/>
    </g>
   </g>
   <g id="text_14">
    <!-- Trust Updater -->
    <g transform="translate(172.748125 161.526121) scale(0.08 -0.08)">
     <use xlink:href="#DejaVuSerif-54"/>
     <use xlink:href="#DejaVuSerif-72" transform="translate(66.699219 0)"/>
     <use xlink:href="#DejaVuSerif-75" transform="translate(114.501953 0)"/>
     <use xlink:href="#DejaVuSerif-73" transform="translate(178.90625 0)"/>
     <use xlink:href="#DejaVuSerif-74" transform="translate(230.224609 0)"/>
     <use xlink:href="#DejaVuSerif-20" transform="translate(270.410156 0)"/>
     <use xlink:href="#DejaVuSerif-55" transform="translate(302.197266 0)"/>
     <use xlink:href="#DejaVuSerif-70" transform="translate(386.474609 0)"/>
     <use xlink:href="#DejaVuSerif-64" transform="translate(450.488281 0)"/>
     <use xlink:href="#DejaVuSerif-61" transform="translate(514.501953 0)"/>
     <use xlink:href="#DejaVuSerif-74" transform="translate(574.121094 0)"/>
     <use xlink:href="#DejaVuSerif-65" transform="translate(614.306641 0)"/>
     <use xlink:href="#DejaVuSerif-72" transform="translate(673.486328 0)"/>
    </g>
   </g>
   <g id="text_15">
    <!-- Post-settlement update -->
    <g style="fill: #555555" transform="translate(163.488672 173.029456) scale(0.065 -0.065)">
     <use xlink:href="#DejaVuSerif-50"/>
     <use xlink:href="#DejaVuSerif-6f" transform="translate(63.285156 0)"/>
     <use xlink:href="#DejaVuSerif-73" transform="translate(123.490234 0)"/>
     <use xlink:href="#DejaVuSerif-74" transform="translate(174.808594 0)"/>
     <use xlink:href="#DejaVuSerif-2d" transform="translate(214.994141 0)"/>
     <use xlink:href="#DejaVuSerif-73" transform="translate(248.783203 0)"/>
     <use xlink:href="#DejaVuSerif-65" transform="translate(300.101562 0)"/>
     <use xlink:href="#DejaVuSerif-74" transform="translate(359.28125 0)"/>
     <use xlink:href="#DejaVuSerif-74" transform="translate(399.466797 0)"/>
     <use xlink:href="#DejaVuSerif-6c" transform="translate(439.652344 0)"/>
     <use xlink:href="#DejaVuSerif-65" transform="translate(471.634766 0)"/>
     <use xlink:href="#DejaVuSerif-6d" transform="translate(530.814453 0)"/>
     <use xlink:href="#DejaVuSerif-65" transform="translate(625.638672 0)"/>
     <use xlink:href="#DejaVuSerif-6e" transform="translate(684.818359 0)"/>
     <use xlink:href="#DejaVuSerif-74" transform="translate(749.222656 0)"/>
     <use xlink:href="#DejaVuSerif-20" transform="translate(789.408203 0)"/>
     <use xlink:href="#DejaVuSerif-75" transform="translate(821.195312 0)"/>
     <use xlink:href="#DejaVuSerif-70" transform="translate(885.599609 0)"/>
     <use xlink:href="#DejaVuSerif-64" transform="translate(949.613281 0)"/>
     <use xlink:href="#DejaVuSerif-61" transform="translate(1013.626953 0)"/>
     <use xlink:href="#DejaVuSerif-74" transform="translate(1073.246094 0)"/>
     <use xlink:href="#DejaVuSerif-65" transform="translate(1113.431641 0)"/>
    </g>
   </g>
   <g id="text_16">
    <!-- Economic Ledger -->
    <g transform="translate(284.839375 161.469246) scale(0.08 -0.08)">
     <defs>
      <path id="DejaVuSerif-4c" d="M 353 0 
L 353 331 
L 947 331 
L 947 4331 
L 353 4331 
L 353 4666 
L 2175 4666 
L 2175 4331 
L 1581 4331 
L 1581 384 
L 3713 384 
L 3713 1166 
L 4097 1166 
L 4097 0 
L 353 0 
z
" transform="scale(0.015625)"/>
     </defs>
     <use xlink:href="#DejaVuSerif-45"/>
     <use xlink:href="#DejaVuSerif-63" transform="translate(72.998047 0)"/>
     <use xlink:href="#DejaVuSerif-6f" transform="translate(129.003906 0)"/>
     <use xlink:href="#DejaVuSerif-6e" transform="translate(189.208984 0)"/>
     <use xlink:href="#DejaVuSerif-6f" transform="translate(253.613281 0)"/>
     <use xlink:href="#DejaVuSerif-6d" transform="translate(313.818359 0)"/>
     <use xlink:href="#DejaVuSerif-69" transform="translate(408.642578 0)"/>
     <use xlink:href="#DejaVuSerif-63" transform="translate(440.625 0)"/>
     <use xlink:href="#DejaVuSerif-20" transform="translate(496.630859 0)"/>
     <use xlink:href="#DejaVuSerif-4c" transform="translate(528.417969 0)"/>
     <use xlink:href="#DejaVuSerif-65" transform="translate(594.824219 0)"/>
     <use xlink:href="#DejaVuSerif-64" transform="translate(654.003906 0)"/>
     <use xlink:href="#DejaVuSerif-67" transform="translate(718.017578 0)"/>
     <use xlink:href="#DejaVuSerif-65" transform="translate(782.03125 0)"/>
     <use xlink:href="#DejaVuSerif-72" transform="translate(841.210938 0)"/>
    </g>
   </g>
   <g id="text_17">
    <!-- Records all outcomes -->
    <g style="fill: #555555" transform="translate(285.062852 173.029456) scale(0.065 -0.065)">
     <use xlink:href="#DejaVuSerif-52"/>
     <use xlink:href="#DejaVuSerif-65" transform="translate(75.292969 0)"/>
     <use xlink:href="#DejaVuSerif-63" transform="translate(134.472656 0)"/>
     <use xlink:href="#DejaVuSerif-6f" transform="translate(190.478516 0)"/>
     <use xlink:href="#DejaVuSerif-72" transform="translate(250.683594 0)"/>
     <use xlink:href="#DejaVuSerif-64" transform="translate(298.486328 0)"/>
     <use xlink:href="#DejaVuSerif-73" transform="translate(362.5 0)"/>
     <use xlink:href="#DejaVuSerif-20" transform="translate(413.818359 0)"/>
     <use xlink:href="#DejaVuSerif-61" transform="translate(445.605469 0)"/>
     <use xlink:href="#DejaVuSerif-6c" transform="translate(505.224609 0)"/>
     <use xlink:href="#DejaVuSerif-6c" transform="translate(537.207031 0)"/>
     <use xlink:href="#DejaVuSerif-20" transform="translate(569.189453 0)"/>
     <use xlink:href="#DejaVuSerif-6f" transform="translate(600.976562 0)"/>
     <use xlink:href="#DejaVuSerif-75" transform="translate(661.181641 0)"/>
     <use xlink:href="#DejaVuSerif-74" transform="translate(725.585938 0)"/>
     <use xlink:href="#DejaVuSerif-63" transform="translate(765.771484 0)"/>
     <use xlink:href="#DejaVuSerif-6f" transform="translate(821.777344 0)"/>
     <use xlink:href="#DejaVuSerif-6d" transform="translate(881.982422 0)"/>
     <use xlink:href="#DejaVuSerif-65" transform="translate(976.806641 0)"/>
     <use xlink:href="#DejaVuSerif-73" transform="translate(1035.986328 0)"/>
    </g>
   </g>
   <g id="text_18">
    <!-- Lightning Settlement -->
    <g transform="translate(158.3425 214.302349) scale(0.08 -0.08)">
     <defs>
      <path id="DejaVuSerif-68" d="M 263 0 
L 263 331 
L 781 331 
L 781 4531 
L 231 4531 
L 231 4863 
L 1356 4863 
L 1356 2731 
Q 1516 3069 1770 3241 
Q 2025 3413 2363 3413 
Q 2913 3413 3172 3097 
Q 3431 2781 3431 2113 
L 3431 331 
L 3944 331 
L 3944 0 
L 2356 0 
L 2356 331 
L 2853 331 
L 2853 1931 
Q 2853 2541 2704 2764 
Q 2556 2988 2175 2988 
Q 1775 2988 1565 2697 
Q 1356 2406 1356 1850 
L 1356 331 
L 1856 331 
L 1856 0 
L 263 0 
z
" transform="scale(0.015625)"/>
     </defs>
     <use xlink:href="#DejaVuSerif-4c"/>
     <use xlink:href="#DejaVuSerif-69" transform="translate(66.40625 0)"/>
     <use xlink:href="#DejaVuSerif-67" transform="translate(98.388672 0)"/>
     <use xlink:href="#DejaVuSerif-68" transform="translate(162.402344 0)"/>
     <use xlink:href="#DejaVuSerif-74" transform="translate(226.806641 0)"/>
     <use xlink:href="#DejaVuSerif-6e" transform="translate(266.992188 0)"/>
     <use xlink:href="#DejaVuSerif-69" transform="translate(331.396484 0)"/>
     <use xlink:href="#DejaVuSerif-6e" transform="translate(363.378906 0)"/>
     <use xlink:href="#DejaVuSerif-67" transform="translate(427.783203 0)"/>
     <use xlink:href="#DejaVuSerif-20" transform="translate(491.796875 0)"/>
     <use xlink:href="#DejaVuSerif-53" transform="translate(523.583984 0)"/>
     <use xlink:href="#DejaVuSerif-65" transform="translate(592.089844 0)"/>
     <use xlink:href="#DejaVuSerif-74" transform="translate(651.269531 0)"/>
     <use xlink:href="#DejaVuSerif-74" transform="translate(691.455078 0)"/>
     <use xlink:href="#DejaVuSerif-6c" transform="translate(731.640625 0)"/>
     <use xlink:href="#DejaVuSerif-65" transform="translate(763.623047 0)"/>
     <use xlink:href="#DejaVuSerif-6d" transform="translate(822.802734 0)"/>
     <use xlink:href="#DejaVuSerif-65" transform="translate(917.626953 0)"/>
     <use xlink:href="#DejaVuSerif-6e" transform="translate(976.806641 0)"/>
     <use xlink:href="#DejaVuSerif-74" transform="translate(1041.210938 0)"/>
    </g>
   </g>
   <g id="patch_13">
    <path d="M 149.626099 48.525614 
Q 127.801138 65.568766 106.637068 82.095828 
" style="fill: none; stroke: #444444; stroke-width: 0.75; stroke-linecap: round"/>
    <path d="M 110.14393 81.387364 
L 106.637068 82.095828 
L 108.174414 78.86526 
" style="fill: none; stroke: #444444; stroke-width: 0.75; stroke-linecap: round"/>
   </g>
   <g id="patch_14">
    <path d="M 201.6 49.299634 
Q 201.6 65.569732 201.6 81.001305 
" style="fill: none; stroke: #444444; stroke-width: 0.75; stroke-linecap: round"/>
    <path d="M 203.2 77.801305 
L 201.6 81.001305 
L 200 77.801305 
" style="fill: none; stroke: #444444; stroke-width: 0.75; stroke-linecap: round"/>
   </g>
   <g id="patch_15">
    <path d="M 253.573901 48.525614 
Q 275.398862 65.568766 296.562932 82.095828 
" style="fill: none; stroke: #444444; stroke-width: 0.75; stroke-linecap: round"/>
    <path d="M 295.025586 78.86526 
L 296.562932 82.095828 
L 293.05607 81.387364 
" style="fill: none; stroke: #444444; stroke-width: 0.75; stroke-linecap: round"/>
   </g>
   <g id="patch_16">
    <path d="M 131.602588 96.951724 
Q 142.200283 96.951724 151.959452 96.951724 
" style="fill: none; stroke: #444444; stroke-width: 0.75; stroke-linecap: round"/>
    <path d="M 148.759452 95.351724 
L 151.959452 96.951724 
L 148.759452 98.551724 
" style="fill: none; stroke: #444444; stroke-width: 0.75; stroke-linecap: round"/>
   </g>
   <g id="patch_17">
    <path d="M 271.597412 96.951724 
Q 260.999717 96.951724 251.240548 96.951724 
" style="fill: none; stroke: #444444; stroke-width: 0.75; stroke-linecap: round"/>
    <path d="M 254.440548 98.551724 
L 251.240548 96.951724 
L 254.440548 95.351724 
" style="fill: none; stroke: #444444; stroke-width: 0.75; stroke-linecap: round"/>
   </g>
   <g id="patch_18">
    <path d="M 82.8 112.06028 
Q 82.8 130.716442 82.8 148.534079 
" style="fill: none; stroke: #444444; stroke-width: 0.75; stroke-linecap: round"/>
    <path d="M 84.4 145.334079 
L 82.8 148.534079 
L 81.2 145.334079 
" style="fill: none; stroke: #444444; stroke-width: 0.75; stroke-linecap: round"/>
   </g>
   <g id="patch_19">
    <path d="M 131.602588 164.482759 
Q 142.200283 164.482759 151.959452 164.482759 
" style="fill: none; stroke: #444444; stroke-width: 0.75; stroke-linecap: round"/>
    <path d="M 148.759452 162.882759 
L 151.959452 164.482759 
L 148.759452 166.082759 
" style="fill: none; stroke: #444444; stroke-width: 0.75; stroke-linecap: round"/>
   </g>
   <g id="patch_20">
    <path d="M 201.6 149.374203 
Q 201.6 130.71804 201.6 112.900403 
" style="fill: none; stroke: #444444; stroke-width: 0.75; stroke-linecap: round"/>
    <path d="M 200 116.100403 
L 201.6 112.900403 
L 203.2 116.100403 
" style="fill: none; stroke: #444444; stroke-width: 0.75; stroke-linecap: round"/>
   </g>
   <g id="patch_21">
    <path d="M 201.6 179.591557 
Q 201.6 189.309308 201.6 198.188534 
" style="fill: none; stroke: #444444; stroke-width: 0.75; stroke-linecap: round"/>
    <path d="M 203.2 194.988534 
L 201.6 198.188534 
L 200 194.988534 
" style="fill: none; stroke: #444444; stroke-width: 0.75; stroke-linecap: round"/>
   </g>
   <g id="patch_22">
    <path d="M 253.782642 211.251021 
Q 286.198834 194.872313 317.866608 178.871754 
" style="fill: none; stroke: #444444; stroke-width: 0.75; stroke-linecap: round"/>
    <path d="M 314.288931 178.886786 
L 317.866608 178.871754 
L 315.732027 181.742915 
" style="fill: none; stroke: #444444; stroke-width: 0.75; stroke-linecap: round"/>
   </g>
   <g id="patch_23">
    <path d="M 271.597412 164.482759 
Q 260.999717 164.482759 251.240548 164.482759 
" style="fill: none; stroke: #444444; stroke-width: 0.75; stroke-linecap: round"/>
    <path d="M 254.440548 166.082759 
L 251.240548 164.482759 
L 254.440548 162.882759 
" style="fill: none; stroke: #444444; stroke-width: 0.75; stroke-linecap: round"/>
   </g>
   <g id="text_19">
    <!-- query -->
    <g style="fill: #444444" transform="translate(111.113047 60.947505) scale(0.065 -0.065)">
     <defs>
      <path id="DejaVuSerif-71" d="M 3359 2988 
L 3359 -997 
L 3909 -997 
L 3909 -1331 
L 2241 -1331 
L 2241 -997 
L 2784 -997 
L 2784 519 
Q 2616 206 2355 57 
Q 2094 -91 1709 -91 
Q 1097 -91 708 395 
Q 319 881 319 1663 
Q 319 2444 706 2928 
Q 1094 3413 1709 3413 
Q 2094 3413 2355 3264 
Q 2616 3116 2784 2803 
L 2784 3322 
L 3909 3322 
L 3909 2988 
L 3359 2988 
z
M 2784 1825 
Q 2784 2422 2554 2737 
Q 2325 3053 1888 3053 
Q 1444 3053 1217 2703 
Q 991 2353 991 1663 
Q 991 975 1217 622 
Q 1444 269 1888 269 
Q 2325 269 2554 583 
Q 2784 897 2784 1497 
L 2784 1825 
z
" transform="scale(0.015625)"/>
     </defs>
     <use xlink:href="#DejaVuSerif-71"/>
     <use xlink:href="#DejaVuSerif-75" transform="translate(64.013672 0)"/>
     <use xlink:href="#DejaVuSerif-65" transform="translate(128.417969 0)"/>
     <use xlink:href="#DejaVuSerif-72" transform="translate(187.597656 0)"/>
     <use xlink:href="#DejaVuSerif-79" transform="translate(235.400391 0)"/>
    </g>
   </g>
   <g id="text_20">
    <!-- utilities -->
    <g style="fill: #444444" transform="translate(270.145391 61.039927) scale(0.065 -0.065)">
     <use xlink:href="#DejaVuSerif-75"/>
     <use xlink:href="#DejaVuSerif-74" transform="translate(64.404297 0)"/>
     <use xlink:href="#DejaVuSerif-69" transform="translate(104.589844 0)"/>
     <use xlink:href="#DejaVuSerif-6c" transform="translate(136.572266 0)"/>
     <use xlink:href="#DejaVuSerif-69" transform="translate(168.554688 0)"/>
     <use xlink:href="#DejaVuSerif-74" transform="translate(200.537109 0)"/>
     <use xlink:href="#DejaVuSerif-69" transform="translate(240.722656 0)"/>
     <use xlink:href="#DejaVuSerif-65" transform="translate(272.705078 0)"/>
     <use xlink:href="#DejaVuSerif-73" transform="translate(331.884766 0)"/>
    </g>
   </g>
   <g id="text_21">
    <!-- scores -->
    <g style="fill: #444444" transform="translate(138.811094 92.421996) scale(0.065 -0.065)">
     <use xlink:href="#DejaVuSerif-73"/>
     <use xlink:href="#DejaVuSerif-63" transform="translate(51.318359 0)"/>
     <use xlink:href="#DejaVuSerif-6f" transform="translate(107.324219 0)"/>
     <use xlink:href="#DejaVuSerif-72" transform="translate(167.529297 0)"/>
     <use xlink:href="#DejaVuSerif-65" transform="translate(215.332031 0)"/>
     <use xlink:href="#DejaVuSerif-73" transform="translate(274.511719 0)"/>
    </g>
   </g>
   <g id="text_22">
    <!-- select -->
    <g style="fill: #444444" transform="translate(65.91957 126.187513) scale(0.065 -0.065)">
     <use xlink:href="#DejaVuSerif-73"/>
     <use xlink:href="#DejaVuSerif-65" transform="translate(51.318359 0)"/>
     <use xlink:href="#DejaVuSerif-6c" transform="translate(110.498047 0)"/>
     <use xlink:href="#DejaVuSerif-65" transform="translate(142.480469 0)"/>
     <use xlink:href="#DejaVuSerif-63" transform="translate(201.660156 0)"/>
     <use xlink:href="#DejaVuSerif-74" transform="translate(257.666016 0)"/>
    </g>
   </g>
   <g id="text_23">
    <!-- outcome -->
    <g style="fill: #444444" transform="translate(135.261992 159.953031) scale(0.065 -0.065)">
     <use xlink:href="#DejaVuSerif-6f"/>
     <use xlink:href="#DejaVuSerif-75" transform="translate(60.205078 0)"/>
     <use xlink:href="#DejaVuSerif-74" transform="translate(124.609375 0)"/>
     <use xlink:href="#DejaVuSerif-63" transform="translate(164.794922 0)"/>
     <use xlink:href="#DejaVuSerif-6f" transform="translate(220.800781 0)"/>
     <use xlink:href="#DejaVuSerif-6d" transform="translate(281.005859 0)"/>
     <use xlink:href="#DejaVuSerif-65" transform="translate(375.830078 0)"/>
    </g>
   </g>
   <g id="text_24">
    <!-- update -->
    <g style="fill: #444444" transform="translate(182.978281 126.187513) scale(0.065 -0.065)">
     <use xlink:href="#DejaVuSerif-75"/>
     <use xlink:href="#DejaVuSerif-70" transform="translate(64.404297 0)"/>
     <use xlink:href="#DejaVuSerif-64" transform="translate(128.417969 0)"/>
     <use xlink:href="#DejaVuSerif-61" transform="translate(192.431641 0)"/>
     <use xlink:href="#DejaVuSerif-74" transform="translate(252.050781 0)"/>
     <use xlink:href="#DejaVuSerif-65" transform="translate(292.236328 0)"/>
    </g>
   </g>
   <g id="text_25">
    <!-- settle -->
    <g style="fill: #444444" transform="translate(284.233477 190.341996) scale(0.065 -0.065)">
     <use xlink:href="#DejaVuSerif-73"/>
     <use xlink:href="#DejaVuSerif-65" transform="translate(51.318359 0)"/>
     <use xlink:href="#DejaVuSerif-74" transform="translate(110.498047 0)"/>
     <use xlink:href="#DejaVuSerif-74" transform="translate(150.683594 0)"/>
     <use xlink:href="#DejaVuSerif-6c" transform="translate(190.869141 0)"/>
     <use xlink:href="#DejaVuSerif-65" transform="translate(222.851562 0)"/>
    </g>
   </g>
  </g>
 </g>
 <defs>
  <clipPath id="p426ef21341">
   <rect x="3.6" y="3.6" width="396" height="230.4"/>
  </clipPath>
 </defs>
</svg>
