<?xml version="1.0" encoding="utf-8" standalone="no"?>
<!DOCTYPE svg PUBLIC "-//W3C//DTD SVG 1.1//EN"
  "http://www.w3.org/Graphics/SVG/1.1/DTD/svg11.dtd">
<svg xmlns:xlink="http://www.w3.org/1999/xlink" width="610.128pt" height="124.87875pt" viewBox="0 0 610.128 124.87875" xmlns="http://www.w3.org/2000/svg" version="1.1">
 <metadata>
  <rdf:RDF xmlns:dc="http://purl.org/dc/elements/1.1/" xmlns:cc="http://creativecommons.org/ns#" xmlns:rdf="http://www.w3.org/1999/02/22-rdf-syntax-ns#">
   <cc:Work>
    <dc:type rdf:resource="http://purl.org/dc/dcmitype/StillImage"/>
    <dc:date>2026-05-09T18:48:04.686686</dc:date>
    <dc:format>image/svg+xml</dc:format>
    <dc:creator>
     <cc:Agent>
      <dc:title>Matplotlib v3.10.8, https://matplotlib.org/</dc:title>
     </cc:Agent>
    </dc:creator>
   </cc:Work>
  </rdf:RDF>
 </metadata>
 <defs>
  <style type="text/css">*{stroke-linejoin: round; stroke-linecap: butt}</style>
 </defs>
 <g id="figure_1">
  <g id="patch_1">
   <path d="M 0 124.87875 
L 610.128 124.87875 
L 610.128 0 
L 0 0 
z
" style="fill: #ffffff"/>
  </g>
  <g id="axes_1">
   <g id="table_1">
    <g id="patch_2">
     <path d="M 3.6 51.775401 
L 87.297 51.775401 
L 87.297 39.973168 
L 3.6 39.973168 
z
" style="fill: #f0f0f0; stroke: #cccccc; stroke-width: 0.5; stroke-linejoin: miter"/>
    </g>
    <g id="text_1">
     <!-- Attack -->
     <g transform="translate(30.921 48.081784) scale(0.08 -0.08)">
      <defs>
       <path id="DejaVuSerif-Bold-41" d="M -50 0 
L -50 378 
L 331 378 
L 2088 4666 
L 2834 4666 
L 4594 378 
L 5038 378 
L 5038 0 
L 2853 0 
L 2853 378 
L 3309 378 
L 2925 1331 
L 1172 1331 
L 781 378 
L 1338 378 
L 1338 0 
L -50 0 
z
M 1325 1709 
L 2772 1709 
L 2053 3494 
L 1325 1709 
z
" transform="scale(0.015625)"/>
       <path id="DejaVuSerif-Bold-74" d="M 634 2944 
L 153 2944 
L 153 3322 
L 634 3322 
L 634 4353 
L 1741 4353 
L 1741 3322 
L 2663 3322 
L 2663 2944 
L 1741 2944 
L 1741 909 
Q 1741 475 1809 369 
Q 1878 263 2059 263 
Q 2259 263 2356 397 
Q 2453 531 2459 813 
L 2925 813 
Q 2897 313 2651 111 
Q 2406 -91 1806 -91 
Q 1122 -91 878 123 
Q 634 338 634 909 
L 634 2944 
z
" transform="scale(0.015625)"/>
       <path id="DejaVuSerif-Bold-61" d="M 3525 2041 
L 3525 378 
L 4000 378 
L 4000 0 
L 2419 0 
L 2419 422 
Q 2200 159 1931 34 
Q 1663 -91 1319 -91 
Q 809 -91 536 182 
Q 263 456 263 966 
Q 263 1525 655 1803 
Q 1047 2081 1838 2081 
L 2419 2081 
L 2419 2278 
Q 2419 2681 2228 2873 
Q 2038 3066 1638 3066 
Q 1306 3066 1126 2930 
Q 947 2794 872 2484 
L 519 2484 
L 519 3200 
Q 816 3306 1134 3359 
Q 1453 3413 1806 3413 
Q 2697 3413 3111 3081 
Q 3525 2750 3525 2041 
z
M 2419 1044 
L 2419 1709 
L 2003 1709 
Q 1694 1709 1528 1540 
Q 1363 1372 1363 1056 
Q 1363 741 1483 584 
Q 1603 428 1850 428 
Q 2106 428 2262 597 
Q 2419 766 2419 1044 
z
" transform="scale(0.015625)"/>
       <path id="DejaVuSerif-Bold-63" d="M 3609 1038 
Q 3491 469 3123 189 
Q 2756 -91 2125 -91 
Q 1238 -91 750 368 
Q 263 828 263 1663 
Q 263 2488 744 2950 
Q 1225 3413 2081 3413 
Q 2428 3413 2781 3347 
Q 3134 3281 3500 3150 
L 3500 2228 
L 3150 2228 
Q 3100 2650 2903 2854 
Q 2706 3059 2350 3059 
Q 1888 3059 1692 2746 
Q 1497 2434 1497 1663 
Q 1497 909 1687 586 
Q 1878 263 2309 263 
Q 2644 263 2845 463 
Q 3047 663 3091 1038 
L 3609 1038 
z
" transform="scale(0.015625)"/>
       <path id="DejaVuSerif-Bold-6b" d="M 2216 0 
L 219 0 
L 219 378 
L 691 378 
L 691 4488 
L 219 4488 
L 219 4863 
L 1797 4863 
L 1797 1741 
L 3138 2944 
L 2741 2944 
L 2741 3322 
L 4256 3322 
L 4256 2944 
L 3641 2944 
L 2784 2175 
L 4184 378 
L 4544 378 
L 4544 0 
L 2638 0 
L 2638 378 
L 3028 378 
L 2106 1563 
L 1797 1288 
L 1797 378 
L 2216 378 
L 2216 0 
z
" transform="scale(0.015625)"/>
      </defs>
      <use xlink:href="#DejaVuSerif-Bold-41"/>
      <use xlink:href="#DejaVuSerif-Bold-74" transform="translate(75.837891 0)"/>
      <use xlink:href="#DejaVuSerif-Bold-74" transform="translate(122.029297 0)"/>
      <use xlink:href="#DejaVuSerif-Bold-61" transform="translate(168.220703 0)"/>
      <use xlink:href="#DejaVuSerif-Bold-63" transform="translate(233.015625 0)"/>
      <use xlink:href="#DejaVuSerif-Bold-6b" transform="translate(293.904297 0)"/>
     </g>
    </g>
    <g id="patch_3">
     <path d="M 87.297 51.775401 
L 272.868 51.775401 
L 272.868 39.973168 
L 87.297 39.973168 
z
" style="fill: #f0f0f0; stroke: #cccccc; stroke-width: 0.5; stroke-linejoin: miter"/>
    </g>
    <g id="text_2">
     <!-- Adversarial Behavior -->
     <g transform="translate(133.185625 48.081784) scale(0.08 -0.08)">
      <defs>
       <path id="DejaVuSerif-Bold-64" d="M 2747 1497 
L 2747 1825 
Q 2747 2406 2597 2665 
Q 2447 2925 2119 2925 
Q 1775 2925 1636 2651 
Q 1497 2378 1497 1663 
Q 1497 947 1637 672 
Q 1778 397 2119 397 
Q 2447 397 2597 656 
Q 2747 916 2747 1497 
z
M 3853 378 
L 4325 378 
L 4325 0 
L 2747 0 
L 2747 422 
Q 2606 163 2367 36 
Q 2128 -91 1778 -91 
Q 1072 -91 667 378 
Q 263 847 263 1663 
Q 263 2481 667 2947 
Q 1072 3413 1778 3413 
Q 2128 3413 2367 3286 
Q 2606 3159 2747 2900 
L 2747 4488 
L 2272 4488 
L 2272 4863 
L 3853 4863 
L 3853 378 
z
" transform="scale(0.015625)"/>
       <path id="DejaVuSerif-Bold-76" d="M 1428 0 
L 250 2944 
L -116 2944 
L -116 3322 
L 1791 3322 
L 1791 2944 
L 1388 2944 
L 2228 844 
L 3066 2944 
L 2631 2944 
L 2631 3322 
L 3878 3322 
L 3878 2944 
L 3494 2944 
L 2316 0 
L 1428 0 
z
" transform="scale(0.015625)"/>
       <path id="DejaVuSerif-Bold-65" d="M 2566 1875 
Q 2566 2531 2444 2795 
Q 2322 3059 2028 3059 
Q 1744 3059 1620 2800 
Q 1497 2541 1497 1931 
L 1497 1875 
L 2566 1875 
z
M 3781 1503 
L 1497 1503 
L 1497 1478 
Q 1497 834 1690 548 
Q 1884 263 2316 263 
Q 2675 263 2897 453 
Q 3119 644 3181 1006 
L 3700 1006 
Q 3566 441 3166 175 
Q 2766 -91 2047 -91 
Q 1184 -91 723 364 
Q 263 819 263 1663 
Q 263 2488 734 2950 
Q 1206 3413 2047 3413 
Q 2872 3413 3312 2927 
Q 3753 2441 3781 1503 
z
" transform="scale(0.015625)"/>
       <path id="DejaVuSerif-Bold-72" d="M 3438 3359 
L 3438 2369 
L 3084 2369 
Q 3066 2634 2941 2764 
Q 2816 2894 2578 2894 
Q 2216 2894 2006 2575 
Q 1797 2256 1797 1691 
L 1797 378 
L 2400 378 
L 2400 0 
L 219 0 
L 219 378 
L 691 378 
L 691 2944 
L 184 2944 
L 184 3322 
L 1797 3322 
L 1797 2731 
Q 1959 3078 2226 3245 
Q 2494 3413 2881 3413 
Q 2978 3413 3117 3398 
Q 3256 3384 3438 3359 
z
" transform="scale(0.015625)"/>
       <path id="DejaVuSerif-Bold-73" d="M 300 97 
L 300 1025 
L 653 1025 
Q 697 653 931 458 
Q 1166 263 1569 263 
Q 1906 263 2086 380 
Q 2266 497 2266 716 
Q 2266 916 2152 1025 
Q 2038 1134 1709 1216 
L 1253 1331 
Q 738 1459 506 1698 
Q 275 1938 275 2344 
Q 275 2884 650 3148 
Q 1025 3413 1806 3413 
Q 2100 3413 2433 3364 
Q 2766 3316 3169 3213 
L 3169 2375 
L 2816 2375 
Q 2788 2716 2573 2887 
Q 2359 3059 1959 3059 
Q 1622 3059 1448 2951 
Q 1275 2844 1275 2638 
Q 1275 2469 1375 2372 
Q 1475 2275 1734 2209 
L 2188 2094 
Q 2841 1928 3091 1684 
Q 3341 1441 3341 1006 
Q 3341 444 2939 176 
Q 2538 -91 1691 -91 
Q 1381 -91 1034 -44 
Q 688 3 300 97 
z
" transform="scale(0.015625)"/>
       <path id="DejaVuSerif-Bold-69" d="M 588 4263 
Q 588 4516 763 4689 
Q 938 4863 1191 4863 
Q 1438 4863 1611 4689 
Q 1784 4516 1784 4263 
Q 1784 4016 1611 3842 
Q 1438 3669 1191 3669 
Q 938 3669 763 3841 
Q 588 4013 588 4263 
z
M 1797 378 
L 2272 378 
L 2272 0 
L 219 0 
L 219 378 
L 691 378 
L 691 2944 
L 219 2944 
L 219 3322 
L 1797 3322 
L 1797 378 
z
" transform="scale(0.015625)"/>
       <path id="DejaVuSerif-Bold-6c" d="M 1797 378 
L 2272 378 
L 2272 0 
L 219 0 
L 219 378 
L 691 378 
L 691 4488 
L 219 4488 
L 219 4863 
L 1797 4863 
L 1797 378 
z
" transform="scale(0.015625)"/>
       <path id="DejaVuSerif-Bold-20" transform="scale(0.015625)"/>
       <path id="DejaVuSerif-Bold-42" d="M 300 0 
L 300 378 
L 897 378 
L 897 4288 
L 300 4288 
L 300 4666 
L 3066 4666 
Q 3919 4666 4347 4378 
Q 4775 4091 4775 3513 
Q 4775 3097 4479 2853 
Q 4184 2609 3603 2547 
Q 4306 2481 4681 2172 
Q 5056 1863 5056 1350 
Q 5056 656 4532 328 
Q 4009 0 2894 0 
L 300 0 
z
M 2100 2719 
L 2509 2719 
Q 3047 2719 3306 2914 
Q 3566 3109 3566 3513 
Q 3566 3919 3314 4103 
Q 3063 4288 2509 4288 
L 2100 4288 
L 2100 2719 
z
M 2100 378 
L 2547 378 
Q 3144 378 3431 615 
Q 3719 853 3719 1350 
Q 3719 1850 3428 2097 
Q 3138 2344 2547 2344 
L 2100 2344 
L 2100 378 
z
" transform="scale(0.015625)"/>
       <path id="DejaVuSerif-Bold-68" d="M 219 0 
L 219 378 
L 691 378 
L 691 4488 
L 197 4488 
L 197 4863 
L 1797 4863 
L 1797 2853 
Q 1997 3150 2253 3281 
Q 2509 3413 2900 3413 
Q 3459 3413 3745 3083 
Q 4031 2753 4031 2113 
L 4031 378 
L 4506 378 
L 4506 0 
L 2522 0 
L 2522 378 
L 2925 378 
L 2925 2144 
Q 2925 2566 2817 2730 
Q 2709 2894 2444 2894 
Q 2109 2894 1953 2648 
Q 1797 2403 1797 1869 
L 1797 378 
L 2203 378 
L 2203 0 
L 219 0 
z
" transform="scale(0.015625)"/>
       <path id="DejaVuSerif-Bold-6f" d="M 2138 263 
Q 2488 263 2630 563 
Q 2772 863 2772 1663 
Q 2772 2463 2631 2761 
Q 2491 3059 2138 3059 
Q 1784 3059 1640 2757 
Q 1497 2456 1497 1663 
Q 1497 869 1640 566 
Q 1784 263 2138 263 
z
M 2138 -91 
Q 1259 -91 761 376 
Q 263 844 263 1663 
Q 263 2484 761 2948 
Q 1259 3413 2138 3413 
Q 3019 3413 3516 2948 
Q 4013 2484 4013 1663 
Q 4013 844 3514 376 
Q 3016 -91 2138 -91 
z
" transform="scale(0.015625)"/>
      </defs>
      <use xlink:href="#DejaVuSerif-Bold-41"/>
      <use xlink:href="#DejaVuSerif-Bold-64" transform="translate(77.587891 0)"/>
      <use xlink:href="#DejaVuSerif-Bold-76" transform="translate(147.509766 0)"/>
      <use xlink:href="#DejaVuSerif-Bold-65" transform="translate(205.615234 0)"/>
      <use xlink:href="#DejaVuSerif-Bold-72" transform="translate(269.238281 0)"/>
      <use xlink:href="#DejaVuSerif-Bold-73" transform="translate(321.923828 0)"/>
      <use xlink:href="#DejaVuSerif-Bold-61" transform="translate(378.222656 0)"/>
      <use xlink:href="#DejaVuSerif-Bold-72" transform="translate(443.017578 0)"/>
      <use xlink:href="#DejaVuSerif-Bold-69" transform="translate(495.703125 0)"/>
      <use xlink:href="#DejaVuSerif-Bold-61" transform="translate(533.691406 0)"/>
      <use xlink:href="#DejaVuSerif-Bold-6c" transform="translate(598.486328 0)"/>
      <use xlink:href="#DejaVuSerif-Bold-20" transform="translate(636.474609 0)"/>
      <use xlink:href="#DejaVuSerif-Bold-42" transform="translate(671.289062 0)"/>
      <use xlink:href="#DejaVuSerif-Bold-65" transform="translate(755.810547 0)"/>
      <use xlink:href="#DejaVuSerif-Bold-68" transform="translate(819.433594 0)"/>
      <use xlink:href="#DejaVuSerif-Bold-61" transform="translate(892.138672 0)"/>
      <use xlink:href="#DejaVuSerif-Bold-76" transform="translate(956.933594 0)"/>
      <use xlink:href="#DejaVuSerif-Bold-69" transform="translate(1015.039062 0)"/>
      <use xlink:href="#DejaVuSerif-Bold-6f" transform="translate(1053.027344 0)"/>
      <use xlink:href="#DejaVuSerif-Bold-72" transform="translate(1119.726562 0)"/>
     </g>
    </g>
    <g id="patch_4">
     <path d="M 272.868 51.775401 
L 433.407 51.775401 
L 433.407 39.973168 
L 272.868 39.973168 
z
" style="fill: #f0f0f0; stroke: #cccccc; stroke-width: 0.5; stroke-linejoin: miter"/>
    </g>
    <g id="text_3">
     <!-- Economic Goal -->
     <g transform="translate(319.633125 48.081784) scale(0.08 -0.08)">
      <defs>
       <path id="DejaVuSerif-Bold-45" d="M 300 0 
L 300 378 
L 897 378 
L 897 4288 
L 300 4288 
L 300 4666 
L 4494 4666 
L 4494 3566 
L 4063 3566 
L 4063 4238 
L 2100 4238 
L 2100 2741 
L 3322 2741 
L 3322 3334 
L 3750 3334 
L 3750 1722 
L 3322 1722 
L 3322 2316 
L 2100 2316 
L 2100 428 
L 4122 428 
L 4122 1100 
L 4550 1100 
L 4550 0 
L 300 0 
z
" transform="scale(0.015625)"/>
       <path id="DejaVuSerif-Bold-6e" d="M 219 0 
L 219 378 
L 691 378 
L 691 2944 
L 219 2944 
L 219 3322 
L 1797 3322 
L 1797 2853 
Q 1997 3150 2253 3281 
Q 2509 3413 2900 3413 
Q 3459 3413 3745 3083 
Q 4031 2753 4031 2113 
L 4031 378 
L 4506 378 
L 4506 0 
L 2522 0 
L 2522 378 
L 2925 378 
L 2925 2144 
Q 2925 2566 2817 2730 
Q 2709 2894 2444 2894 
Q 2109 2894 1953 2648 
Q 1797 2403 1797 1869 
L 1797 378 
L 2203 378 
L 2203 0 
L 219 0 
z
" transform="scale(0.015625)"/>
       <path id="DejaVuSerif-Bold-6d" d="M 3884 2778 
Q 4116 3109 4384 3261 
Q 4653 3413 5013 3413 
Q 5584 3413 5867 3089 
Q 6150 2766 6150 2113 
L 6150 378 
L 6625 378 
L 6625 0 
L 4647 0 
L 4647 378 
L 5044 378 
L 5044 1947 
Q 5044 2569 4948 2731 
Q 4853 2894 4594 2894 
Q 4300 2894 4137 2667 
Q 3975 2441 3975 2022 
L 3975 378 
L 4372 378 
L 4372 0 
L 2472 0 
L 2472 378 
L 2869 378 
L 2869 1947 
Q 2869 2569 2772 2731 
Q 2675 2894 2419 2894 
Q 2122 2894 1959 2667 
Q 1797 2441 1797 2022 
L 1797 378 
L 2194 378 
L 2194 0 
L 219 0 
L 219 378 
L 691 378 
L 691 2944 
L 219 2944 
L 219 3322 
L 1797 3322 
L 1797 2853 
Q 1991 3144 2241 3278 
Q 2491 3413 2834 3413 
Q 3241 3413 3494 3258 
Q 3747 3103 3884 2778 
z
" transform="scale(0.015625)"/>
       <path id="DejaVuSerif-Bold-47" d="M 4403 3200 
Q 4263 3819 3934 4095 
Q 3606 4372 3009 4372 
Q 2284 4372 1945 3880 
Q 1606 3388 1606 2328 
Q 1606 1278 1931 783 
Q 2256 288 2944 288 
Q 3206 288 3431 347 
Q 3656 406 3841 525 
L 3841 1806 
L 3278 1806 
L 3278 2181 
L 4959 2181 
L 4959 391 
Q 4434 147 3911 28 
Q 3388 -91 2841 -91 
Q 1641 -91 955 556 
Q 269 1203 269 2328 
Q 269 3456 955 4103 
Q 1641 4750 2841 4750 
Q 3341 4750 3825 4650 
Q 4309 4550 4800 4347 
L 4800 3200 
L 4403 3200 
z
" transform="scale(0.015625)"/>
      </defs>
      <use xlink:href="#DejaVuSerif-Bold-45"/>
      <use xlink:href="#DejaVuSerif-Bold-63" transform="translate(76.220703 0)"/>
      <use xlink:href="#DejaVuSerif-Bold-6f" transform="translate(137.109375 0)"/>
      <use xlink:href="#DejaVuSerif-Bold-6e" transform="translate(203.808594 0)"/>
      <use xlink:href="#DejaVuSerif-Bold-6f" transform="translate(276.513672 0)"/>
      <use xlink:href="#DejaVuSerif-Bold-6d" transform="translate(343.212891 0)"/>
      <use xlink:href="#DejaVuSerif-Bold-69" transform="translate(449.023438 0)"/>
      <use xlink:href="#DejaVuSerif-Bold-63" transform="translate(487.011719 0)"/>
      <use xlink:href="#DejaVuSerif-Bold-20" transform="translate(547.900391 0)"/>
      <use xlink:href="#DejaVuSerif-Bold-47" transform="translate(582.714844 0)"/>
      <use xlink:href="#DejaVuSerif-Bold-6f" transform="translate(668.115234 0)"/>
      <use xlink:href="#DejaVuSerif-Bold-61" transform="translate(734.814453 0)"/>
      <use xlink:href="#DejaVuSerif-Bold-6c" transform="translate(799.609375 0)"/>
     </g>
    </g>
    <g id="patch_5">
     <path d="M 433.407 51.775401 
L 606.528 51.775401 
L 606.528 39.973168 
L 433.407 39.973168 
z
" style="fill: #f0f0f0; stroke: #cccccc; stroke-width: 0.5; stroke-linejoin: miter"/>
    </g>
    <g id="text_4">
     <!-- Detection Signal -->
     <g transform="translate(482.565625 48.024909) scale(0.08 -0.08)">
      <defs>
       <path id="DejaVuSerif-Bold-44" d="M 2100 378 
L 2534 378 
Q 3266 378 3605 847 
Q 3944 1316 3944 2338 
Q 3944 3353 3606 3820 
Q 3269 4288 2534 4288 
L 2100 4288 
L 2100 378 
z
M 300 0 
L 300 378 
L 897 378 
L 897 4288 
L 300 4288 
L 300 4666 
L 2694 4666 
Q 3950 4666 4615 4066 
Q 5281 3466 5281 2338 
Q 5281 1203 4614 601 
Q 3947 0 2694 0 
L 300 0 
z
" transform="scale(0.015625)"/>
       <path id="DejaVuSerif-Bold-53" d="M 494 225 
L 494 1331 
L 891 1331 
Q 981 806 1318 547 
Q 1656 288 2253 288 
Q 2738 288 2991 472 
Q 3244 656 3244 1013 
Q 3244 1294 3072 1450 
Q 2900 1606 2363 1741 
L 1663 1913 
Q 978 2088 700 2398 
Q 422 2709 422 3284 
Q 422 3978 883 4364 
Q 1344 4750 2175 4750 
Q 2584 4750 3026 4681 
Q 3469 4613 3944 4475 
L 3944 3444 
L 3547 3444 
Q 3456 3925 3150 4148 
Q 2844 4372 2278 4372 
Q 1816 4372 1580 4211 
Q 1344 4050 1344 3731 
Q 1344 3441 1506 3289 
Q 1669 3138 2303 2975 
L 3003 2803 
Q 3653 2641 3945 2297 
Q 4238 1953 4238 1350 
Q 4238 644 3750 276 
Q 3263 -91 2316 -91 
Q 1859 -91 1409 -12 
Q 959 66 494 225 
z
" transform="scale(0.015625)"/>
       <path id="DejaVuSerif-Bold-67" d="M 3853 2944 
L 3853 44 
Q 3853 -656 3354 -1039 
Q 2856 -1422 1947 -1422 
Q 1616 -1422 1275 -1370 
Q 934 -1319 575 -1216 
L 575 -422 
L 928 -422 
Q 975 -750 1192 -909 
Q 1409 -1069 1813 -1069 
Q 2325 -1069 2536 -823 
Q 2747 -578 2747 44 
L 2747 422 
Q 2606 163 2367 36 
Q 2128 -91 1778 -91 
Q 1072 -91 667 378 
Q 263 847 263 1663 
Q 263 2481 667 2947 
Q 1072 3413 1778 3413 
Q 2128 3413 2367 3286 
Q 2606 3159 2747 2900 
L 2747 3322 
L 4325 3322 
L 4325 2944 
L 3853 2944 
z
M 2747 1825 
Q 2747 2406 2597 2665 
Q 2447 2925 2119 2925 
Q 1775 2925 1636 2651 
Q 1497 2378 1497 1663 
Q 1497 947 1637 672 
Q 1778 397 2119 397 
Q 2447 397 2597 656 
Q 2747 916 2747 1497 
L 2747 1825 
z
" transform="scale(0.015625)"/>
      </defs>
      <use xlink:href="#DejaVuSerif-Bold-44"/>
      <use xlink:href="#DejaVuSerif-Bold-65" transform="translate(86.71875 0)"/>
      <use xlink:href="#DejaVuSerif-Bold-74" transform="translate(150.341797 0)"/>
      <use xlink:href="#DejaVuSerif-Bold-65" transform="translate(196.533203 0)"/>
      <use xlink:href="#DejaVuSerif-Bold-63" transform="translate(260.15625 0)"/>
      <use xlink:href="#DejaVuSerif-Bold-74" transform="translate(321.044922 0)"/>
      <use xlink:href="#DejaVuSerif-Bold-69" transform="translate(367.236328 0)"/>
      <use xlink:href="#DejaVuSerif-Bold-6f" transform="translate(405.224609 0)"/>
      <use xlink:href="#DejaVuSerif-Bold-6e" transform="translate(471.923828 0)"/>
      <use xlink:href="#DejaVuSerif-Bold-20" transform="translate(544.628906 0)"/>
      <use xlink:href="#DejaVuSerif-Bold-53" transform="translate(579.443359 0)"/>
      <use xlink:href="#DejaVuSerif-Bold-69" transform="translate(651.660156 0)"/>
      <use xlink:href="#DejaVuSerif-Bold-67" transform="translate(689.648438 0)"/>
      <use xlink:href="#DejaVuSerif-Bold-6e" transform="translate(759.570312 0)"/>
      <use xlink:href="#DejaVuSerif-Bold-61" transform="translate(832.275391 0)"/>
      <use xlink:href="#DejaVuSerif-Bold-6c" transform="translate(897.070312 0)"/>
     </g>
    </g>
    <g id="patch_6">
     <path d="M 3.6 63.577634 
L 87.297 63.577634 
L 87.297 51.775401 
L 3.6 51.775401 
z
" style="fill: #ffffff; stroke: #cccccc; stroke-width: 0.5; stroke-linejoin: miter"/>
    </g>
    <g id="text_5">
     <!-- Collusion Ring -->
     <g transform="translate(11.9697 59.827142) scale(0.08 -0.08)">
      <defs>
       <path id="DejaVuSerif-43" d="M 4513 1234 
Q 4306 581 3820 245 
Q 3334 -91 2591 -91 
Q 2134 -91 1743 65 
Q 1353 222 1050 525 
Q 700 875 529 1320 
Q 359 1766 359 2328 
Q 359 3416 987 4083 
Q 1616 4750 2644 4750 
Q 3025 4750 3456 4650 
Q 3888 4550 4384 4347 
L 4384 3272 
L 4031 3272 
Q 3916 3859 3567 4137 
Q 3219 4416 2591 4416 
Q 1844 4416 1459 3886 
Q 1075 3356 1075 2328 
Q 1075 1303 1459 773 
Q 1844 244 2591 244 
Q 3113 244 3450 492 
Q 3788 741 3938 1234 
L 4513 1234 
z
" transform="scale(0.015625)"/>
       <path id="DejaVuSerif-6f" d="M 1925 219 
Q 2388 219 2623 584 
Q 2859 950 2859 1663 
Q 2859 2375 2623 2739 
Q 2388 3103 1925 3103 
Q 1463 3103 1227 2739 
Q 991 2375 991 1663 
Q 991 950 1228 584 
Q 1466 219 1925 219 
z
M 1925 -91 
Q 1200 -91 759 389 
Q 319 869 319 1663 
Q 319 2456 758 2934 
Q 1197 3413 1925 3413 
Q 2653 3413 3092 2934 
Q 3531 2456 3531 1663 
Q 3531 869 3092 389 
Q 2653 -91 1925 -91 
z
" transform="scale(0.015625)"/>
       <path id="DejaVuSerif-6c" d="M 1313 331 
L 1856 331 
L 1856 0 
L 184 0 
L 184 331 
L 738 331 
L 738 4531 
L 184 4531 
L 184 4863 
L 1313 4863 
L 1313 331 
z
" transform="scale(0.015625)"/>
       <path id="DejaVuSerif-75" d="M 2266 3322 
L 3341 3322 
L 3341 331 
L 3884 331 
L 3884 0 
L 2766 0 
L 2766 588 
Q 2606 256 2353 82 
Q 2100 -91 1766 -91 
Q 1213 -91 952 223 
Q 691 538 691 1209 
L 691 2988 
L 172 2988 
L 172 3322 
L 1269 3322 
L 1269 1388 
Q 1269 781 1417 556 
Q 1566 331 1947 331 
Q 2347 331 2556 625 
Q 2766 919 2766 1478 
L 2766 2988 
L 2266 2988 
L 2266 3322 
z
" transform="scale(0.015625)"/>
       <path id="DejaVuSerif-73" d="M 359 184 
L 359 959 
L 691 959 
Q 703 588 923 403 
Q 1144 219 1575 219 
Q 1963 219 2166 364 
Q 2369 509 2369 788 
Q 2369 1006 2220 1140 
Q 2072 1275 1594 1428 
L 1178 1569 
Q 750 1706 558 1912 
Q 366 2119 366 2438 
Q 366 2894 700 3153 
Q 1034 3413 1625 3413 
Q 1888 3413 2178 3344 
Q 2469 3275 2778 3144 
L 2778 2419 
L 2447 2419 
Q 2434 2741 2221 2922 
Q 2009 3103 1644 3103 
Q 1281 3103 1095 2975 
Q 909 2847 909 2591 
Q 909 2381 1050 2254 
Q 1191 2128 1613 1997 
L 2069 1856 
Q 2541 1709 2748 1489 
Q 2956 1269 2956 922 
Q 2956 450 2595 179 
Q 2234 -91 1600 -91 
Q 1278 -91 972 -22 
Q 666 47 359 184 
z
" transform="scale(0.015625)"/>
       <path id="DejaVuSerif-69" d="M 622 4353 
Q 622 4497 726 4603 
Q 831 4709 978 4709 
Q 1122 4709 1226 4603 
Q 1331 4497 1331 4353 
Q 1331 4206 1228 4103 
Q 1125 4000 978 4000 
Q 831 4000 726 4103 
Q 622 4206 622 4353 
z
M 1356 331 
L 1900 331 
L 1900 0 
L 231 0 
L 231 331 
L 781 331 
L 781 2988 
L 231 2988 
L 231 3322 
L 1356 3322 
L 1356 331 
z
" transform="scale(0.015625)"/>
       <path id="DejaVuSerif-6e" d="M 263 0 
L 263 331 
L 781 331 
L 781 2988 
L 231 2988 
L 231 3322 
L 1356 3322 
L 1356 2731 
Q 1516 3069 1770 3241 
Q 2025 3413 2363 3413 
Q 2913 3413 3172 3097 
Q 3431 2781 3431 2113 
L 3431 331 
L 3944 331 
L 3944 0 
L 2356 0 
L 2356 331 
L 2853 331 
L 2853 1931 
Q 2853 2541 2703 2767 
Q 2553 2994 2175 2994 
Q 1775 2994 1565 2701 
Q 1356 2409 1356 1850 
L 1356 331 
L 1856 331 
L 1856 0 
L 263 0 
z
" transform="scale(0.015625)"/>
       <path id="DejaVuSerif-20" transform="scale(0.015625)"/>
       <path id="DejaVuSerif-52" d="M 3066 2316 
Q 3284 2256 3442 2114 
Q 3600 1972 3725 1716 
L 4403 331 
L 4972 331 
L 4972 0 
L 3872 0 
L 3144 1484 
Q 2934 1916 2759 2042 
Q 2584 2169 2278 2169 
L 1581 2169 
L 1581 331 
L 2241 331 
L 2241 0 
L 353 0 
L 353 331 
L 947 331 
L 947 4331 
L 353 4331 
L 353 4666 
L 2719 4666 
Q 3400 4666 3770 4341 
Q 4141 4016 4141 3419 
Q 4141 2938 3870 2661 
Q 3600 2384 3066 2316 
z
M 1581 2503 
L 2503 2503 
Q 2975 2503 3200 2726 
Q 3425 2950 3425 3419 
Q 3425 3888 3200 4109 
Q 2975 4331 2503 4331 
L 1581 4331 
L 1581 2503 
z
" transform="scale(0.015625)"/>
       <path id="DejaVuSerif-67" d="M 3359 2988 
L 3359 72 
Q 3359 -644 2965 -1033 
Q 2572 -1422 1844 -1422 
Q 1516 -1422 1216 -1362 
Q 916 -1303 641 -1184 
L 641 -488 
L 941 -488 
Q 997 -813 1206 -963 
Q 1416 -1113 1806 -1113 
Q 2313 -1113 2548 -827 
Q 2784 -541 2784 72 
L 2784 519 
Q 2616 206 2355 57 
Q 2094 -91 1709 -91 
Q 1097 -91 708 395 
Q 319 881 319 1663 
Q 319 2444 706 2928 
Q 1094 3413 1709 3413 
Q 2094 3413 2355 3264 
Q 2616 3116 2784 2803 
L 2784 3322 
L 3909 3322 
L 3909 2988 
L 3359 2988 
z
M 2784 1825 
Q 2784 2422 2554 2737 
Q 2325 3053 1888 3053 
Q 1444 3053 1217 2703 
Q 991 2353 991 1663 
Q 991 975 1217 622 
Q 1444 269 1888 269 
Q 2325 269 2554 583 
Q 2784 897 2784 1497 
L 2784 1825 
z
" transform="scale(0.015625)"/>
      </defs>
      <use xlink:href="#DejaVuSerif-43"/>
      <use xlink:href="#DejaVuSerif-6f" transform="translate(76.513672 0)"/>
      <use xlink:href="#DejaVuSerif-6c" transform="translate(136.71875 0)"/>
      <use xlink:href="#DejaVuSerif-6c" transform="translate(168.701172 0)"/>
      <use xlink:href="#DejaVuSerif-75" transform="translate(200.683594 0)"/>
      <use xlink:href="#DejaVuSerif-73" transform="translate(265.087891 0)"/>
      <use xlink:href="#DejaVuSerif-69" transform="translate(316.40625 0)"/>
      <use xlink:href="#DejaVuSerif-6f" transform="translate(348.388672 0)"/>
      <use xlink:href="#DejaVuSerif-6e" transform="translate(408.59375 0)"/>
      <use xlink:href="#DejaVuSerif-20" transform="translate(472.998047 0)"/>
      <use xlink:href="#DejaVuSerif-52" transform="translate(504.785156 0)"/>
      <use xlink:href="#DejaVuSerif-69" transform="translate(580.078125 0)"/>
      <use xlink:href="#DejaVuSerif-6e" transform="translate(612.060547 0)"/>
      <use xlink:href="#DejaVuSerif-67" transform="translate(676.464844 0)"/>
     </g>
    </g>
    <g id="patch_7">
     <path d="M 87.297 63.577634 
L 272.868 63.577634 
L 272.868 51.775401 
L 87.297 51.775401 
z
" style="fill: #ffffff; stroke: #cccccc; stroke-width: 0.5; stroke-linejoin: miter"/>
    </g>
    <g id="text_6">
     <!-- Mutual endorsement among colluders -->
     <g transform="translate(105.8541 59.827142) scale(0.08 -0.08)">
      <defs>
       <path id="DejaVuSerif-4d" d="M 353 0 
L 353 331 
L 947 331 
L 947 4331 
L 319 4331 
L 319 4666 
L 1678 4666 
L 3316 1344 
L 4953 4666 
L 6228 4666 
L 6228 4331 
L 5606 4331 
L 5606 331 
L 6203 331 
L 6203 0 
L 4378 0 
L 4378 331 
L 4972 331 
L 4972 3938 
L 3372 684 
L 2931 684 
L 1331 3938 
L 1331 331 
L 1925 331 
L 1925 0 
L 353 0 
z
" transform="scale(0.015625)"/>
       <path id="DejaVuSerif-74" d="M 691 2988 
L 184 2988 
L 184 3322 
L 691 3322 
L 691 4353 
L 1269 4353 
L 1269 3322 
L 2350 3322 
L 2350 2988 
L 1269 2988 
L 1269 878 
Q 1269 456 1350 337 
Q 1431 219 1650 219 
Q 1875 219 1978 351 
Q 2081 484 2088 781 
L 2522 781 
Q 2497 328 2275 118 
Q 2053 -91 1600 -91 
Q 1103 -91 897 129 
Q 691 350 691 878 
L 691 2988 
z
" transform="scale(0.015625)"/>
       <path id="DejaVuSerif-61" d="M 2547 1044 
L 2547 1747 
L 1806 1747 
Q 1378 1747 1168 1562 
Q 959 1378 959 997 
Q 959 650 1171 447 
Q 1384 244 1747 244 
Q 2106 244 2326 466 
Q 2547 688 2547 1044 
z
M 3122 2075 
L 3122 331 
L 3634 331 
L 3634 0 
L 2547 0 
L 2547 359 
Q 2356 128 2106 18 
Q 1856 -91 1522 -91 
Q 969 -91 644 203 
Q 319 497 319 997 
Q 319 1513 691 1797 
Q 1063 2081 1741 2081 
L 2547 2081 
L 2547 2309 
Q 2547 2688 2317 2895 
Q 2088 3103 1672 3103 
Q 1328 3103 1125 2947 
Q 922 2791 872 2484 
L 575 2484 
L 575 3156 
Q 875 3284 1158 3348 
Q 1441 3413 1709 3413 
Q 2400 3413 2761 3070 
Q 3122 2728 3122 2075 
z
" transform="scale(0.015625)"/>
       <path id="DejaVuSerif-65" d="M 3469 1600 
L 991 1600 
L 991 1575 
Q 991 903 1244 561 
Q 1497 219 1991 219 
Q 2369 219 2611 417 
Q 2853 616 2950 1006 
L 3413 1006 
Q 3275 459 2904 184 
Q 2534 -91 1931 -91 
Q 1203 -91 761 389 
Q 319 869 319 1663 
Q 319 2450 753 2931 
Q 1188 3413 1894 3413 
Q 2647 3413 3050 2948 
Q 3453 2484 3469 1600 
z
M 2791 1931 
Q 2772 2513 2545 2808 
Q 2319 3103 1894 3103 
Q 1497 3103 1269 2806 
Q 1041 2509 991 1931 
L 2791 1931 
z
" transform="scale(0.015625)"/>
       <path id="DejaVuSerif-64" d="M 3359 331 
L 3909 331 
L 3909 0 
L 2784 0 
L 2784 519 
Q 2616 206 2355 57 
Q 2094 -91 1709 -91 
Q 1097 -91 708 395 
Q 319 881 319 1663 
Q 319 2444 706 2928 
Q 1094 3413 1709 3413 
Q 2094 3413 2355 3264 
Q 2616 3116 2784 2803 
L 2784 4531 
L 2241 4531 
L 2241 4863 
L 3359 4863 
L 3359 331 
z
M 2784 1497 
L 2784 1825 
Q 2784 2422 2554 2737 
Q 2325 3053 1888 3053 
Q 1444 3053 1217 2703 
Q 991 2353 991 1663 
Q 991 975 1217 622 
Q 1444 269 1888 269 
Q 2325 269 2554 583 
Q 2784 897 2784 1497 
z
" transform="scale(0.015625)"/>
       <path id="DejaVuSerif-72" d="M 3059 3328 
L 3059 2497 
L 2728 2497 
Q 2713 2744 2591 2866 
Q 2469 2988 2234 2988 
Q 1809 2988 1582 2694 
Q 1356 2400 1356 1850 
L 1356 331 
L 2022 331 
L 2022 0 
L 263 0 
L 263 331 
L 781 331 
L 781 2994 
L 231 2994 
L 231 3322 
L 1356 3322 
L 1356 2731 
Q 1525 3078 1790 3245 
Q 2056 3413 2438 3413 
Q 2578 3413 2733 3391 
Q 2888 3369 3059 3328 
z
" transform="scale(0.015625)"/>
       <path id="DejaVuSerif-6d" d="M 3316 2675 
Q 3481 3041 3739 3227 
Q 3997 3413 4341 3413 
Q 4863 3413 5119 3089 
Q 5375 2766 5375 2113 
L 5375 331 
L 5894 331 
L 5894 0 
L 4300 0 
L 4300 331 
L 4800 331 
L 4800 2047 
Q 4800 2556 4650 2772 
Q 4500 2988 4153 2988 
Q 3769 2988 3567 2697 
Q 3366 2406 3366 1850 
L 3366 331 
L 3866 331 
L 3866 0 
L 2291 0 
L 2291 331 
L 2791 331 
L 2791 2069 
Q 2791 2566 2641 2777 
Q 2491 2988 2144 2988 
Q 1759 2988 1557 2697 
Q 1356 2406 1356 1850 
L 1356 331 
L 1856 331 
L 1856 0 
L 263 0 
L 263 331 
L 781 331 
L 781 2994 
L 231 2994 
L 231 3322 
L 1356 3322 
L 1356 2731 
Q 1516 3063 1762 3238 
Q 2009 3413 2322 3413 
Q 2709 3413 2968 3220 
Q 3228 3028 3316 2675 
z
" transform="scale(0.015625)"/>
       <path id="DejaVuSerif-63" d="M 3291 997 
Q 3169 466 2822 187 
Q 2475 -91 1925 -91 
Q 1200 -91 759 389 
Q 319 869 319 1663 
Q 319 2459 759 2936 
Q 1200 3413 1925 3413 
Q 2241 3413 2553 3339 
Q 2866 3266 3181 3116 
L 3181 2266 
L 2847 2266 
Q 2781 2703 2561 2903 
Q 2341 3103 1931 3103 
Q 1466 3103 1228 2742 
Q 991 2381 991 1663 
Q 991 944 1227 581 
Q 1463 219 1931 219 
Q 2303 219 2525 412 
Q 2747 606 2828 997 
L 3291 997 
z
" transform="scale(0.015625)"/>
      </defs>
      <use xlink:href="#DejaVuSerif-4d"/>
      <use xlink:href="#DejaVuSerif-75" transform="translate(102.392578 0)"/>
      <use xlink:href="#DejaVuSerif-74" transform="translate(166.796875 0)"/>
      <use xlink:href="#DejaVuSerif-75" transform="translate(206.982422 0)"/>
      <use xlink:href="#DejaVuSerif-61" transform="translate(271.386719 0)"/>
      <use xlink:href="#DejaVuSerif-6c" transform="translate(331.005859 0)"/>
      <use xlink:href="#DejaVuSerif-20" transform="translate(362.988281 0)"/>
      <use xlink:href="#DejaVuSerif-65" transform="translate(394.775391 0)"/>
      <use xlink:href="#DejaVuSerif-6e" transform="translate(453.955078 0)"/>
      <use xlink:href="#DejaVuSerif-64" transform="translate(518.359375 0)"/>
      <use xlink:href="#DejaVuSerif-6f" transform="translate(582.373047 0)"/>
      <use xlink:href="#DejaVuSerif-72" transform="translate(642.578125 0)"/>
      <use xlink:href="#DejaVuSerif-73" transform="translate(690.380859 0)"/>
      <use xlink:href="#DejaVuSerif-65" transform="translate(741.699219 0)"/>
      <use xlink:href="#DejaVuSerif-6d" transform="translate(800.878906 0)"/>
      <use xlink:href="#DejaVuSerif-65" transform="translate(895.703125 0)"/>
      <use xlink:href="#DejaVuSerif-6e" transform="translate(954.882812 0)"/>
      <use xlink:href="#DejaVuSerif-74" transform="translate(1019.287109 0)"/>
      <use xlink:href="#DejaVuSerif-20" transform="translate(1059.472656 0)"/>
      <use xlink:href="#DejaVuSerif-61" transform="translate(1091.259766 0)"/>
      <use xlink:href="#DejaVuSerif-6d" transform="translate(1150.878906 0)"/>
      <use xlink:href="#DejaVuSerif-6f" transform="translate(1245.703125 0)"/>
      <use xlink:href="#DejaVuSerif-6e" transform="translate(1305.908203 0)"/>
      <use xlink:href="#DejaVuSerif-67" transform="translate(1370.3125 0)"/>
      <use xlink:href="#DejaVuSerif-20" transform="translate(1434.326172 0)"/>
      <use xlink:href="#DejaVuSerif-63" transform="translate(1466.113281 0)"/>
      <use xlink:href="#DejaVuSerif-6f" transform="translate(1522.119141 0)"/>
      <use xlink:href="#DejaVuSerif-6c" transform="translate(1582.324219 0)"/>
      <use xlink:href="#DejaVuSerif-6c" transform="translate(1614.306641 0)"/>
      <use xlink:href="#DejaVuSerif-75" transform="translate(1646.289062 0)"/>
      <use xlink:href="#DejaVuSerif-64" transform="translate(1710.693359 0)"/>
      <use xlink:href="#DejaVuSerif-65" transform="translate(1774.707031 0)"/>
      <use xlink:href="#DejaVuSerif-72" transform="translate(1833.886719 0)"/>
      <use xlink:href="#DejaVuSerif-73" transform="translate(1881.689453 0)"/>
     </g>
    </g>
    <g id="patch_8">
     <path d="M 272.868 63.577634 
L 433.407 63.577634 
L 433.407 51.775401 
L 272.868 51.775401 
z
" style="fill: #ffffff; stroke: #cccccc; stroke-width: 0.5; stroke-linejoin: miter"/>
    </g>
    <g id="text_7">
     <!-- Routing share via inflated scores -->
     <g transform="translate(288.9219 59.827142) scale(0.08 -0.08)">
      <defs>
       <path id="DejaVuSerif-68" d="M 263 0 
L 263 331 
L 781 331 
L 781 4531 
L 231 4531 
L 231 4863 
L 1356 4863 
L 1356 2731 
Q 1516 3069 1770 3241 
Q 2025 3413 2363 3413 
Q 2913 3413 3172 3097 
Q 3431 2781 3431 2113 
L 3431 331 
L 3944 331 
L 3944 0 
L 2356 0 
L 2356 331 
L 2853 331 
L 2853 1931 
Q 2853 2541 2704 2764 
Q 2556 2988 2175 2988 
Q 1775 2988 1565 2697 
Q 1356 2406 1356 1850 
L 1356 331 
L 1856 331 
L 1856 0 
L 263 0 
z
" transform="scale(0.015625)"/>
       <path id="DejaVuSerif-76" d="M 1581 0 
L 359 2988 
L -19 2988 
L -19 3322 
L 1509 3322 
L 1509 2988 
L 978 2988 
L 1913 703 
L 2847 2988 
L 2350 2988 
L 2350 3322 
L 3597 3322 
L 3597 2988 
L 3225 2988 
L 2003 0 
L 1581 0 
z
" transform="scale(0.015625)"/>
       <path id="DejaVuSerif-66" d="M 2753 4078 
L 2450 4078 
Q 2447 4313 2317 4434 
Q 2188 4556 1941 4556 
Q 1619 4556 1487 4379 
Q 1356 4203 1356 3750 
L 1356 3322 
L 2284 3322 
L 2284 2988 
L 1356 2988 
L 1356 331 
L 2094 331 
L 2094 0 
L 231 0 
L 231 331 
L 781 331 
L 781 2988 
L 231 2988 
L 231 3322 
L 781 3322 
L 781 3738 
Q 781 4294 1070 4578 
Q 1359 4863 1919 4863 
Q 2128 4863 2337 4825 
Q 2547 4788 2753 4709 
L 2753 4078 
z
" transform="scale(0.015625)"/>
      </defs>
      <use xlink:href="#DejaVuSerif-52"/>
      <use xlink:href="#DejaVuSerif-6f" transform="translate(75.292969 0)"/>
      <use xlink:href="#DejaVuSerif-75" transform="translate(135.498047 0)"/>
      <use xlink:href="#DejaVuSerif-74" transform="translate(199.902344 0)"/>
      <use xlink:href="#DejaVuSerif-69" transform="translate(240.087891 0)"/>
      <use xlink:href="#DejaVuSerif-6e" transform="translate(272.070312 0)"/>
      <use xlink:href="#DejaVuSerif-67" transform="translate(336.474609 0)"/>
      <use xlink:href="#DejaVuSerif-20" transform="translate(400.488281 0)"/>
      <use xlink:href="#DejaVuSerif-73" transform="translate(432.275391 0)"/>
      <use xlink:href="#DejaVuSerif-68" transform="translate(483.59375 0)"/>
      <use xlink:href="#DejaVuSerif-61" transform="translate(547.998047 0)"/>
      <use xlink:href="#DejaVuSerif-72" transform="translate(607.617188 0)"/>
      <use xlink:href="#DejaVuSerif-65" transform="translate(655.419922 0)"/>
      <use xlink:href="#DejaVuSerif-20" transform="translate(714.599609 0)"/>
      <use xlink:href="#DejaVuSerif-76" transform="translate(746.386719 0)"/>
      <use xlink:href="#DejaVuSerif-69" transform="translate(802.880859 0)"/>
      <use xlink:href="#DejaVuSerif-61" transform="translate(834.863281 0)"/>
      <use xlink:href="#DejaVuSerif-20" transform="translate(894.482422 0)"/>
      <use xlink:href="#DejaVuSerif-69" transform="translate(926.269531 0)"/>
      <use xlink:href="#DejaVuSerif-6e" transform="translate(958.251953 0)"/>
      <use xlink:href="#DejaVuSerif-66" transform="translate(1022.65625 0)"/>
      <use xlink:href="#DejaVuSerif-6c" transform="translate(1059.667969 0)"/>
      <use xlink:href="#DejaVuSerif-61" transform="translate(1091.650391 0)"/>
      <use xlink:href="#DejaVuSerif-74" transform="translate(1151.269531 0)"/>
      <use xlink:href="#DejaVuSerif-65" transform="translate(1191.455078 0)"/>
      <use xlink:href="#DejaVuSerif-64" transform="translate(1250.634766 0)"/>
      <use xlink:href="#DejaVuSerif-20" transform="translate(1314.648438 0)"/>
      <use xlink:href="#DejaVuSerif-73" transform="translate(1346.435547 0)"/>
      <use xlink:href="#DejaVuSerif-63" transform="translate(1397.753906 0)"/>
      <use xlink:href="#DejaVuSerif-6f" transform="translate(1453.759766 0)"/>
      <use xlink:href="#DejaVuSerif-72" transform="translate(1513.964844 0)"/>
      <use xlink:href="#DejaVuSerif-65" transform="translate(1561.767578 0)"/>
      <use xlink:href="#DejaVuSerif-73" transform="translate(1620.947266 0)"/>
     </g>
    </g>
    <g id="patch_9">
     <path d="M 433.407 63.577634 
L 606.528 63.577634 
L 606.528 51.775401 
L 433.407 51.775401 
z
" style="fill: #ffffff; stroke: #cccccc; stroke-width: 0.5; stroke-linejoin: miter"/>
    </g>
    <g id="text_8">
     <!-- Low counterparty entropy -->
     <g transform="translate(450.7191 59.770267) scale(0.08 -0.08)">
      <defs>
       <path id="DejaVuSerif-4c" d="M 353 0 
L 353 331 
L 947 331 
L 947 4331 
L 353 4331 
L 353 4666 
L 2175 4666 
L 2175 4331 
L 1581 4331 
L 1581 384 
L 3713 384 
L 3713 1166 
L 4097 1166 
L 4097 0 
L 353 0 
z
" transform="scale(0.015625)"/>
       <path id="DejaVuSerif-77" d="M 3072 3322 
L 3922 728 
L 4672 2988 
L 4191 2988 
L 4191 3322 
L 5394 3322 
L 5394 2988 
L 5025 2988 
L 4038 0 
L 3559 0 
L 2741 2484 
L 1919 0 
L 1459 0 
L 475 2988 
L 103 2988 
L 103 3322 
L 1606 3322 
L 1606 2988 
L 1069 2988 
L 1813 728 
L 2669 3322 
L 3072 3322 
z
" transform="scale(0.015625)"/>
       <path id="DejaVuSerif-70" d="M 1313 1825 
L 1313 1497 
Q 1313 897 1542 583 
Q 1772 269 2209 269 
Q 2650 269 2876 622 
Q 3103 975 3103 1663 
Q 3103 2353 2876 2703 
Q 2650 3053 2209 3053 
Q 1772 3053 1542 2737 
Q 1313 2422 1313 1825 
z
M 738 2988 
L 184 2988 
L 184 3322 
L 1313 3322 
L 1313 2803 
Q 1481 3116 1742 3264 
Q 2003 3413 2388 3413 
Q 3000 3413 3387 2928 
Q 3775 2444 3775 1663 
Q 3775 881 3387 395 
Q 3000 -91 2388 -91 
Q 2003 -91 1742 57 
Q 1481 206 1313 519 
L 1313 -997 
L 1856 -997 
L 1856 -1331 
L 184 -1331 
L 184 -997 
L 738 -997 
L 738 2988 
z
" transform="scale(0.015625)"/>
       <path id="DejaVuSerif-79" d="M 1381 -609 
L 1600 -56 
L 359 2988 
L -19 2988 
L -19 3322 
L 1509 3322 
L 1509 2988 
L 978 2988 
L 1913 703 
L 2847 2988 
L 2350 2988 
L 2350 3322 
L 3597 3322 
L 3597 2988 
L 3225 2988 
L 1703 -750 
Q 1547 -1138 1356 -1280 
Q 1166 -1422 819 -1422 
Q 672 -1422 517 -1397 
Q 363 -1372 206 -1325 
L 206 -691 
L 500 -691 
Q 519 -903 608 -995 
Q 697 -1088 884 -1088 
Q 1056 -1088 1161 -992 
Q 1266 -897 1381 -609 
z
" transform="scale(0.015625)"/>
      </defs>
      <use xlink:href="#DejaVuSerif-4c"/>
      <use xlink:href="#DejaVuSerif-6f" transform="translate(66.40625 0)"/>
      <use xlink:href="#DejaVuSerif-77" transform="translate(126.611328 0)"/>
      <use xlink:href="#DejaVuSerif-20" transform="translate(212.207031 0)"/>
      <use xlink:href="#DejaVuSerif-63" transform="translate(243.994141 0)"/>
      <use xlink:href="#DejaVuSerif-6f" transform="translate(300 0)"/>
      <use xlink:href="#DejaVuSerif-75" transform="translate(360.205078 0)"/>
      <use xlink:href="#DejaVuSerif-6e" transform="translate(424.609375 0)"/>
      <use xlink:href="#DejaVuSerif-74" transform="translate(489.013672 0)"/>
      <use xlink:href="#DejaVuSerif-65" transform="translate(529.199219 0)"/>
      <use xlink:href="#DejaVuSerif-72" transform="translate(588.378906 0)"/>
      <use xlink:href="#DejaVuSerif-70" transform="translate(636.181641 0)"/>
      <use xlink:href="#DejaVuSerif-61" transform="translate(700.195312 0)"/>
      <use xlink:href="#DejaVuSerif-72" transform="translate(759.814453 0)"/>
      <use xlink:href="#DejaVuSerif-74" transform="translate(807.617188 0)"/>
      <use xlink:href="#DejaVuSerif-79" transform="translate(847.802734 0)"/>
      <use xlink:href="#DejaVuSerif-20" transform="translate(904.296875 0)"/>
      <use xlink:href="#DejaVuSerif-65" transform="translate(936.083984 0)"/>
      <use xlink:href="#DejaVuSerif-6e" transform="translate(995.263672 0)"/>
      <use xlink:href="#DejaVuSerif-74" transform="translate(1059.667969 0)"/>
      <use xlink:href="#DejaVuSerif-72" transform="translate(1099.853516 0)"/>
      <use xlink:href="#DejaVuSerif-6f" transform="translate(1147.65625 0)"/>
      <use xlink:href="#DejaVuSerif-70" transform="translate(1207.861328 0)"/>
      <use xlink:href="#DejaVuSerif-79" transform="translate(1271.875 0)"/>
     </g>
    </g>
    <g id="patch_10">
     <path d="M 3.6 75.379866 
L 87.297 75.379866 
L 87.297 63.577634 
L 3.6 63.577634 
z
" style="fill: #ffffff; stroke: #cccccc; stroke-width: 0.5; stroke-linejoin: miter"/>
    </g>
    <g id="text_9">
     <!-- Strategic Default -->
     <g transform="translate(11.9697 71.629375) scale(0.08 -0.08)">
      <defs>
       <path id="DejaVuSerif-53" d="M 594 225 
L 594 1288 
L 953 1284 
Q 969 753 1261 498 
Q 1553 244 2150 244 
Q 2706 244 2998 464 
Q 3291 684 3291 1106 
Q 3291 1444 3114 1625 
Q 2938 1806 2369 1978 
L 1753 2163 
Q 1084 2366 811 2669 
Q 538 2972 538 3500 
Q 538 4094 959 4422 
Q 1381 4750 2144 4750 
Q 2469 4750 2856 4679 
Q 3244 4609 3681 4475 
L 3681 3481 
L 3328 3481 
Q 3275 3975 2998 4195 
Q 2722 4416 2156 4416 
Q 1663 4416 1405 4214 
Q 1147 4013 1147 3628 
Q 1147 3294 1340 3103 
Q 1534 2913 2163 2725 
L 2741 2553 
Q 3375 2363 3645 2067 
Q 3916 1772 3916 1275 
Q 3916 597 3481 253 
Q 3047 -91 2188 -91 
Q 1803 -91 1404 -12 
Q 1006 66 594 225 
z
" transform="scale(0.015625)"/>
       <path id="DejaVuSerif-44" d="M 1581 331 
L 2163 331 
Q 3072 331 3558 850 
Q 4044 1369 4044 2338 
Q 4044 3306 3559 3818 
Q 3075 4331 2163 4331 
L 1581 4331 
L 1581 331 
z
M 353 0 
L 353 331 
L 947 331 
L 947 4331 
L 353 4331 
L 353 4666 
L 2209 4666 
Q 3416 4666 4089 4050 
Q 4763 3434 4763 2338 
Q 4763 1238 4088 619 
Q 3413 0 2209 0 
L 353 0 
z
" transform="scale(0.015625)"/>
      </defs>
      <use xlink:href="#DejaVuSerif-53"/>
      <use xlink:href="#DejaVuSerif-74" transform="translate(68.505859 0)"/>
      <use xlink:href="#DejaVuSerif-72" transform="translate(108.691406 0)"/>
      <use xlink:href="#DejaVuSerif-61" transform="translate(156.494141 0)"/>
      <use xlink:href="#DejaVuSerif-74" transform="translate(216.113281 0)"/>
      <use xlink:href="#DejaVuSerif-65" transform="translate(256.298828 0)"/>
      <use xlink:href="#DejaVuSerif-67" transform="translate(315.478516 0)"/>
      <use xlink:href="#DejaVuSerif-69" transform="translate(379.492188 0)"/>
      <use xlink:href="#DejaVuSerif-63" transform="translate(411.474609 0)"/>
      <use xlink:href="#DejaVuSerif-20" transform="translate(467.480469 0)"/>
      <use xlink:href="#DejaVuSerif-44" transform="translate(499.267578 0)"/>
      <use xlink:href="#DejaVuSerif-65" transform="translate(579.443359 0)"/>
      <use xlink:href="#DejaVuSerif-66" transform="translate(638.623047 0)"/>
      <use xlink:href="#DejaVuSerif-61" transform="translate(675.634766 0)"/>
      <use xlink:href="#DejaVuSerif-75" transform="translate(735.253906 0)"/>
      <use xlink:href="#DejaVuSerif-6c" transform="translate(799.658203 0)"/>
      <use xlink:href="#DejaVuSerif-74" transform="translate(831.640625 0)"/>
     </g>
    </g>
    <g id="patch_11">
     <path d="M 87.297 75.379866 
L 272.868 75.379866 
L 272.868 63.577634 
L 87.297 63.577634 
z
" style="fill: #ffffff; stroke: #cccccc; stroke-width: 0.5; stroke-linejoin: miter"/>
    </g>
    <g id="text_10">
     <!-- Build history, then selectively default -->
     <g transform="translate(105.8541 71.629375) scale(0.08 -0.08)">
      <defs>
       <path id="DejaVuSerif-42" d="M 1581 331 
L 2516 331 
Q 3078 331 3337 575 
Q 3597 819 3597 1350 
Q 3597 1878 3339 2120 
Q 3081 2363 2516 2363 
L 1581 2363 
L 1581 331 
z
M 1581 2694 
L 2375 2694 
Q 2888 2694 3123 2891 
Q 3359 3088 3359 3513 
Q 3359 3941 3123 4136 
Q 2888 4331 2375 4331 
L 1581 4331 
L 1581 2694 
z
M 353 0 
L 353 331 
L 947 331 
L 947 4331 
L 353 4331 
L 353 4666 
L 2656 4666 
Q 3363 4666 3720 4377 
Q 4078 4088 4078 3513 
Q 4078 3097 3829 2850 
Q 3581 2603 3103 2547 
Q 3697 2472 4005 2167 
Q 4313 1863 4313 1350 
Q 4313 656 3875 328 
Q 3438 0 2509 0 
L 353 0 
z
" transform="scale(0.015625)"/>
       <path id="DejaVuSerif-2c" d="M 231 -622 
Q 525 -406 662 -114 
Q 800 178 800 594 
L 800 709 
L 1416 709 
Q 1391 175 1164 -208 
Q 938 -591 481 -872 
L 231 -622 
z
" transform="scale(0.015625)"/>
      </defs>
      <use xlink:href="#DejaVuSerif-42"/>
      <use xlink:href="#DejaVuSerif-75" transform="translate(73.486328 0)"/>
      <use xlink:href="#DejaVuSerif-69" transform="translate(137.890625 0)"/>
      <use xlink:href="#DejaVuSerif-6c" transform="translate(169.873047 0)"/>
      <use xlink:href="#DejaVuSerif-64" transform="translate(201.855469 0)"/>
      <use xlink:href="#DejaVuSerif-20" transform="translate(265.869141 0)"/>
      <use xlink:href="#DejaVuSerif-68" transform="translate(297.65625 0)"/>
      <use xlink:href="#DejaVuSerif-69" transform="translate(362.060547 0)"/>
      <use xlink:href="#DejaVuSerif-73" transform="translate(394.042969 0)"/>
      <use xlink:href="#DejaVuSerif-74" transform="translate(445.361328 0)"/>
      <use xlink:href="#DejaVuSerif-6f" transform="translate(485.546875 0)"/>
      <use xlink:href="#DejaVuSerif-72" transform="translate(545.751953 0)"/>
      <use xlink:href="#DejaVuSerif-79" transform="translate(593.554688 0)"/>
      <use xlink:href="#DejaVuSerif-2c" transform="translate(636.798828 0)"/>
      <use xlink:href="#DejaVuSerif-20" transform="translate(668.585938 0)"/>
      <use xlink:href="#DejaVuSerif-74" transform="translate(700.373047 0)"/>
      <use xlink:href="#DejaVuSerif-68" transform="translate(740.558594 0)"/>
      <use xlink:href="#DejaVuSerif-65" transform="translate(804.962891 0)"/>
      <use xlink:href="#DejaVuSerif-6e" transform="translate(864.142578 0)"/>
      <use xlink:href="#DejaVuSerif-20" transform="translate(928.546875 0)"/>
      <use xlink:href="#DejaVuSerif-73" transform="translate(960.333984 0)"/>
      <use xlink:href="#DejaVuSerif-65" transform="translate(1011.652344 0)"/>
      <use xlink:href="#DejaVuSerif-6c" transform="translate(1070.832031 0)"/>
      <use xlink:href="#DejaVuSerif-65" transform="translate(1102.814453 0)"/>
      <use xlink:href="#DejaVuSerif-63" transform="translate(1161.994141 0)"/>
      <use xlink:href="#DejaVuSerif-74" transform="translate(1218 0)"/>
      <use xlink:href="#DejaVuSerif-69" transform="translate(1258.185547 0)"/>
      <use xlink:href="#DejaVuSerif-76" transform="translate(1290.167969 0)"/>
      <use xlink:href="#DejaVuSerif-65" transform="translate(1346.662109 0)"/>
      <use xlink:href="#DejaVuSerif-6c" transform="translate(1405.841797 0)"/>
      <use xlink:href="#DejaVuSerif-79" transform="translate(1437.824219 0)"/>
      <use xlink:href="#DejaVuSerif-20" transform="translate(1494.318359 0)"/>
      <use xlink:href="#DejaVuSerif-64" transform="translate(1526.105469 0)"/>
      <use xlink:href="#DejaVuSerif-65" transform="translate(1590.119141 0)"/>
      <use xlink:href="#DejaVuSerif-66" transform="translate(1649.298828 0)"/>
      <use xlink:href="#DejaVuSerif-61" transform="translate(1686.310547 0)"/>
      <use xlink:href="#DejaVuSerif-75" transform="translate(1745.929688 0)"/>
      <use xlink:href="#DejaVuSerif-6c" transform="translate(1810.333984 0)"/>
      <use xlink:href="#DejaVuSerif-74" transform="translate(1842.316406 0)"/>
     </g>
    </g>
    <g id="patch_12">
     <path d="M 272.868 75.379866 
L 433.407 75.379866 
L 433.407 63.577634 
L 272.868 63.577634 
z
" style="fill: #ffffff; stroke: #cccccc; stroke-width: 0.5; stroke-linejoin: miter"/>
    </g>
    <g id="text_11">
     <!-- Payment extraction -->
     <g transform="translate(288.9219 71.5725) scale(0.08 -0.08)">
      <defs>
       <path id="DejaVuSerif-50" d="M 1581 2375 
L 2406 2375 
Q 2872 2375 3115 2626 
Q 3359 2878 3359 3353 
Q 3359 3831 3115 4081 
Q 2872 4331 2406 4331 
L 1581 4331 
L 1581 2375 
z
M 353 0 
L 353 331 
L 947 331 
L 947 4331 
L 353 4331 
L 353 4666 
L 2559 4666 
Q 3259 4666 3668 4311 
Q 4078 3956 4078 3353 
Q 4078 2753 3668 2397 
Q 3259 2041 2559 2041 
L 1581 2041 
L 1581 331 
L 2303 331 
L 2303 0 
L 353 0 
z
" transform="scale(0.015625)"/>
       <path id="DejaVuSerif-78" d="M 1863 2028 
L 2559 2988 
L 2113 2988 
L 2113 3322 
L 3391 3322 
L 3391 2988 
L 2950 2988 
L 2059 1759 
L 3097 331 
L 3531 331 
L 3531 0 
L 1997 0 
L 1997 331 
L 2419 331 
L 1697 1325 
L 972 331 
L 1403 331 
L 1403 0 
L 141 0 
L 141 331 
L 581 331 
L 1497 1594 
L 488 2988 
L 78 2988 
L 78 3322 
L 1563 3322 
L 1563 2988 
L 1166 2988 
L 1863 2028 
z
" transform="scale(0.015625)"/>
      </defs>
      <use xlink:href="#DejaVuSerif-50"/>
      <use xlink:href="#DejaVuSerif-61" transform="translate(62.785156 0)"/>
      <use xlink:href="#DejaVuSerif-79" transform="translate(122.404297 0)"/>
      <use xlink:href="#DejaVuSerif-6d" transform="translate(178.898438 0)"/>
      <use xlink:href="#DejaVuSerif-65" transform="translate(273.722656 0)"/>
      <use xlink:href="#DejaVuSerif-6e" transform="translate(332.902344 0)"/>
      <use xlink:href="#DejaVuSerif-74" transform="translate(397.306641 0)"/>
      <use xlink:href="#DejaVuSerif-20" transform="translate(437.492188 0)"/>
      <use xlink:href="#DejaVuSerif-65" transform="translate(469.279297 0)"/>
      <use xlink:href="#DejaVuSerif-78" transform="translate(528.458984 0)"/>
      <use xlink:href="#DejaVuSerif-74" transform="translate(584.855469 0)"/>
      <use xlink:href="#DejaVuSerif-72" transform="translate(625.041016 0)"/>
      <use xlink:href="#DejaVuSerif-61" transform="translate(672.84375 0)"/>
      <use xlink:href="#DejaVuSerif-63" transform="translate(732.462891 0)"/>
      <use xlink:href="#DejaVuSerif-74" transform="translate(788.46875 0)"/>
      <use xlink:href="#DejaVuSerif-69" transform="translate(828.654297 0)"/>
      <use xlink:href="#DejaVuSerif-6f" transform="translate(860.636719 0)"/>
      <use xlink:href="#DejaVuSerif-6e" transform="translate(920.841797 0)"/>
     </g>
    </g>
    <g id="patch_13">
     <path d="M 433.407 75.379866 
L 606.528 75.379866 
L 606.528 63.577634 
L 433.407 63.577634 
z
" style="fill: #ffffff; stroke: #cccccc; stroke-width: 0.5; stroke-linejoin: miter"/>
    </g>
    <g id="text_12">
     <!-- High repayment then sudden drops -->
     <g transform="translate(450.7191 71.629375) scale(0.08 -0.08)">
      <defs>
       <path id="DejaVuSerif-48" d="M 353 0 
L 353 331 
L 947 331 
L 947 4331 
L 353 4331 
L 353 4666 
L 2175 4666 
L 2175 4331 
L 1581 4331 
L 1581 2719 
L 4000 2719 
L 4000 4331 
L 3406 4331 
L 3406 4666 
L 5228 4666 
L 5228 4331 
L 4634 4331 
L 4634 331 
L 5228 331 
L 5228 0 
L 3406 0 
L 3406 331 
L 4000 331 
L 4000 2338 
L 1581 2338 
L 1581 331 
L 2175 331 
L 2175 0 
L 353 0 
z
" transform="scale(0.015625)"/>
      </defs>
      <use xlink:href="#DejaVuSerif-48"/>
      <use xlink:href="#DejaVuSerif-69" transform="translate(87.207031 0)"/>
      <use xlink:href="#DejaVuSerif-67" transform="translate(119.189453 0)"/>
      <use xlink:href="#DejaVuSerif-68" transform="translate(183.203125 0)"/>
      <use xlink:href="#DejaVuSerif-20" transform="translate(247.607422 0)"/>
      <use xlink:href="#DejaVuSerif-72" transform="translate(279.394531 0)"/>
      <use xlink:href="#DejaVuSerif-65" transform="translate(327.197266 0)"/>
      <use xlink:href="#DejaVuSerif-70" transform="translate(386.376953 0)"/>
      <use xlink:href="#DejaVuSerif-61" transform="translate(450.390625 0)"/>
      <use xlink:href="#DejaVuSerif-79" transform="translate(510.009766 0)"/>
      <use xlink:href="#DejaVuSerif-6d" transform="translate(566.503906 0)"/>
      <use xlink:href="#DejaVuSerif-65" transform="translate(661.328125 0)"/>
      <use xlink:href="#DejaVuSerif-6e" transform="translate(720.507812 0)"/>
      <use xlink:href="#DejaVuSerif-74" transform="translate(784.912109 0)"/>
      <use xlink:href="#DejaVuSerif-20" transform="translate(825.097656 0)"/>
      <use xlink:href="#DejaVuSerif-74" transform="translate(856.884766 0)"/>
      <use xlink:href="#DejaVuSerif-68" transform="translate(897.070312 0)"/>
      <use xlink:href="#DejaVuSerif-65" transform="translate(961.474609 0)"/>
      <use xlink:href="#DejaVuSerif-6e" transform="translate(1020.654297 0)"/>
      <use xlink:href="#DejaVuSerif-20" transform="translate(1085.058594 0)"/>
      <use xlink:href="#DejaVuSerif-73" transform="translate(1116.845703 0)"/>
      <use xlink:href="#DejaVuSerif-75" transform="translate(1168.164062 0)"/>
      <use xlink:href="#DejaVuSerif-64" transform="translate(1232.568359 0)"/>
      <use xlink:href="#DejaVuSerif-64" transform="translate(1296.582031 0)"/>
      <use xlink:href="#DejaVuSerif-65" transform="translate(1360.595703 0)"/>
      <use xlink:href="#DejaVuSerif-6e" transform="translate(1419.775391 0)"/>
      <use xlink:href="#DejaVuSerif-20" transform="translate(1484.179688 0)"/>
      <use xlink:href="#DejaVuSerif-64" transform="translate(1515.966797 0)"/>
      <use xlink:href="#DejaVuSerif-72" transform="translate(1579.980469 0)"/>
      <use xlink:href="#DejaVuSerif-6f" transform="translate(1627.783203 0)"/>
      <use xlink:href="#DejaVuSerif-70" transform="translate(1687.988281 0)"/>
      <use xlink:href="#DejaVuSerif-73" transform="translate(1752.001953 0)"/>
     </g>
    </g>
    <g id="patch_14">
     <path d="M 3.6 87.182099 
L 87.297 87.182099 
L 87.297 75.379866 
L 3.6 75.379866 
z
" style="fill: #ffffff; stroke: #cccccc; stroke-width: 0.5; stroke-linejoin: miter"/>
    </g>
    <g id="text_13">
     <!-- Sybil Cluster -->
     <g transform="translate(11.9697 83.431608) scale(0.08 -0.08)">
      <defs>
       <path id="DejaVuSerif-62" d="M 738 331 
L 738 4531 
L 184 4531 
L 184 4863 
L 1313 4863 
L 1313 2803 
Q 1481 3116 1742 3264 
Q 2003 3413 2388 3413 
Q 3000 3413 3387 2928 
Q 3775 2444 3775 1663 
Q 3775 881 3387 395 
Q 3000 -91 2388 -91 
Q 2003 -91 1742 57 
Q 1481 206 1313 519 
L 1313 0 
L 184 0 
L 184 331 
L 738 331 
z
M 1313 1497 
Q 1313 897 1542 583 
Q 1772 269 2209 269 
Q 2650 269 2876 622 
Q 3103 975 3103 1663 
Q 3103 2353 2876 2703 
Q 2650 3053 2209 3053 
Q 1772 3053 1542 2737 
Q 1313 2422 1313 1825 
L 1313 1497 
z
" transform="scale(0.015625)"/>
      </defs>
      <use xlink:href="#DejaVuSerif-53"/>
      <use xlink:href="#DejaVuSerif-79" transform="translate(68.505859 0)"/>
      <use xlink:href="#DejaVuSerif-62" transform="translate(125 0)"/>
      <use xlink:href="#DejaVuSerif-69" transform="translate(189.013672 0)"/>
      <use xlink:href="#DejaVuSerif-6c" transform="translate(220.996094 0)"/>
      <use xlink:href="#DejaVuSerif-20" transform="translate(252.978516 0)"/>
      <use xlink:href="#DejaVuSerif-43" transform="translate(284.765625 0)"/>
      <use xlink:href="#DejaVuSerif-6c" transform="translate(361.279297 0)"/>
      <use xlink:href="#DejaVuSerif-75" transform="translate(393.261719 0)"/>
      <use xlink:href="#DejaVuSerif-73" transform="translate(457.666016 0)"/>
      <use xlink:href="#DejaVuSerif-74" transform="translate(508.984375 0)"/>
      <use xlink:href="#DejaVuSerif-65" transform="translate(549.169922 0)"/>
      <use xlink:href="#DejaVuSerif-72" transform="translate(608.349609 0)"/>
     </g>
    </g>
    <g id="patch_15">
     <path d="M 87.297 87.182099 
L 272.868 87.182099 
L 272.868 75.379866 
L 87.297 75.379866 
z
" style="fill: #ffffff; stroke: #cccccc; stroke-width: 0.5; stroke-linejoin: miter"/>
    </g>
    <g id="text_14">
     <!-- Multiple fake identities -->
     <g transform="translate(105.8541 83.488483) scale(0.08 -0.08)">
      <defs>
       <path id="DejaVuSerif-6b" d="M 1831 0 
L 219 0 
L 219 331 
L 738 331 
L 738 4531 
L 184 4531 
L 184 4863 
L 1313 4863 
L 1313 1697 
L 2713 2988 
L 2234 2988 
L 2234 3322 
L 3738 3322 
L 3738 2988 
L 3169 2988 
L 2181 2075 
L 3444 331 
L 3922 331 
L 3922 0 
L 2284 0 
L 2284 331 
L 2759 331 
L 1766 1697 
L 1313 1275 
L 1313 331 
L 1831 331 
L 1831 0 
z
" transform="scale(0.015625)"/>
      </defs>
      <use xlink:href="#DejaVuSerif-4d"/>
      <use xlink:href="#DejaVuSerif-75" transform="translate(102.392578 0)"/>
      <use xlink:href="#DejaVuSerif-6c" transform="translate(166.796875 0)"/>
      <use xlink:href="#DejaVuSerif-74" transform="translate(198.779297 0)"/>
      <use xlink:href="#DejaVuSerif-69" transform="translate(238.964844 0)"/>
      <use xlink:href="#DejaVuSerif-70" transform="translate(270.947266 0)"/>
      <use xlink:href="#DejaVuSerif-6c" transform="translate(334.960938 0)"/>
      <use xlink:href="#DejaVuSerif-65" transform="translate(366.943359 0)"/>
      <use xlink:href="#DejaVuSerif-20" transform="translate(426.123047 0)"/>
      <use xlink:href="#DejaVuSerif-66" transform="translate(457.910156 0)"/>
      <use xlink:href="#DejaVuSerif-61" transform="translate(494.921875 0)"/>
      <use xlink:href="#DejaVuSerif-6b" transform="translate(554.541016 0)"/>
      <use xlink:href="#DejaVuSerif-65" transform="translate(615.136719 0)"/>
      <use xlink:href="#DejaVuSerif-20" transform="translate(674.316406 0)"/>
      <use xlink:href="#DejaVuSerif-69" transform="translate(706.103516 0)"/>
      <use xlink:href="#DejaVuSerif-64" transform="translate(738.085938 0)"/>
      <use xlink:href="#DejaVuSerif-65" transform="translate(802.099609 0)"/>
      <use xlink:href="#DejaVuSerif-6e" transform="translate(861.279297 0)"/>
      <use xlink:href="#DejaVuSerif-74" transform="translate(925.683594 0)"/>
      <use xlink:href="#DejaVuSerif-69" transform="translate(965.869141 0)"/>
      <use xlink:href="#DejaVuSerif-74" transform="translate(997.851562 0)"/>
      <use xlink:href="#DejaVuSerif-69" transform="translate(1038.037109 0)"/>
      <use xlink:href="#DejaVuSerif-65" transform="translate(1070.019531 0)"/>
      <use xlink:href="#DejaVuSerif-73" transform="translate(1129.199219 0)"/>
     </g>
    </g>
    <g id="patch_16">
     <path d="M 272.868 87.182099 
L 433.407 87.182099 
L 433.407 75.379866 
L 272.868 75.379866 
z
" style="fill: #ffffff; stroke: #cccccc; stroke-width: 0.5; stroke-linejoin: miter"/>
    </g>
    <g id="text_15">
     <!-- Routing share via volume -->
     <g transform="translate(288.9219 83.431608) scale(0.08 -0.08)">
      <use xlink:href="#DejaVuSerif-52"/>
      <use xlink:href="#DejaVuSerif-6f" transform="translate(75.292969 0)"/>
      <use xlink:href="#DejaVuSerif-75" transform="translate(135.498047 0)"/>
      <use xlink:href="#DejaVuSerif-74" transform="translate(199.902344 0)"/>
      <use xlink:href="#DejaVuSerif-69" transform="translate(240.087891 0)"/>
      <use xlink:href="#DejaVuSerif-6e" transform="translate(272.070312 0)"/>
      <use xlink:href="#DejaVuSerif-67" transform="translate(336.474609 0)"/>
      <use xlink:href="#DejaVuSerif-20" transform="translate(400.488281 0)"/>
      <use xlink:href="#DejaVuSerif-73" transform="translate(432.275391 0)"/>
      <use xlink:href="#DejaVuSerif-68" transform="translate(483.59375 0)"/>
      <use xlink:href="#DejaVuSerif-61" transform="translate(547.998047 0)"/>
      <use xlink:href="#DejaVuSerif-72" transform="translate(607.617188 0)"/>
      <use xlink:href="#DejaVuSerif-65" transform="translate(655.419922 0)"/>
      <use xlink:href="#DejaVuSerif-20" transform="translate(714.599609 0)"/>
      <use xlink:href="#DejaVuSerif-76" transform="translate(746.386719 0)"/>
      <use xlink:href="#DejaVuSerif-69" transform="translate(802.880859 0)"/>
      <use xlink:href="#DejaVuSerif-61" transform="translate(834.863281 0)"/>
      <use xlink:href="#DejaVuSerif-20" transform="translate(894.482422 0)"/>
      <use xlink:href="#DejaVuSerif-76" transform="translate(926.269531 0)"/>
      <use xlink:href="#DejaVuSerif-6f" transform="translate(982.763672 0)"/>
      <use xlink:href="#DejaVuSerif-6c" transform="translate(1042.96875 0)"/>
      <use xlink:href="#DejaVuSerif-75" transform="translate(1074.951172 0)"/>
      <use xlink:href="#DejaVuSerif-6d" transform="translate(1139.355469 0)"/>
      <use xlink:href="#DejaVuSerif-65" transform="translate(1234.179688 0)"/>
     </g>
    </g>
    <g id="patch_17">
     <path d="M 433.407 87.182099 
L 606.528 87.182099 
L 606.528 75.379866 
L 433.407 75.379866 
z
" style="fill: #ffffff; stroke: #cccccc; stroke-width: 0.5; stroke-linejoin: miter"/>
    </g>
    <g id="text_16">
     <!-- Concentrated new-agent routing -->
     <g transform="translate(450.7191 83.431608) scale(0.08 -0.08)">
      <defs>
       <path id="DejaVuSerif-2d" d="M 281 1959 
L 1881 1959 
L 1881 1472 
L 281 1472 
L 281 1959 
z
" transform="scale(0.015625)"/>
      </defs>
      <use xlink:href="#DejaVuSerif-43"/>
      <use xlink:href="#DejaVuSerif-6f" transform="translate(76.513672 0)"/>
      <use xlink:href="#DejaVuSerif-6e" transform="translate(136.71875 0)"/>
      <use xlink:href="#DejaVuSerif-63" transform="translate(201.123047 0)"/>
      <use xlink:href="#DejaVuSerif-65" transform="translate(257.128906 0)"/>
      <use xlink:href="#DejaVuSerif-6e" transform="translate(316.308594 0)"/>
      <use xlink:href="#DejaVuSerif-74" transform="translate(380.712891 0)"/>
      <use xlink:href="#DejaVuSerif-72" transform="translate(420.898438 0)"/>
      <use xlink:href="#DejaVuSerif-61" transform="translate(468.701172 0)"/>
      <use xlink:href="#DejaVuSerif-74" transform="translate(528.320312 0)"/>
      <use xlink:href="#DejaVuSerif-65" transform="translate(568.505859 0)"/>
      <use xlink:href="#DejaVuSerif-64" transform="translate(627.685547 0)"/>
      <use xlink:href="#DejaVuSerif-20" transform="translate(691.699219 0)"/>
      <use xlink:href="#DejaVuSerif-6e" transform="translate(723.486328 0)"/>
      <use xlink:href="#DejaVuSerif-65" transform="translate(787.890625 0)"/>
      <use xlink:href="#DejaVuSerif-77" transform="translate(847.070312 0)"/>
      <use xlink:href="#DejaVuSerif-2d" transform="translate(932.666016 0)"/>
      <use xlink:href="#DejaVuSerif-61" transform="translate(966.455078 0)"/>
      <use xlink:href="#DejaVuSerif-67" transform="translate(1026.074219 0)"/>
      <use xlink:href="#DejaVuSerif-65" transform="translate(1090.087891 0)"/>
      <use xlink:href="#DejaVuSerif-6e" transform="translate(1149.267578 0)"/>
      <use xlink:href="#DejaVuSerif-74" transform="translate(1213.671875 0)"/>
      <use xlink:href="#DejaVuSerif-20" transform="translate(1253.857422 0)"/>
      <use xlink:href="#DejaVuSerif-72" transform="translate(1285.644531 0)"/>
      <use xlink:href="#DejaVuSerif-6f" transform="translate(1333.447266 0)"/>
      <use xlink:href="#DejaVuSerif-75" transform="translate(1393.652344 0)"/>
      <use xlink:href="#DejaVuSerif-74" transform="translate(1458.056641 0)"/>
      <use xlink:href="#DejaVuSerif-69" transform="translate(1498.242188 0)"/>
      <use xlink:href="#DejaVuSerif-6e" transform="translate(1530.224609 0)"/>
      <use xlink:href="#DejaVuSerif-67" transform="translate(1594.628906 0)"/>
     </g>
    </g>
    <g id="patch_18">
     <path d="M 3.6 98.984332 
L 87.297 98.984332 
L 87.297 87.182099 
L 3.6 87.182099 
z
" style="fill: #ffffff; stroke: #cccccc; stroke-width: 0.5; stroke-linejoin: miter"/>
    </g>
    <g id="text_17">
     <!-- Whitewashing -->
     <g transform="translate(11.9697 95.233841) scale(0.08 -0.08)">
      <defs>
       <path id="DejaVuSerif-57" d="M 4878 0 
L 4366 0 
L 3297 3794 
L 2228 0 
L 1716 0 
L 494 4331 
L 31 4331 
L 31 4666 
L 1734 4666 
L 1734 4331 
L 1153 4331 
L 2125 884 
L 3188 4666 
L 3694 4666 
L 4775 844 
L 5753 4331 
L 5216 4331 
L 5216 4666 
L 6559 4666 
L 6559 4331 
L 6100 4331 
L 4878 0 
z
" transform="scale(0.015625)"/>
      </defs>
      <use xlink:href="#DejaVuSerif-57"/>
      <use xlink:href="#DejaVuSerif-68" transform="translate(102.783203 0)"/>
      <use xlink:href="#DejaVuSerif-69" transform="translate(167.1875 0)"/>
      <use xlink:href="#DejaVuSerif-74" transform="translate(199.169922 0)"/>
      <use xlink:href="#DejaVuSerif-65" transform="translate(239.355469 0)"/>
      <use xlink:href="#DejaVuSerif-77" transform="translate(298.535156 0)"/>
      <use xlink:href="#DejaVuSerif-61" transform="translate(384.130859 0)"/>
      <use xlink:href="#DejaVuSerif-73" transform="translate(443.75 0)"/>
      <use xlink:href="#DejaVuSerif-68" transform="translate(495.068359 0)"/>
      <use xlink:href="#DejaVuSerif-69" transform="translate(559.472656 0)"/>
      <use xlink:href="#DejaVuSerif-6e" transform="translate(591.455078 0)"/>
      <use xlink:href="#DejaVuSerif-67" transform="translate(655.859375 0)"/>
     </g>
    </g>
    <g id="patch_19">
     <path d="M 87.297 98.984332 
L 272.868 98.984332 
L 272.868 87.182099 
L 87.297 87.182099 
z
" style="fill: #ffffff; stroke: #cccccc; stroke-width: 0.5; stroke-linejoin: miter"/>
    </g>
    <g id="text_18">
     <!-- Reset identity when penalized -->
     <g transform="translate(105.8541 95.233841) scale(0.08 -0.08)">
      <defs>
       <path id="DejaVuSerif-7a" d="M 256 0 
L 256 269 
L 2338 2988 
L 691 2988 
L 691 2413 
L 359 2413 
L 359 3322 
L 3078 3322 
L 3078 3053 
L 997 331 
L 2803 331 
L 2803 934 
L 3138 934 
L 3138 0 
L 256 0 
z
" transform="scale(0.015625)"/>
      </defs>
      <use xlink:href="#DejaVuSerif-52"/>
      <use xlink:href="#DejaVuSerif-65" transform="translate(75.292969 0)"/>
      <use xlink:href="#DejaVuSerif-73" transform="translate(134.472656 0)"/>
      <use xlink:href="#DejaVuSerif-65" transform="translate(185.791016 0)"/>
      <use xlink:href="#DejaVuSerif-74" transform="translate(244.970703 0)"/>
      <use xlink:href="#DejaVuSerif-20" transform="translate(285.15625 0)"/>
      <use xlink:href="#DejaVuSerif-69" transform="translate(316.943359 0)"/>
      <use xlink:href="#DejaVuSerif-64" transform="translate(348.925781 0)"/>
      <use xlink:href="#DejaVuSerif-65" transform="translate(412.939453 0)"/>
      <use xlink:href="#DejaVuSerif-6e" transform="translate(472.119141 0)"/>
      <use xlink:href="#DejaVuSerif-74" transform="translate(536.523438 0)"/>
      <use xlink:href="#DejaVuSerif-69" transform="translate(576.708984 0)"/>
      <use xlink:href="#DejaVuSerif-74" transform="translate(608.691406 0)"/>
      <use xlink:href="#DejaVuSerif-79" transform="translate(648.876953 0)"/>
      <use xlink:href="#DejaVuSerif-20" transform="translate(705.371094 0)"/>
      <use xlink:href="#DejaVuSerif-77" transform="translate(737.158203 0)"/>
      <use xlink:href="#DejaVuSerif-68" transform="translate(822.753906 0)"/>
      <use xlink:href="#DejaVuSerif-65" transform="translate(887.158203 0)"/>
      <use xlink:href="#DejaVuSerif-6e" transform="translate(946.337891 0)"/>
      <use xlink:href="#DejaVuSerif-20" transform="translate(1010.742188 0)"/>
      <use xlink:href="#DejaVuSerif-70" transform="translate(1042.529297 0)"/>
      <use xlink:href="#DejaVuSerif-65" transform="translate(1106.542969 0)"/>
      <use xlink:href="#DejaVuSerif-6e" transform="translate(1165.722656 0)"/>
      <use xlink:href="#DejaVuSerif-61" transform="translate(1230.126953 0)"/>
      <use xlink:href="#DejaVuSerif-6c" transform="translate(1289.746094 0)"/>
      <use xlink:href="#DejaVuSerif-69" transform="translate(1321.728516 0)"/>
      <use xlink:href="#DejaVuSerif-7a" transform="translate(1353.710938 0)"/>
      <use xlink:href="#DejaVuSerif-65" transform="translate(1406.396484 0)"/>
      <use xlink:href="#DejaVuSerif-64" transform="translate(1465.576172 0)"/>
     </g>
    </g>
    <g id="patch_20">
     <path d="M 272.868 98.984332 
L 433.407 98.984332 
L 433.407 87.182099 
L 272.868 87.182099 
z
" style="fill: #ffffff; stroke: #cccccc; stroke-width: 0.5; stroke-linejoin: miter"/>
    </g>
    <g id="text_19">
     <!-- Escape trust penalties -->
     <g transform="translate(288.9219 95.290716) scale(0.08 -0.08)">
      <defs>
       <path id="DejaVuSerif-45" d="M 353 0 
L 353 331 
L 947 331 
L 947 4331 
L 353 4331 
L 353 4666 
L 4109 4666 
L 4109 3628 
L 3725 3628 
L 3725 4281 
L 1581 4281 
L 1581 2719 
L 3109 2719 
L 3109 3303 
L 3494 3303 
L 3494 1753 
L 3109 1753 
L 3109 2338 
L 1581 2338 
L 1581 384 
L 3775 384 
L 3775 1038 
L 4159 1038 
L 4159 0 
L 353 0 
z
" transform="scale(0.015625)"/>
      </defs>
      <use xlink:href="#DejaVuSerif-45"/>
      <use xlink:href="#DejaVuSerif-73" transform="translate(72.998047 0)"/>
      <use xlink:href="#DejaVuSerif-63" transform="translate(124.316406 0)"/>
      <use xlink:href="#DejaVuSerif-61" transform="translate(180.322266 0)"/>
      <use xlink:href="#DejaVuSerif-70" transform="translate(239.941406 0)"/>
      <use xlink:href="#DejaVuSerif-65" transform="translate(303.955078 0)"/>
      <use xlink:href="#DejaVuSerif-20" transform="translate(363.134766 0)"/>
      <use xlink:href="#DejaVuSerif-74" transform="translate(394.921875 0)"/>
      <use xlink:href="#DejaVuSerif-72" transform="translate(435.107422 0)"/>
      <use xlink:href="#DejaVuSerif-75" transform="translate(482.910156 0)"/>
      <use xlink:href="#DejaVuSerif-73" transform="translate(547.314453 0)"/>
      <use xlink:href="#DejaVuSerif-74" transform="translate(598.632812 0)"/>
      <use xlink:href="#DejaVuSerif-20" transform="translate(638.818359 0)"/>
      <use xlink:href="#DejaVuSerif-70" transform="translate(670.605469 0)"/>
      <use xlink:href="#DejaVuSerif-65" transform="translate(734.619141 0)"/>
      <use xlink:href="#DejaVuSerif-6e" transform="translate(793.798828 0)"/>
      <use xlink:href="#DejaVuSerif-61" transform="translate(858.203125 0)"/>
      <use xlink:href="#DejaVuSerif-6c" transform="translate(917.822266 0)"/>
      <use xlink:href="#DejaVuSerif-74" transform="translate(949.804688 0)"/>
      <use xlink:href="#DejaVuSerif-69" transform="translate(989.990234 0)"/>
      <use xlink:href="#DejaVuSerif-65" transform="translate(1021.972656 0)"/>
      <use xlink:href="#DejaVuSerif-73" transform="translate(1081.152344 0)"/>
     </g>
    </g>
    <g id="patch_21">
     <path d="M 433.407 98.984332 
L 606.528 98.984332 
L 606.528 87.182099 
L 433.407 87.182099 
z
" style="fill: #ffffff; stroke: #cccccc; stroke-width: 0.5; stroke-linejoin: miter"/>
    </g>
    <g id="text_20">
     <!-- Recurring new-agent anomalies -->
     <g transform="translate(450.7191 95.233841) scale(0.08 -0.08)">
      <use xlink:href="#DejaVuSerif-52"/>
      <use xlink:href="#DejaVuSerif-65" transform="translate(75.292969 0)"/>
      <use xlink:href="#DejaVuSerif-63" transform="translate(134.472656 0)"/>
      <use xlink:href="#DejaVuSerif-75" transform="translate(190.478516 0)"/>
      <use xlink:href="#DejaVuSerif-72" transform="translate(254.882812 0)"/>
      <use xlink:href="#DejaVuSerif-72" transform="translate(302.685547 0)"/>
      <use xlink:href="#DejaVuSerif-69" transform="translate(350.488281 0)"/>
      <use xlink:href="#DejaVuSerif-6e" transform="translate(382.470703 0)"/>
      <use xlink:href="#DejaVuSerif-67" transform="translate(446.875 0)"/>
      <use xlink:href="#DejaVuSerif-20" transform="translate(510.888672 0)"/>
      <use xlink:href="#DejaVuSerif-6e" transform="translate(542.675781 0)"/>
      <use xlink:href="#DejaVuSerif-65" transform="translate(607.080078 0)"/>
      <use xlink:href="#DejaVuSerif-77" transform="translate(666.259766 0)"/>
      <use xlink:href="#DejaVuSerif-2d" transform="translate(751.855469 0)"/>
      <use xlink:href="#DejaVuSerif-61" transform="translate(785.644531 0)"/>
      <use xlink:href="#DejaVuSerif-67" transform="translate(845.263672 0)"/>
      <use xlink:href="#DejaVuSerif-65" transform="translate(909.277344 0)"/>
      <use xlink:href="#DejaVuSerif-6e" transform="translate(968.457031 0)"/>
      <use xlink:href="#DejaVuSerif-74" transform="translate(1032.861328 0)"/>
      <use xlink:href="#DejaVuSerif-20" transform="translate(1073.046875 0)"/>
      <use xlink:href="#DejaVuSerif-61" transform="translate(1104.833984 0)"/>
      <use xlink:href="#DejaVuSerif-6e" transform="translate(1164.453125 0)"/>
      <use xlink:href="#DejaVuSerif-6f" transform="translate(1228.857422 0)"/>
      <use xlink:href="#DejaVuSerif-6d" transform="translate(1289.0625 0)"/>
      <use xlink:href="#DejaVuSerif-61" transform="translate(1383.886719 0)"/>
      <use xlink:href="#DejaVuSerif-6c" transform="translate(1443.505859 0)"/>
      <use xlink:href="#DejaVuSerif-69" transform="translate(1475.488281 0)"/>
      <use xlink:href="#DejaVuSerif-65" transform="translate(1507.470703 0)"/>
      <use xlink:href="#DejaVuSerif-73" transform="translate(1566.650391 0)"/>
     </g>
    </g>
   </g>
   <g id="text_21">
    <!-- Fig. 2 — Adversarial Threat Models -->
    <g transform="translate(232.714 9.67875) scale(0.08 -0.08)">
     <defs>
      <path id="DejaVuSerif-46" d="M 353 0 
L 353 331 
L 947 331 
L 947 4331 
L 353 4331 
L 353 4666 
L 4172 4666 
L 4172 3628 
L 3788 3628 
L 3788 4281 
L 1581 4281 
L 1581 2719 
L 3175 2719 
L 3175 3303 
L 3559 3303 
L 3559 1753 
L 3175 1753 
L 3175 2338 
L 1581 2338 
L 1581 331 
L 2328 331 
L 2328 0 
L 353 0 
z
" transform="scale(0.015625)"/>
      <path id="DejaVuSerif-2e" d="M 603 325 
Q 603 500 722 622 
Q 841 744 1019 744 
Q 1191 744 1312 622 
Q 1434 500 1434 325 
Q 1434 153 1312 31 
Q 1191 -91 1019 -91 
Q 841 -91 722 29 
Q 603 150 603 325 
z
" transform="scale(0.015625)"/>
      <path id="DejaVuSerif-32" d="M 819 3553 
L 469 3553 
L 469 4384 
Q 803 4563 1142 4656 
Q 1481 4750 1806 4750 
Q 2534 4750 2956 4397 
Q 3378 4044 3378 3438 
Q 3378 2753 2422 1800 
Q 2347 1728 2309 1691 
L 1131 513 
L 3078 513 
L 3078 1088 
L 3444 1088 
L 3444 0 
L 434 0 
L 434 341 
L 1850 1753 
Q 2319 2222 2519 2614 
Q 2719 3006 2719 3438 
Q 2719 3909 2473 4175 
Q 2228 4441 1797 4441 
Q 1350 4441 1106 4219 
Q 863 3997 819 3553 
z
" transform="scale(0.015625)"/>
      <path id="DejaVuSerif-2014" d="M 281 1906 
L 6119 1906 
L 6119 1491 
L 281 1491 
L 281 1906 
z
" transform="scale(0.015625)"/>
      <path id="DejaVuSerif-41" d="M 1281 1691 
L 2994 1691 
L 2138 3909 
L 1281 1691 
z
M -38 0 
L -38 331 
L 372 331 
L 2034 4666 
L 2559 4666 
L 4225 331 
L 4684 331 
L 4684 0 
L 2988 0 
L 2988 331 
L 3506 331 
L 3116 1356 
L 1153 1356 
L 763 331 
L 1275 331 
L 1275 0 
L -38 0 
z
" transform="scale(0.015625)"/>
      <path id="DejaVuSerif-54" d="M 1222 0 
L 1222 331 
L 1819 331 
L 1819 4294 
L 447 4294 
L 447 3566 
L 63 3566 
L 63 4666 
L 4206 4666 
L 4206 3566 
L 3822 3566 
L 3822 4294 
L 2450 4294 
L 2450 331 
L 3047 331 
L 3047 0 
L 1222 0 
z
" transform="scale(0.015625)"/>
     </defs>
     <use xlink:href="#DejaVuSerif-46"/>
     <use xlink:href="#DejaVuSerif-69" transform="translate(69.384766 0)"/>
     <use xlink:href="#DejaVuSerif-67" transform="translate(101.367188 0)"/>
     <use xlink:href="#DejaVuSerif-2e" transform="translate(165.380859 0)"/>
     <use xlink:href="#DejaVuSerif-20" transform="translate(197.167969 0)"/>
     <use xlink:href="#DejaVuSerif-32" transform="translate(228.955078 0)"/>
     <use xlink:href="#DejaVuSerif-20" transform="translate(292.578125 0)"/>
     <use xlink:href="#DejaVuSerif-2014" transform="translate(324.365234 0)"/>
     <use xlink:href="#DejaVuSerif-20" transform="translate(424.365234 0)"/>
     <use xlink:href="#DejaVuSerif-41" transform="translate(456.152344 0)"/>
     <use xlink:href="#DejaVuSerif-64" transform="translate(528.369141 0)"/>
     <use xlink:href="#DejaVuSerif-76" transform="translate(592.382812 0)"/>
     <use xlink:href="#DejaVuSerif-65" transform="translate(648.876953 0)"/>
     <use xlink:href="#DejaVuSerif-72" transform="translate(708.056641 0)"/>
     <use xlink:href="#DejaVuSerif-73" transform="translate(755.859375 0)"/>
     <use xlink:href="#DejaVuSerif-61" transform="translate(807.177734 0)"/>
     <use xlink:href="#DejaVuSerif-72" transform="translate(866.796875 0)"/>
     <use xlink:href="#DejaVuSerif-69" transform="translate(914.599609 0)"/>
     <use xlink:href="#DejaVuSerif-61" transform="translate(946.582031 0)"/>
     <use xlink:href="#DejaVuSerif-6c" transform="translate(1006.201172 0)"/>
     <use xlink:href="#DejaVuSerif-20" transform="translate(1038.183594 0)"/>
     <use xlink:href="#DejaVuSerif-54" transform="translate(1069.970703 0)"/>
     <use xlink:href="#DejaVuSerif-68" transform="translate(1136.669922 0)"/>
     <use xlink:href="#DejaVuSerif-72" transform="translate(1201.074219 0)"/>
     <use xlink:href="#DejaVuSerif-65" transform="translate(1248.876953 0)"/>
     <use xlink:href="#DejaVuSerif-61" transform="translate(1308.056641 0)"/>
     <use xlink:href="#DejaVuSerif-74" transform="translate(1367.675781 0)"/>
     <use xlink:href="#DejaVuSerif-20" transform="translate(1407.861328 0)"/>
     <use xlink:href="#DejaVuSerif-4d" transform="translate(1439.648438 0)"/>
     <use xlink:href="#DejaVuSerif-6f" transform="translate(1542.041016 0)"/>
     <use xlink:href="#DejaVuSerif-64" transform="translate(1602.246094 0)"/>
     <use xlink:href="#DejaVuSerif-65" transform="translate(1666.259766 0)"/>
     <use xlink:href="#DejaVuSerif-6c" transform="translate(1725.439453 0)"/>
     <use xlink:href="#DejaVuSerif-73" transform="translate(1757.421875 0)"/>
    </g>
   </g>
  </g>
 </g>
</svg>
