<?xml version="1.0" encoding="utf-8" standalone="no"?>
<!DOCTYPE svg PUBLIC "-//W3C//DTD SVG 1.1//EN"
  "http://www.w3.org/Graphics/SVG/1.1/DTD/svg11.dtd">
<svg xmlns:xlink="http://www.w3.org/1999/xlink" width="455.030312pt" height="161.01625pt" viewBox="0 0 455.030312 161.01625" xmlns="http://www.w3.org/2000/svg" version="1.1">
 <metadata>
  <rdf:RDF xmlns:dc="http://purl.org/dc/elements/1.1/" xmlns:cc="http://creativecommons.org/ns#" xmlns:rdf="http://www.w3.org/1999/02/22-rdf-syntax-ns#">
   <cc:Work>
    <dc:type rdf:resource="http://purl.org/dc/dcmitype/StillImage"/>
    <dc:date>2026-05-09T23:30:14.551723</dc:date>
    <dc:format>image/svg+xml</dc:format>
    <dc:creator>
     <cc:Agent>
      <dc:title>Matplotlib v3.10.8, https://matplotlib.org/</dc:title>
     </cc:Agent>
    </dc:creator>
   </cc:Work>
  </rdf:RDF>
 </metadata>
 <defs>
  <style type="text/css">*{stroke-linejoin: round; stroke-linecap: butt}</style>
 </defs>
 <g id="figure_1">
  <g id="patch_1">
   <path d="M 0 161.01625 
L 455.030312 161.01625 
L 455.030312 0 
L 0 0 
z
" style="fill: #ffffff"/>
  </g>
  <g id="axes_1">
   <g id="patch_2">
    <path d="M 33.490313 142.67375 
L 140.810312 142.67375 
L 140.810312 15.67875 
L 33.490313 15.67875 
z
" style="fill: #ffffff"/>
   </g>
   <g id="matplotlib.axis_1">
    <g id="xtick_1">
     <g id="line2d_1">
      <path d="M 48.890063 142.67375 
L 48.890063 15.67875 
" clip-path="url(#pac0a8fe973)" style="fill: none; stroke: #cccccc; stroke-width: 0.4; stroke-linecap: square"/>
     </g>
     <g id="line2d_2">
      <defs>
       <path id="meefc8dc5c4" d="M 0 0 
L 0 3.5 
" style="stroke: #000000; stroke-width: 0.8"/>
      </defs>
      <g>
       <use xlink:href="#meefc8dc5c4" x="48.890063" y="142.67375" style="stroke: #000000; stroke-width: 0.8"/>
      </g>
     </g>
     <g id="text_1">
      <!-- v2.1 -->
      <g transform="translate(40.268813 155.7525) scale(0.08 -0.08)">
       <defs>
        <path id="DejaVuSerif-76" d="M 1581 0 
L 359 2988 
L -19 2988 
L -19 3322 
L 1509 3322 
L 1509 2988 
L 978 2988 
L 1913 703 
L 2847 2988 
L 2350 2988 
L 2350 3322 
L 3597 3322 
L 3597 2988 
L 3225 2988 
L 2003 0 
L 1581 0 
z
" transform="scale(0.015625)"/>
        <path id="DejaVuSerif-32" d="M 819 3553 
L 469 3553 
L 469 4384 
Q 803 4563 1142 4656 
Q 1481 4750 1806 4750 
Q 2534 4750 2956 4397 
Q 3378 4044 3378 3438 
Q 3378 2753 2422 1800 
Q 2347 1728 2309 1691 
L 1131 513 
L 3078 513 
L 3078 1088 
L 3444 1088 
L 3444 0 
L 434 0 
L 434 341 
L 1850 1753 
Q 2319 2222 2519 2614 
Q 2719 3006 2719 3438 
Q 2719 3909 2473 4175 
Q 2228 4441 1797 4441 
Q 1350 4441 1106 4219 
Q 863 3997 819 3553 
z
" transform="scale(0.015625)"/>
        <path id="DejaVuSerif-2e" d="M 603 325 
Q 603 500 722 622 
Q 841 744 1019 744 
Q 1191 744 1312 622 
Q 1434 500 1434 325 
Q 1434 153 1312 31 
Q 1191 -91 1019 -91 
Q 841 -91 722 29 
Q 603 150 603 325 
z
" transform="scale(0.015625)"/>
        <path id="DejaVuSerif-31" d="M 909 0 
L 909 331 
L 1722 331 
L 1722 4213 
L 781 3603 
L 781 4013 
L 1919 4750 
L 2350 4750 
L 2350 331 
L 3163 331 
L 3163 0 
L 909 0 
z
" transform="scale(0.015625)"/>
       </defs>
       <use xlink:href="#DejaVuSerif-76"/>
       <use xlink:href="#DejaVuSerif-32" transform="translate(56.494141 0)"/>
       <use xlink:href="#DejaVuSerif-2e" transform="translate(120.117188 0)"/>
       <use xlink:href="#DejaVuSerif-31" transform="translate(151.904297 0)"/>
      </g>
     </g>
    </g>
    <g id="xtick_2">
     <g id="line2d_3">
      <path d="M 87.150312 142.67375 
L 87.150312 15.67875 
" clip-path="url(#pac0a8fe973)" style="fill: none; stroke: #cccccc; stroke-width: 0.4; stroke-linecap: square"/>
     </g>
     <g id="line2d_4">
      <g>
       <use xlink:href="#meefc8dc5c4" x="87.150312" y="142.67375" style="stroke: #000000; stroke-width: 0.8"/>
      </g>
     </g>
     <g id="text_2">
      <!-- v2.2 -->
      <g transform="translate(78.529062 155.7525) scale(0.08 -0.08)">
       <use xlink:href="#DejaVuSerif-76"/>
       <use xlink:href="#DejaVuSerif-32" transform="translate(56.494141 0)"/>
       <use xlink:href="#DejaVuSerif-2e" transform="translate(120.117188 0)"/>
       <use xlink:href="#DejaVuSerif-32" transform="translate(151.904297 0)"/>
      </g>
     </g>
    </g>
    <g id="xtick_3">
     <g id="line2d_5">
      <path d="M 125.410562 142.67375 
L 125.410562 15.67875 
" clip-path="url(#pac0a8fe973)" style="fill: none; stroke: #cccccc; stroke-width: 0.4; stroke-linecap: square"/>
     </g>
     <g id="line2d_6">
      <g>
       <use xlink:href="#meefc8dc5c4" x="125.410562" y="142.67375" style="stroke: #000000; stroke-width: 0.8"/>
      </g>
     </g>
     <g id="text_3">
      <!-- v2.3 -->
      <g transform="translate(116.789312 155.7525) scale(0.08 -0.08)">
       <defs>
        <path id="DejaVuSerif-33" d="M 622 4469 
Q 988 4606 1323 4678 
Q 1659 4750 1953 4750 
Q 2638 4750 3022 4454 
Q 3406 4159 3406 3634 
Q 3406 3213 3140 2930 
Q 2875 2647 2388 2547 
Q 2963 2466 3280 2130 
Q 3597 1794 3597 1259 
Q 3597 606 3158 257 
Q 2719 -91 1894 -91 
Q 1528 -91 1179 -12 
Q 831 66 488 225 
L 488 1131 
L 838 1131 
Q 869 681 1141 450 
Q 1413 219 1906 219 
Q 2384 219 2661 495 
Q 2938 772 2938 1253 
Q 2938 1803 2653 2086 
Q 2369 2369 1819 2369 
L 1522 2369 
L 1522 2688 
L 1678 2688 
Q 2225 2688 2498 2914 
Q 2772 3141 2772 3597 
Q 2772 4006 2547 4223 
Q 2322 4441 1900 4441 
Q 1478 4441 1245 4241 
Q 1013 4041 972 3647 
L 622 3647 
L 622 4469 
z
" transform="scale(0.015625)"/>
       </defs>
       <use xlink:href="#DejaVuSerif-76"/>
       <use xlink:href="#DejaVuSerif-32" transform="translate(56.494141 0)"/>
       <use xlink:href="#DejaVuSerif-2e" transform="translate(120.117188 0)"/>
       <use xlink:href="#DejaVuSerif-33" transform="translate(151.904297 0)"/>
      </g>
     </g>
    </g>
   </g>
   <g id="matplotlib.axis_2">
    <g id="ytick_1">
     <g id="line2d_7">
      <path d="M 33.490313 142.67375 
L 140.810312 142.67375 
" clip-path="url(#pac0a8fe973)" style="fill: none; stroke: #cccccc; stroke-width: 0.4; stroke-linecap: square"/>
     </g>
     <g id="line2d_8">
      <defs>
       <path id="mc1b5b8c9e3" d="M 0 0 
L -3.5 0 
" style="stroke: #000000; stroke-width: 0.8"/>
      </defs>
      <g>
       <use xlink:href="#mc1b5b8c9e3" x="33.490313" y="142.67375" style="stroke: #000000; stroke-width: 0.8"/>
      </g>
     </g>
     <g id="text_4">
      <!-- 0 -->
      <g transform="translate(21.400313 145.713125) scale(0.08 -0.08)">
       <defs>
        <path id="DejaVuSerif-30" d="M 2034 219 
Q 2513 219 2750 744 
Q 2988 1269 2988 2328 
Q 2988 3391 2750 3916 
Q 2513 4441 2034 4441 
Q 1556 4441 1318 3916 
Q 1081 3391 1081 2328 
Q 1081 1269 1318 744 
Q 1556 219 2034 219 
z
M 2034 -91 
Q 1275 -91 848 546 
Q 422 1184 422 2328 
Q 422 3475 848 4112 
Q 1275 4750 2034 4750 
Q 2797 4750 3222 4112 
Q 3647 3475 3647 2328 
Q 3647 1184 3222 546 
Q 2797 -91 2034 -91 
z
" transform="scale(0.015625)"/>
       </defs>
       <use xlink:href="#DejaVuSerif-30"/>
      </g>
     </g>
    </g>
    <g id="ytick_2">
     <g id="line2d_9">
      <path d="M 33.490313 110.291523 
L 140.810312 110.291523 
" clip-path="url(#pac0a8fe973)" style="fill: none; stroke: #cccccc; stroke-width: 0.4; stroke-linecap: square"/>
     </g>
     <g id="line2d_10">
      <g>
       <use xlink:href="#mc1b5b8c9e3" x="33.490313" y="110.291523" style="stroke: #000000; stroke-width: 0.8"/>
      </g>
     </g>
     <g id="text_5">
      <!-- 20 -->
      <g transform="translate(16.310313 113.330898) scale(0.08 -0.08)">
       <use xlink:href="#DejaVuSerif-32"/>
       <use xlink:href="#DejaVuSerif-30" transform="translate(63.623047 0)"/>
      </g>
     </g>
    </g>
    <g id="ytick_3">
     <g id="line2d_11">
      <path d="M 33.490313 77.909295 
L 140.810312 77.909295 
" clip-path="url(#pac0a8fe973)" style="fill: none; stroke: #cccccc; stroke-width: 0.4; stroke-linecap: square"/>
     </g>
     <g id="line2d_12">
      <g>
       <use xlink:href="#mc1b5b8c9e3" x="33.490313" y="77.909295" style="stroke: #000000; stroke-width: 0.8"/>
      </g>
     </g>
     <g id="text_6">
      <!-- 40 -->
      <g transform="translate(16.310313 80.94867) scale(0.08 -0.08)">
       <defs>
        <path id="DejaVuSerif-34" d="M 2234 1581 
L 2234 4063 
L 641 1581 
L 2234 1581 
z
M 3609 0 
L 1484 0 
L 1484 331 
L 2234 331 
L 2234 1247 
L 197 1247 
L 197 1588 
L 2241 4750 
L 2859 4750 
L 2859 1581 
L 3750 1581 
L 3750 1247 
L 2859 1247 
L 2859 331 
L 3609 331 
L 3609 0 
z
" transform="scale(0.015625)"/>
       </defs>
       <use xlink:href="#DejaVuSerif-34"/>
       <use xlink:href="#DejaVuSerif-30" transform="translate(63.623047 0)"/>
      </g>
     </g>
    </g>
    <g id="ytick_4">
     <g id="line2d_13">
      <path d="M 33.490313 45.527068 
L 140.810312 45.527068 
" clip-path="url(#pac0a8fe973)" style="fill: none; stroke: #cccccc; stroke-width: 0.4; stroke-linecap: square"/>
     </g>
     <g id="line2d_14">
      <g>
       <use xlink:href="#mc1b5b8c9e3" x="33.490313" y="45.527068" style="stroke: #000000; stroke-width: 0.8"/>
      </g>
     </g>
     <g id="text_7">
      <!-- 60 -->
      <g transform="translate(16.310313 48.566443) scale(0.08 -0.08)">
       <defs>
        <path id="DejaVuSerif-36" d="M 2094 219 
Q 2534 219 2771 542 
Q 3009 866 3009 1472 
Q 3009 2078 2771 2401 
Q 2534 2725 2094 2725 
Q 1647 2725 1412 2412 
Q 1178 2100 1178 1509 
Q 1178 888 1415 553 
Q 1653 219 2094 219 
z
M 1075 2569 
Q 1288 2803 1556 2918 
Q 1825 3034 2163 3034 
Q 2859 3034 3264 2615 
Q 3669 2197 3669 1472 
Q 3669 763 3233 336 
Q 2797 -91 2069 -91 
Q 1278 -91 853 498 
Q 428 1088 428 2181 
Q 428 3406 931 4078 
Q 1434 4750 2350 4750 
Q 2597 4750 2869 4703 
Q 3141 4656 3425 4563 
L 3425 3794 
L 3072 3794 
Q 3034 4109 2831 4275 
Q 2628 4441 2284 4441 
Q 1678 4441 1381 3981 
Q 1084 3522 1075 2569 
z
" transform="scale(0.015625)"/>
       </defs>
       <use xlink:href="#DejaVuSerif-36"/>
       <use xlink:href="#DejaVuSerif-30" transform="translate(63.623047 0)"/>
      </g>
     </g>
    </g>
    <g id="text_8">
     <!-- Fraud Exposure (sats) -->
     <g transform="translate(10.438594 129.827266) rotate(-90) scale(0.09 -0.09)">
      <defs>
       <path id="DejaVuSerif-46" d="M 353 0 
L 353 331 
L 947 331 
L 947 4331 
L 353 4331 
L 353 4666 
L 4172 4666 
L 4172 3628 
L 3788 3628 
L 3788 4281 
L 1581 4281 
L 1581 2719 
L 3175 2719 
L 3175 3303 
L 3559 3303 
L 3559 1753 
L 3175 1753 
L 3175 2338 
L 1581 2338 
L 1581 331 
L 2328 331 
L 2328 0 
L 353 0 
z
" transform="scale(0.015625)"/>
       <path id="DejaVuSerif-72" d="M 3059 3328 
L 3059 2497 
L 2728 2497 
Q 2713 2744 2591 2866 
Q 2469 2988 2234 2988 
Q 1809 2988 1582 2694 
Q 1356 2400 1356 1850 
L 1356 331 
L 2022 331 
L 2022 0 
L 263 0 
L 263 331 
L 781 331 
L 781 2994 
L 231 2994 
L 231 3322 
L 1356 3322 
L 1356 2731 
Q 1525 3078 1790 3245 
Q 2056 3413 2438 3413 
Q 2578 3413 2733 3391 
Q 2888 3369 3059 3328 
z
" transform="scale(0.015625)"/>
       <path id="DejaVuSerif-61" d="M 2547 1044 
L 2547 1747 
L 1806 1747 
Q 1378 1747 1168 1562 
Q 959 1378 959 997 
Q 959 650 1171 447 
Q 1384 244 1747 244 
Q 2106 244 2326 466 
Q 2547 688 2547 1044 
z
M 3122 2075 
L 3122 331 
L 3634 331 
L 3634 0 
L 2547 0 
L 2547 359 
Q 2356 128 2106 18 
Q 1856 -91 1522 -91 
Q 969 -91 644 203 
Q 319 497 319 997 
Q 319 1513 691 1797 
Q 1063 2081 1741 2081 
L 2547 2081 
L 2547 2309 
Q 2547 2688 2317 2895 
Q 2088 3103 1672 3103 
Q 1328 3103 1125 2947 
Q 922 2791 872 2484 
L 575 2484 
L 575 3156 
Q 875 3284 1158 3348 
Q 1441 3413 1709 3413 
Q 2400 3413 2761 3070 
Q 3122 2728 3122 2075 
z
" transform="scale(0.015625)"/>
       <path id="DejaVuSerif-75" d="M 2266 3322 
L 3341 3322 
L 3341 331 
L 3884 331 
L 3884 0 
L 2766 0 
L 2766 588 
Q 2606 256 2353 82 
Q 2100 -91 1766 -91 
Q 1213 -91 952 223 
Q 691 538 691 1209 
L 691 2988 
L 172 2988 
L 172 3322 
L 1269 3322 
L 1269 1388 
Q 1269 781 1417 556 
Q 1566 331 1947 331 
Q 2347 331 2556 625 
Q 2766 919 2766 1478 
L 2766 2988 
L 2266 2988 
L 2266 3322 
z
" transform="scale(0.015625)"/>
       <path id="DejaVuSerif-64" d="M 3359 331 
L 3909 331 
L 3909 0 
L 2784 0 
L 2784 519 
Q 2616 206 2355 57 
Q 2094 -91 1709 -91 
Q 1097 -91 708 395 
Q 319 881 319 1663 
Q 319 2444 706 2928 
Q 1094 3413 1709 3413 
Q 2094 3413 2355 3264 
Q 2616 3116 2784 2803 
L 2784 4531 
L 2241 4531 
L 2241 4863 
L 3359 4863 
L 3359 331 
z
M 2784 1497 
L 2784 1825 
Q 2784 2422 2554 2737 
Q 2325 3053 1888 3053 
Q 1444 3053 1217 2703 
Q 991 2353 991 1663 
Q 991 975 1217 622 
Q 1444 269 1888 269 
Q 2325 269 2554 583 
Q 2784 897 2784 1497 
z
" transform="scale(0.015625)"/>
       <path id="DejaVuSerif-20" transform="scale(0.015625)"/>
       <path id="DejaVuSerif-45" d="M 353 0 
L 353 331 
L 947 331 
L 947 4331 
L 353 4331 
L 353 4666 
L 4109 4666 
L 4109 3628 
L 3725 3628 
L 3725 4281 
L 1581 4281 
L 1581 2719 
L 3109 2719 
L 3109 3303 
L 3494 3303 
L 3494 1753 
L 3109 1753 
L 3109 2338 
L 1581 2338 
L 1581 384 
L 3775 384 
L 3775 1038 
L 4159 1038 
L 4159 0 
L 353 0 
z
" transform="scale(0.015625)"/>
       <path id="DejaVuSerif-78" d="M 1863 2028 
L 2559 2988 
L 2113 2988 
L 2113 3322 
L 3391 3322 
L 3391 2988 
L 2950 2988 
L 2059 1759 
L 3097 331 
L 3531 331 
L 3531 0 
L 1997 0 
L 1997 331 
L 2419 331 
L 1697 1325 
L 972 331 
L 1403 331 
L 1403 0 
L 141 0 
L 141 331 
L 581 331 
L 1497 1594 
L 488 2988 
L 78 2988 
L 78 3322 
L 1563 3322 
L 1563 2988 
L 1166 2988 
L 1863 2028 
z
" transform="scale(0.015625)"/>
       <path id="DejaVuSerif-70" d="M 1313 1825 
L 1313 1497 
Q 1313 897 1542 583 
Q 1772 269 2209 269 
Q 2650 269 2876 622 
Q 3103 975 3103 1663 
Q 3103 2353 2876 2703 
Q 2650 3053 2209 3053 
Q 1772 3053 1542 2737 
Q 1313 2422 1313 1825 
z
M 738 2988 
L 184 2988 
L 184 3322 
L 1313 3322 
L 1313 2803 
Q 1481 3116 1742 3264 
Q 2003 3413 2388 3413 
Q 3000 3413 3387 2928 
Q 3775 2444 3775 1663 
Q 3775 881 3387 395 
Q 3000 -91 2388 -91 
Q 2003 -91 1742 57 
Q 1481 206 1313 519 
L 1313 -997 
L 1856 -997 
L 1856 -1331 
L 184 -1331 
L 184 -997 
L 738 -997 
L 738 2988 
z
" transform="scale(0.015625)"/>
       <path id="DejaVuSerif-6f" d="M 1925 219 
Q 2388 219 2623 584 
Q 2859 950 2859 1663 
Q 2859 2375 2623 2739 
Q 2388 3103 1925 3103 
Q 1463 3103 1227 2739 
Q 991 2375 991 1663 
Q 991 950 1228 584 
Q 1466 219 1925 219 
z
M 1925 -91 
Q 1200 -91 759 389 
Q 319 869 319 1663 
Q 319 2456 758 2934 
Q 1197 3413 1925 3413 
Q 2653 3413 3092 2934 
Q 3531 2456 3531 1663 
Q 3531 869 3092 389 
Q 2653 -91 1925 -91 
z
" transform="scale(0.015625)"/>
       <path id="DejaVuSerif-73" d="M 359 184 
L 359 959 
L 691 959 
Q 703 588 923 403 
Q 1144 219 1575 219 
Q 1963 219 2166 364 
Q 2369 509 2369 788 
Q 2369 1006 2220 1140 
Q 2072 1275 1594 1428 
L 1178 1569 
Q 750 1706 558 1912 
Q 366 2119 366 2438 
Q 366 2894 700 3153 
Q 1034 3413 1625 3413 
Q 1888 3413 2178 3344 
Q 2469 3275 2778 3144 
L 2778 2419 
L 2447 2419 
Q 2434 2741 2221 2922 
Q 2009 3103 1644 3103 
Q 1281 3103 1095 2975 
Q 909 2847 909 2591 
Q 909 2381 1050 2254 
Q 1191 2128 1613 1997 
L 2069 1856 
Q 2541 1709 2748 1489 
Q 2956 1269 2956 922 
Q 2956 450 2595 179 
Q 2234 -91 1600 -91 
Q 1278 -91 972 -22 
Q 666 47 359 184 
z
" transform="scale(0.015625)"/>
       <path id="DejaVuSerif-65" d="M 3469 1600 
L 991 1600 
L 991 1575 
Q 991 903 1244 561 
Q 1497 219 1991 219 
Q 2369 219 2611 417 
Q 2853 616 2950 1006 
L 3413 1006 
Q 3275 459 2904 184 
Q 2534 -91 1931 -91 
Q 1203 -91 761 389 
Q 319 869 319 1663 
Q 319 2450 753 2931 
Q 1188 3413 1894 3413 
Q 2647 3413 3050 2948 
Q 3453 2484 3469 1600 
z
M 2791 1931 
Q 2772 2513 2545 2808 
Q 2319 3103 1894 3103 
Q 1497 3103 1269 2806 
Q 1041 2509 991 1931 
L 2791 1931 
z
" transform="scale(0.015625)"/>
       <path id="DejaVuSerif-28" d="M 2041 -997 
Q 1281 -656 893 83 
Q 506 822 506 1931 
Q 506 3044 893 3783 
Q 1281 4522 2041 4863 
L 2041 4556 
Q 1559 4225 1350 3623 
Q 1141 3022 1141 1931 
Q 1141 844 1350 242 
Q 1559 -359 2041 -691 
L 2041 -997 
z
" transform="scale(0.015625)"/>
       <path id="DejaVuSerif-74" d="M 691 2988 
L 184 2988 
L 184 3322 
L 691 3322 
L 691 4353 
L 1269 4353 
L 1269 3322 
L 2350 3322 
L 2350 2988 
L 1269 2988 
L 1269 878 
Q 1269 456 1350 337 
Q 1431 219 1650 219 
Q 1875 219 1978 351 
Q 2081 484 2088 781 
L 2522 781 
Q 2497 328 2275 118 
Q 2053 -91 1600 -91 
Q 1103 -91 897 129 
Q 691 350 691 878 
L 691 2988 
z
" transform="scale(0.015625)"/>
       <path id="DejaVuSerif-29" d="M 453 -997 
L 453 -691 
Q 934 -359 1145 242 
Q 1356 844 1356 1931 
Q 1356 3022 1145 3623 
Q 934 4225 453 4556 
L 453 4863 
Q 1216 4522 1603 3783 
Q 1991 3044 1991 1931 
Q 1991 822 1603 83 
Q 1216 -656 453 -997 
z
" transform="scale(0.015625)"/>
      </defs>
      <use xlink:href="#DejaVuSerif-46"/>
      <use xlink:href="#DejaVuSerif-72" transform="translate(69.384766 0)"/>
      <use xlink:href="#DejaVuSerif-61" transform="translate(117.1875 0)"/>
      <use xlink:href="#DejaVuSerif-75" transform="translate(176.806641 0)"/>
      <use xlink:href="#DejaVuSerif-64" transform="translate(241.210938 0)"/>
      <use xlink:href="#DejaVuSerif-20" transform="translate(305.224609 0)"/>
      <use xlink:href="#DejaVuSerif-45" transform="translate(337.011719 0)"/>
      <use xlink:href="#DejaVuSerif-78" transform="translate(410.009766 0)"/>
      <use xlink:href="#DejaVuSerif-70" transform="translate(466.40625 0)"/>
      <use xlink:href="#DejaVuSerif-6f" transform="translate(530.419922 0)"/>
      <use xlink:href="#DejaVuSerif-73" transform="translate(590.625 0)"/>
      <use xlink:href="#DejaVuSerif-75" transform="translate(641.943359 0)"/>
      <use xlink:href="#DejaVuSerif-72" transform="translate(706.347656 0)"/>
      <use xlink:href="#DejaVuSerif-65" transform="translate(754.150391 0)"/>
      <use xlink:href="#DejaVuSerif-20" transform="translate(813.330078 0)"/>
      <use xlink:href="#DejaVuSerif-28" transform="translate(845.117188 0)"/>
      <use xlink:href="#DejaVuSerif-73" transform="translate(884.130859 0)"/>
      <use xlink:href="#DejaVuSerif-61" transform="translate(935.449219 0)"/>
      <use xlink:href="#DejaVuSerif-74" transform="translate(995.068359 0)"/>
      <use xlink:href="#DejaVuSerif-73" transform="translate(1035.253906 0)"/>
      <use xlink:href="#DejaVuSerif-29" transform="translate(1086.572266 0)"/>
     </g>
    </g>
   </g>
   <g id="patch_3">
    <path d="M 33.490313 142.67375 
L 33.490313 15.67875 
" style="fill: none; stroke: #000000; stroke-width: 0.8; stroke-linejoin: miter; stroke-linecap: square"/>
   </g>
   <g id="patch_4">
    <path d="M 33.490313 142.67375 
L 140.810312 142.67375 
" style="fill: none; stroke: #000000; stroke-width: 0.8; stroke-linejoin: miter; stroke-linecap: square"/>
   </g>
   <g id="patch_5">
    <path d="M 38.368494 142.67375 
L 59.411632 142.67375 
L 59.411632 80.985607 
L 38.368494 80.985607 
z
" clip-path="url(#pac0a8fe973)" style="fill: #4477aa; stroke: #000000; stroke-width: 0.6; stroke-linejoin: miter"/>
   </g>
   <g id="patch_6">
    <path d="M 76.628744 142.67375 
L 97.671881 142.67375 
L 97.671881 79.690318 
L 76.628744 79.690318 
z
" clip-path="url(#pac0a8fe973)" style="fill: url(#h3df1ef0bf6); stroke: #000000; stroke-width: 0.6; stroke-linejoin: miter"/>
   </g>
   <g id="patch_7">
    <path d="M 114.888993 142.67375 
L 135.932131 142.67375 
L 135.932131 70.429001 
L 114.888993 70.429001 
z
" clip-path="url(#pac0a8fe973)" style="fill: url(#h3e68930efd); stroke: #000000; stroke-width: 0.6; stroke-linejoin: miter"/>
   </g>
   <g id="text_9">
    <!-- (a) Mean Fraud +/- s.d. -->
    <g transform="translate(39.718437 9.67875) scale(0.08 -0.08)">
     <defs>
      <path id="DejaVuSerif-4d" d="M 353 0 
L 353 331 
L 947 331 
L 947 4331 
L 319 4331 
L 319 4666 
L 1678 4666 
L 3316 1344 
L 4953 4666 
L 6228 4666 
L 6228 4331 
L 5606 4331 
L 5606 331 
L 6203 331 
L 6203 0 
L 4378 0 
L 4378 331 
L 4972 331 
L 4972 3938 
L 3372 684 
L 2931 684 
L 1331 3938 
L 1331 331 
L 1925 331 
L 1925 0 
L 353 0 
z
" transform="scale(0.015625)"/>
      <path id="DejaVuSerif-6e" d="M 263 0 
L 263 331 
L 781 331 
L 781 2988 
L 231 2988 
L 231 3322 
L 1356 3322 
L 1356 2731 
Q 1516 3069 1770 3241 
Q 2025 3413 2363 3413 
Q 2913 3413 3172 3097 
Q 3431 2781 3431 2113 
L 3431 331 
L 3944 331 
L 3944 0 
L 2356 0 
L 2356 331 
L 2853 331 
L 2853 1931 
Q 2853 2541 2703 2767 
Q 2553 2994 2175 2994 
Q 1775 2994 1565 2701 
Q 1356 2409 1356 1850 
L 1356 331 
L 1856 331 
L 1856 0 
L 263 0 
z
" transform="scale(0.015625)"/>
      <path id="DejaVuSerif-2b" d="M 2931 4013 
L 2931 2259 
L 4684 2259 
L 4684 1753 
L 2931 1753 
L 2931 0 
L 2431 0 
L 2431 1753 
L 678 1753 
L 678 2259 
L 2431 2259 
L 2431 4013 
L 2931 4013 
z
" transform="scale(0.015625)"/>
      <path id="DejaVuSerif-2f" d="M 1656 4666 
L 2156 4666 
L 500 -594 
L 0 -594 
L 1656 4666 
z
" transform="scale(0.015625)"/>
      <path id="DejaVuSerif-2d" d="M 281 1959 
L 1881 1959 
L 1881 1472 
L 281 1472 
L 281 1959 
z
" transform="scale(0.015625)"/>
     </defs>
     <use xlink:href="#DejaVuSerif-28"/>
     <use xlink:href="#DejaVuSerif-61" transform="translate(39.013672 0)"/>
     <use xlink:href="#DejaVuSerif-29" transform="translate(98.632812 0)"/>
     <use xlink:href="#DejaVuSerif-20" transform="translate(137.646484 0)"/>
     <use xlink:href="#DejaVuSerif-4d" transform="translate(169.433594 0)"/>
     <use xlink:href="#DejaVuSerif-65" transform="translate(271.826172 0)"/>
     <use xlink:href="#DejaVuSerif-61" transform="translate(331.005859 0)"/>
     <use xlink:href="#DejaVuSerif-6e" transform="translate(390.625 0)"/>
     <use xlink:href="#DejaVuSerif-20" transform="translate(455.029297 0)"/>
     <use xlink:href="#DejaVuSerif-46" transform="translate(486.816406 0)"/>
     <use xlink:href="#DejaVuSerif-72" transform="translate(556.201172 0)"/>
     <use xlink:href="#DejaVuSerif-61" transform="translate(604.003906 0)"/>
     <use xlink:href="#DejaVuSerif-75" transform="translate(663.623047 0)"/>
     <use xlink:href="#DejaVuSerif-64" transform="translate(728.027344 0)"/>
     <use xlink:href="#DejaVuSerif-20" transform="translate(792.041016 0)"/>
     <use xlink:href="#DejaVuSerif-2b" transform="translate(823.828125 0)"/>
     <use xlink:href="#DejaVuSerif-2f" transform="translate(907.617188 0)"/>
     <use xlink:href="#DejaVuSerif-2d" transform="translate(941.308594 0)"/>
     <use xlink:href="#DejaVuSerif-20" transform="translate(975.097656 0)"/>
     <use xlink:href="#DejaVuSerif-73" transform="translate(1006.884766 0)"/>
     <use xlink:href="#DejaVuSerif-2e" transform="translate(1058.203125 0)"/>
     <use xlink:href="#DejaVuSerif-64" transform="translate(1089.990234 0)"/>
     <use xlink:href="#DejaVuSerif-2e" transform="translate(1154.003906 0)"/>
    </g>
   </g>
   <g id="LineCollection_1">
    <path d="M 48.890063 122.515813 
L 48.890063 39.4554 
" clip-path="url(#pac0a8fe973)" style="fill: none; stroke: #000000; stroke-width: 0.8"/>
    <path d="M 87.150312 117.901346 
L 87.150312 41.47929 
" clip-path="url(#pac0a8fe973)" style="fill: none; stroke: #000000; stroke-width: 0.8"/>
    <path d="M 125.410562 119.131871 
L 125.410562 21.726131 
" clip-path="url(#pac0a8fe973)" style="fill: none; stroke: #000000; stroke-width: 0.8"/>
   </g>
   <g id="line2d_15">
    <defs>
     <path id="m75f3d50aca" d="M 3 0 
L -3 -0 
" style="stroke: #000000"/>
    </defs>
    <g clip-path="url(#pac0a8fe973)">
     <use xlink:href="#m75f3d50aca" x="48.890063" y="122.515813" style="stroke: #000000"/>
     <use xlink:href="#m75f3d50aca" x="87.150312" y="117.901346" style="stroke: #000000"/>
     <use xlink:href="#m75f3d50aca" x="125.410562" y="119.131871" style="stroke: #000000"/>
    </g>
   </g>
   <g id="line2d_16">
    <g clip-path="url(#pac0a8fe973)">
     <use xlink:href="#m75f3d50aca" x="48.890063" y="39.4554" style="stroke: #000000"/>
     <use xlink:href="#m75f3d50aca" x="87.150312" y="41.47929" style="stroke: #000000"/>
     <use xlink:href="#m75f3d50aca" x="125.410562" y="21.726131" style="stroke: #000000"/>
    </g>
   </g>
  </g>
  <g id="axes_2">
   <g id="patch_8">
    <path d="M 188.800312 142.67375 
L 296.120312 142.67375 
L 296.120312 15.67875 
L 188.800312 15.67875 
z
" style="fill: #ffffff"/>
   </g>
   <g id="matplotlib.axis_3">
    <g id="xtick_4">
     <g id="line2d_17">
      <path d="M 204.200063 142.67375 
L 204.200063 15.67875 
" clip-path="url(#pb3c11fc280)" style="fill: none; stroke: #cccccc; stroke-width: 0.4; stroke-linecap: square"/>
     </g>
     <g id="line2d_18">
      <g>
       <use xlink:href="#meefc8dc5c4" x="204.200063" y="142.67375" style="stroke: #000000; stroke-width: 0.8"/>
      </g>
     </g>
     <g id="text_10">
      <!-- v2.1 -->
      <g transform="translate(195.578813 155.7525) scale(0.08 -0.08)">
       <use xlink:href="#DejaVuSerif-76"/>
       <use xlink:href="#DejaVuSerif-32" transform="translate(56.494141 0)"/>
       <use xlink:href="#DejaVuSerif-2e" transform="translate(120.117188 0)"/>
       <use xlink:href="#DejaVuSerif-31" transform="translate(151.904297 0)"/>
      </g>
     </g>
    </g>
    <g id="xtick_5">
     <g id="line2d_19">
      <path d="M 242.460312 142.67375 
L 242.460312 15.67875 
" clip-path="url(#pb3c11fc280)" style="fill: none; stroke: #cccccc; stroke-width: 0.4; stroke-linecap: square"/>
     </g>
     <g id="line2d_20">
      <g>
       <use xlink:href="#meefc8dc5c4" x="242.460312" y="142.67375" style="stroke: #000000; stroke-width: 0.8"/>
      </g>
     </g>
     <g id="text_11">
      <!-- v2.2 -->
      <g transform="translate(233.839062 155.7525) scale(0.08 -0.08)">
       <use xlink:href="#DejaVuSerif-76"/>
       <use xlink:href="#DejaVuSerif-32" transform="translate(56.494141 0)"/>
       <use xlink:href="#DejaVuSerif-2e" transform="translate(120.117188 0)"/>
       <use xlink:href="#DejaVuSerif-32" transform="translate(151.904297 0)"/>
      </g>
     </g>
    </g>
    <g id="xtick_6">
     <g id="line2d_21">
      <path d="M 280.720562 142.67375 
L 280.720562 15.67875 
" clip-path="url(#pb3c11fc280)" style="fill: none; stroke: #cccccc; stroke-width: 0.4; stroke-linecap: square"/>
     </g>
     <g id="line2d_22">
      <g>
       <use xlink:href="#meefc8dc5c4" x="280.720562" y="142.67375" style="stroke: #000000; stroke-width: 0.8"/>
      </g>
     </g>
     <g id="text_12">
      <!-- v2.3 -->
      <g transform="translate(272.099312 155.7525) scale(0.08 -0.08)">
       <use xlink:href="#DejaVuSerif-76"/>
       <use xlink:href="#DejaVuSerif-32" transform="translate(56.494141 0)"/>
       <use xlink:href="#DejaVuSerif-2e" transform="translate(120.117188 0)"/>
       <use xlink:href="#DejaVuSerif-33" transform="translate(151.904297 0)"/>
      </g>
     </g>
    </g>
   </g>
   <g id="matplotlib.axis_4">
    <g id="ytick_5">
     <g id="line2d_23">
      <path d="M 188.800312 142.67375 
L 296.120312 142.67375 
" clip-path="url(#pb3c11fc280)" style="fill: none; stroke: #cccccc; stroke-width: 0.4; stroke-linecap: square"/>
     </g>
     <g id="line2d_24">
      <g>
       <use xlink:href="#mc1b5b8c9e3" x="188.800312" y="142.67375" style="stroke: #000000; stroke-width: 0.8"/>
      </g>
     </g>
     <g id="text_13">
      <!-- 0 -->
      <g transform="translate(176.710312 145.713125) scale(0.08 -0.08)">
       <use xlink:href="#DejaVuSerif-30"/>
      </g>
     </g>
    </g>
    <g id="ytick_6">
     <g id="line2d_25">
      <path d="M 188.800312 122.569425 
L 296.120312 122.569425 
" clip-path="url(#pb3c11fc280)" style="fill: none; stroke: #cccccc; stroke-width: 0.4; stroke-linecap: square"/>
     </g>
     <g id="line2d_26">
      <g>
       <use xlink:href="#mc1b5b8c9e3" x="188.800312" y="122.569425" style="stroke: #000000; stroke-width: 0.8"/>
      </g>
     </g>
     <g id="text_14">
      <!-- 5 -->
      <g transform="translate(176.710312 125.6088) scale(0.08 -0.08)">
       <defs>
        <path id="DejaVuSerif-35" d="M 3219 4666 
L 3219 4153 
L 1081 4153 
L 1081 2816 
Q 1244 2928 1461 2984 
Q 1678 3041 1947 3041 
Q 2703 3041 3140 2622 
Q 3578 2203 3578 1478 
Q 3578 738 3136 323 
Q 2694 -91 1894 -91 
Q 1572 -91 1234 -12 
Q 897 66 544 225 
L 544 1131 
L 897 1131 
Q 925 688 1179 453 
Q 1434 219 1894 219 
Q 2388 219 2653 544 
Q 2919 869 2919 1478 
Q 2919 2084 2655 2407 
Q 2391 2731 1894 2731 
Q 1613 2731 1398 2631 
Q 1184 2531 1019 2322 
L 750 2322 
L 750 4666 
L 3219 4666 
z
" transform="scale(0.015625)"/>
       </defs>
       <use xlink:href="#DejaVuSerif-35"/>
      </g>
     </g>
    </g>
    <g id="ytick_7">
     <g id="line2d_27">
      <path d="M 188.800312 102.4651 
L 296.120312 102.4651 
" clip-path="url(#pb3c11fc280)" style="fill: none; stroke: #cccccc; stroke-width: 0.4; stroke-linecap: square"/>
     </g>
     <g id="line2d_28">
      <g>
       <use xlink:href="#mc1b5b8c9e3" x="188.800312" y="102.4651" style="stroke: #000000; stroke-width: 0.8"/>
      </g>
     </g>
     <g id="text_15">
      <!-- 10 -->
      <g transform="translate(171.620312 105.504475) scale(0.08 -0.08)">
       <use xlink:href="#DejaVuSerif-31"/>
       <use xlink:href="#DejaVuSerif-30" transform="translate(63.623047 0)"/>
      </g>
     </g>
    </g>
    <g id="ytick_8">
     <g id="line2d_29">
      <path d="M 188.800312 82.360775 
L 296.120312 82.360775 
" clip-path="url(#pb3c11fc280)" style="fill: none; stroke: #cccccc; stroke-width: 0.4; stroke-linecap: square"/>
     </g>
     <g id="line2d_30">
      <g>
       <use xlink:href="#mc1b5b8c9e3" x="188.800312" y="82.360775" style="stroke: #000000; stroke-width: 0.8"/>
      </g>
     </g>
     <g id="text_16">
      <!-- 15 -->
      <g transform="translate(171.620312 85.40015) scale(0.08 -0.08)">
       <use xlink:href="#DejaVuSerif-31"/>
       <use xlink:href="#DejaVuSerif-35" transform="translate(63.623047 0)"/>
      </g>
     </g>
    </g>
    <g id="ytick_9">
     <g id="line2d_31">
      <path d="M 188.800312 62.25645 
L 296.120312 62.25645 
" clip-path="url(#pb3c11fc280)" style="fill: none; stroke: #cccccc; stroke-width: 0.4; stroke-linecap: square"/>
     </g>
     <g id="line2d_32">
      <g>
       <use xlink:href="#mc1b5b8c9e3" x="188.800312" y="62.25645" style="stroke: #000000; stroke-width: 0.8"/>
      </g>
     </g>
     <g id="text_17">
      <!-- 20 -->
      <g transform="translate(171.620312 65.295825) scale(0.08 -0.08)">
       <use xlink:href="#DejaVuSerif-32"/>
       <use xlink:href="#DejaVuSerif-30" transform="translate(63.623047 0)"/>
      </g>
     </g>
    </g>
    <g id="ytick_10">
     <g id="line2d_33">
      <path d="M 188.800312 42.152125 
L 296.120312 42.152125 
" clip-path="url(#pb3c11fc280)" style="fill: none; stroke: #cccccc; stroke-width: 0.4; stroke-linecap: square"/>
     </g>
     <g id="line2d_34">
      <g>
       <use xlink:href="#mc1b5b8c9e3" x="188.800312" y="42.152125" style="stroke: #000000; stroke-width: 0.8"/>
      </g>
     </g>
     <g id="text_18">
      <!-- 25 -->
      <g transform="translate(171.620312 45.1915) scale(0.08 -0.08)">
       <use xlink:href="#DejaVuSerif-32"/>
       <use xlink:href="#DejaVuSerif-35" transform="translate(63.623047 0)"/>
      </g>
     </g>
    </g>
    <g id="ytick_11">
     <g id="line2d_35">
      <path d="M 188.800312 22.0478 
L 296.120312 22.0478 
" clip-path="url(#pb3c11fc280)" style="fill: none; stroke: #cccccc; stroke-width: 0.4; stroke-linecap: square"/>
     </g>
     <g id="line2d_36">
      <g>
       <use xlink:href="#mc1b5b8c9e3" x="188.800312" y="22.0478" style="stroke: #000000; stroke-width: 0.8"/>
      </g>
     </g>
     <g id="text_19">
      <!-- 30 -->
      <g transform="translate(171.620312 25.087175) scale(0.08 -0.08)">
       <use xlink:href="#DejaVuSerif-33"/>
       <use xlink:href="#DejaVuSerif-30" transform="translate(63.623047 0)"/>
      </g>
     </g>
    </g>
    <g id="text_20">
     <!-- Fraud Std. Dev. (sats) -->
     <g transform="translate(165.748594 128.734609) rotate(-90) scale(0.09 -0.09)">
      <defs>
       <path id="DejaVuSerif-53" d="M 594 225 
L 594 1288 
L 953 1284 
Q 969 753 1261 498 
Q 1553 244 2150 244 
Q 2706 244 2998 464 
Q 3291 684 3291 1106 
Q 3291 1444 3114 1625 
Q 2938 1806 2369 1978 
L 1753 2163 
Q 1084 2366 811 2669 
Q 538 2972 538 3500 
Q 538 4094 959 4422 
Q 1381 4750 2144 4750 
Q 2469 4750 2856 4679 
Q 3244 4609 3681 4475 
L 3681 3481 
L 3328 3481 
Q 3275 3975 2998 4195 
Q 2722 4416 2156 4416 
Q 1663 4416 1405 4214 
Q 1147 4013 1147 3628 
Q 1147 3294 1340 3103 
Q 1534 2913 2163 2725 
L 2741 2553 
Q 3375 2363 3645 2067 
Q 3916 1772 3916 1275 
Q 3916 597 3481 253 
Q 3047 -91 2188 -91 
Q 1803 -91 1404 -12 
Q 1006 66 594 225 
z
" transform="scale(0.015625)"/>
       <path id="DejaVuSerif-44" d="M 1581 331 
L 2163 331 
Q 3072 331 3558 850 
Q 4044 1369 4044 2338 
Q 4044 3306 3559 3818 
Q 3075 4331 2163 4331 
L 1581 4331 
L 1581 331 
z
M 353 0 
L 353 331 
L 947 331 
L 947 4331 
L 353 4331 
L 353 4666 
L 2209 4666 
Q 3416 4666 4089 4050 
Q 4763 3434 4763 2338 
Q 4763 1238 4088 619 
Q 3413 0 2209 0 
L 353 0 
z
" transform="scale(0.015625)"/>
      </defs>
      <use xlink:href="#DejaVuSerif-46"/>
      <use xlink:href="#DejaVuSerif-72" transform="translate(69.384766 0)"/>
      <use xlink:href="#DejaVuSerif-61" transform="translate(117.1875 0)"/>
      <use xlink:href="#DejaVuSerif-75" transform="translate(176.806641 0)"/>
      <use xlink:href="#DejaVuSerif-64" transform="translate(241.210938 0)"/>
      <use xlink:href="#DejaVuSerif-20" transform="translate(305.224609 0)"/>
      <use xlink:href="#DejaVuSerif-53" transform="translate(337.011719 0)"/>
      <use xlink:href="#DejaVuSerif-74" transform="translate(405.517578 0)"/>
      <use xlink:href="#DejaVuSerif-64" transform="translate(445.703125 0)"/>
      <use xlink:href="#DejaVuSerif-2e" transform="translate(509.716797 0)"/>
      <use xlink:href="#DejaVuSerif-20" transform="translate(541.503906 0)"/>
      <use xlink:href="#DejaVuSerif-44" transform="translate(573.291016 0)"/>
      <use xlink:href="#DejaVuSerif-65" transform="translate(653.466797 0)"/>
      <use xlink:href="#DejaVuSerif-76" transform="translate(712.646484 0)"/>
      <use xlink:href="#DejaVuSerif-2e" transform="translate(757.265625 0)"/>
      <use xlink:href="#DejaVuSerif-20" transform="translate(789.052734 0)"/>
      <use xlink:href="#DejaVuSerif-28" transform="translate(820.839844 0)"/>
      <use xlink:href="#DejaVuSerif-73" transform="translate(859.853516 0)"/>
      <use xlink:href="#DejaVuSerif-61" transform="translate(911.171875 0)"/>
      <use xlink:href="#DejaVuSerif-74" transform="translate(970.791016 0)"/>
      <use xlink:href="#DejaVuSerif-73" transform="translate(1010.976562 0)"/>
      <use xlink:href="#DejaVuSerif-29" transform="translate(1062.294922 0)"/>
     </g>
    </g>
   </g>
   <g id="patch_9">
    <path d="M 188.800312 142.67375 
L 188.800312 15.67875 
" style="fill: none; stroke: #000000; stroke-width: 0.8; stroke-linejoin: miter; stroke-linecap: square"/>
   </g>
   <g id="patch_10">
    <path d="M 188.800312 142.67375 
L 296.120312 142.67375 
" style="fill: none; stroke: #000000; stroke-width: 0.8; stroke-linejoin: miter; stroke-linecap: square"/>
   </g>
   <g id="patch_11">
    <path d="M 193.678494 142.67375 
L 214.721632 142.67375 
L 214.721632 39.538563 
L 193.678494 39.538563 
z
" clip-path="url(#pb3c11fc280)" style="fill: #4477aa; stroke: #000000; stroke-width: 0.6; stroke-linejoin: miter"/>
   </g>
   <g id="patch_12">
    <path d="M 231.938744 142.67375 
L 252.981881 142.67375 
L 252.981881 47.781336 
L 231.938744 47.781336 
z
" clip-path="url(#pb3c11fc280)" style="fill: url(#h3df1ef0bf6); stroke: #000000; stroke-width: 0.6; stroke-linejoin: miter"/>
   </g>
   <g id="patch_13">
    <path d="M 270.198993 142.67375 
L 291.242131 142.67375 
L 291.242131 21.726131 
L 270.198993 21.726131 
z
" clip-path="url(#pb3c11fc280)" style="fill: url(#h3e68930efd); stroke: #000000; stroke-width: 0.6; stroke-linejoin: miter"/>
   </g>
   <g id="patch_14">
    <path d="M 205.649726 38.162411 
Q 237.346072 8.661386 278.06305 20.906376 
" style="fill: none; stroke: #555555; stroke-width: 0.7; stroke-linecap: round"/>
    <path d="M 275.13396 18.145863 
L 278.06305 20.906376 
L 274.097186 21.59334 
" style="fill: none; stroke: #555555; stroke-width: 0.7; stroke-linecap: round"/>
   </g>
   <g id="text_21">
    <!-- +17% -->
    <g style="fill: #555555" transform="translate(231.748125 27.773512) scale(0.07 -0.07)">
     <defs>
      <path id="DejaVuSerif-37" d="M 3609 4347 
L 1784 0 
L 1319 0 
L 3059 4153 
L 903 4153 
L 903 3578 
L 538 3578 
L 538 4666 
L 3609 4666 
L 3609 4347 
z
" transform="scale(0.015625)"/>
      <path id="DejaVuSerif-25" d="M 1434 4459 
Q 1159 4459 1004 4200 
Q 850 3941 850 3475 
Q 850 3016 1008 2753 
Q 1166 2491 1434 2491 
Q 1700 2491 1854 2752 
Q 2009 3013 2009 3475 
Q 2009 3938 1854 4198 
Q 1700 4459 1434 4459 
z
M 4653 2169 
Q 4381 2169 4226 1906 
Q 4072 1644 4072 1178 
Q 4072 719 4228 458 
Q 4384 197 4653 197 
Q 4922 197 5075 458 
Q 5228 719 5228 1178 
Q 5228 1641 5073 1905 
Q 4919 2169 4653 2169 
z
M 4653 2450 
Q 5147 2450 5437 2106 
Q 5728 1763 5728 1178 
Q 5728 594 5436 251 
Q 5144 -91 4653 -91 
Q 4153 -91 3862 251 
Q 3572 594 3572 1178 
Q 3572 1766 3864 2108 
Q 4156 2450 4653 2450 
z
M 4263 4750 
L 4738 4750 
L 1819 -91 
L 1344 -91 
L 4263 4750 
z
M 1428 4750 
Q 1922 4750 2215 4408 
Q 2509 4066 2509 3481 
Q 2509 2891 2217 2550 
Q 1925 2209 1428 2209 
Q 931 2209 642 2551 
Q 353 2894 353 3481 
Q 353 4063 643 4406 
Q 934 4750 1428 4750 
z
" transform="scale(0.015625)"/>
     </defs>
     <use xlink:href="#DejaVuSerif-2b"/>
     <use xlink:href="#DejaVuSerif-31" transform="translate(83.789062 0)"/>
     <use xlink:href="#DejaVuSerif-37" transform="translate(147.412109 0)"/>
     <use xlink:href="#DejaVuSerif-25" transform="translate(211.035156 0)"/>
    </g>
   </g>
   <g id="text_22">
    <!-- (b) Fraud Variance -->
    <g transform="translate(204.357812 9.67875) scale(0.08 -0.08)">
     <defs>
      <path id="DejaVuSerif-62" d="M 738 331 
L 738 4531 
L 184 4531 
L 184 4863 
L 1313 4863 
L 1313 2803 
Q 1481 3116 1742 3264 
Q 2003 3413 2388 3413 
Q 3000 3413 3387 2928 
Q 3775 2444 3775 1663 
Q 3775 881 3387 395 
Q 3000 -91 2388 -91 
Q 2003 -91 1742 57 
Q 1481 206 1313 519 
L 1313 0 
L 184 0 
L 184 331 
L 738 331 
z
M 1313 1497 
Q 1313 897 1542 583 
Q 1772 269 2209 269 
Q 2650 269 2876 622 
Q 3103 975 3103 1663 
Q 3103 2353 2876 2703 
Q 2650 3053 2209 3053 
Q 1772 3053 1542 2737 
Q 1313 2422 1313 1825 
L 1313 1497 
z
" transform="scale(0.015625)"/>
      <path id="DejaVuSerif-56" d="M 1119 4331 
L 2497 750 
L 3872 4331 
L 3347 4331 
L 3347 4666 
L 4716 4666 
L 4716 4331 
L 4263 4331 
L 2597 0 
L 2059 0 
L 403 4331 
L -63 4331 
L -63 4666 
L 1638 4666 
L 1638 4331 
L 1119 4331 
z
" transform="scale(0.015625)"/>
      <path id="DejaVuSerif-69" d="M 622 4353 
Q 622 4497 726 4603 
Q 831 4709 978 4709 
Q 1122 4709 1226 4603 
Q 1331 4497 1331 4353 
Q 1331 4206 1228 4103 
Q 1125 4000 978 4000 
Q 831 4000 726 4103 
Q 622 4206 622 4353 
z
M 1356 331 
L 1900 331 
L 1900 0 
L 231 0 
L 231 331 
L 781 331 
L 781 2988 
L 231 2988 
L 231 3322 
L 1356 3322 
L 1356 331 
z
" transform="scale(0.015625)"/>
      <path id="DejaVuSerif-63" d="M 3291 997 
Q 3169 466 2822 187 
Q 2475 -91 1925 -91 
Q 1200 -91 759 389 
Q 319 869 319 1663 
Q 319 2459 759 2936 
Q 1200 3413 1925 3413 
Q 2241 3413 2553 3339 
Q 2866 3266 3181 3116 
L 3181 2266 
L 2847 2266 
Q 2781 2703 2561 2903 
Q 2341 3103 1931 3103 
Q 1466 3103 1228 2742 
Q 991 2381 991 1663 
Q 991 944 1227 581 
Q 1463 219 1931 219 
Q 2303 219 2525 412 
Q 2747 606 2828 997 
L 3291 997 
z
" transform="scale(0.015625)"/>
     </defs>
     <use xlink:href="#DejaVuSerif-28"/>
     <use xlink:href="#DejaVuSerif-62" transform="translate(39.013672 0)"/>
     <use xlink:href="#DejaVuSerif-29" transform="translate(103.027344 0)"/>
     <use xlink:href="#DejaVuSerif-20" transform="translate(142.041016 0)"/>
     <use xlink:href="#DejaVuSerif-46" transform="translate(173.828125 0)"/>
     <use xlink:href="#DejaVuSerif-72" transform="translate(243.212891 0)"/>
     <use xlink:href="#DejaVuSerif-61" transform="translate(291.015625 0)"/>
     <use xlink:href="#DejaVuSerif-75" transform="translate(350.634766 0)"/>
     <use xlink:href="#DejaVuSerif-64" transform="translate(415.039062 0)"/>
     <use xlink:href="#DejaVuSerif-20" transform="translate(479.052734 0)"/>
     <use xlink:href="#DejaVuSerif-56" transform="translate(510.839844 0)"/>
     <use xlink:href="#DejaVuSerif-61" transform="translate(573.931641 0)"/>
     <use xlink:href="#DejaVuSerif-72" transform="translate(633.550781 0)"/>
     <use xlink:href="#DejaVuSerif-69" transform="translate(681.353516 0)"/>
     <use xlink:href="#DejaVuSerif-61" transform="translate(713.335938 0)"/>
     <use xlink:href="#DejaVuSerif-6e" transform="translate(772.955078 0)"/>
     <use xlink:href="#DejaVuSerif-63" transform="translate(837.359375 0)"/>
     <use xlink:href="#DejaVuSerif-65" transform="translate(893.365234 0)"/>
    </g>
   </g>
  </g>
  <g id="axes_3">
   <g id="patch_15">
    <path d="M 344.110312 142.67375 
L 451.430312 142.67375 
L 451.430312 15.67875 
L 344.110312 15.67875 
z
" style="fill: #ffffff"/>
   </g>
   <g id="matplotlib.axis_5">
    <g id="xtick_7">
     <g id="line2d_37">
      <path d="M 359.510063 142.67375 
L 359.510063 15.67875 
" clip-path="url(#pae4e33090e)" style="fill: none; stroke: #cccccc; stroke-width: 0.4; stroke-linecap: square"/>
     </g>
     <g id="line2d_38">
      <g>
       <use xlink:href="#meefc8dc5c4" x="359.510063" y="142.67375" style="stroke: #000000; stroke-width: 0.8"/>
      </g>
     </g>
     <g id="text_23">
      <!-- v2.1 -->
      <g transform="translate(350.888813 155.7525) scale(0.08 -0.08)">
       <use xlink:href="#DejaVuSerif-76"/>
       <use xlink:href="#DejaVuSerif-32" transform="translate(56.494141 0)"/>
       <use xlink:href="#DejaVuSerif-2e" transform="translate(120.117188 0)"/>
       <use xlink:href="#DejaVuSerif-31" transform="translate(151.904297 0)"/>
      </g>
     </g>
    </g>
    <g id="xtick_8">
     <g id="line2d_39">
      <path d="M 397.770312 142.67375 
L 397.770312 15.67875 
" clip-path="url(#pae4e33090e)" style="fill: none; stroke: #cccccc; stroke-width: 0.4; stroke-linecap: square"/>
     </g>
     <g id="line2d_40">
      <g>
       <use xlink:href="#meefc8dc5c4" x="397.770312" y="142.67375" style="stroke: #000000; stroke-width: 0.8"/>
      </g>
     </g>
     <g id="text_24">
      <!-- v2.2 -->
      <g transform="translate(389.149062 155.7525) scale(0.08 -0.08)">
       <use xlink:href="#DejaVuSerif-76"/>
       <use xlink:href="#DejaVuSerif-32" transform="translate(56.494141 0)"/>
       <use xlink:href="#DejaVuSerif-2e" transform="translate(120.117188 0)"/>
       <use xlink:href="#DejaVuSerif-32" transform="translate(151.904297 0)"/>
      </g>
     </g>
    </g>
    <g id="xtick_9">
     <g id="line2d_41">
      <path d="M 436.030562 142.67375 
L 436.030562 15.67875 
" clip-path="url(#pae4e33090e)" style="fill: none; stroke: #cccccc; stroke-width: 0.4; stroke-linecap: square"/>
     </g>
     <g id="line2d_42">
      <g>
       <use xlink:href="#meefc8dc5c4" x="436.030562" y="142.67375" style="stroke: #000000; stroke-width: 0.8"/>
      </g>
     </g>
     <g id="text_25">
      <!-- v2.3 -->
      <g transform="translate(427.409312 155.7525) scale(0.08 -0.08)">
       <use xlink:href="#DejaVuSerif-76"/>
       <use xlink:href="#DejaVuSerif-32" transform="translate(56.494141 0)"/>
       <use xlink:href="#DejaVuSerif-2e" transform="translate(120.117188 0)"/>
       <use xlink:href="#DejaVuSerif-33" transform="translate(151.904297 0)"/>
      </g>
     </g>
    </g>
   </g>
   <g id="matplotlib.axis_6">
    <g id="ytick_12">
     <g id="line2d_43">
      <path d="M 344.110312 142.67375 
L 451.430312 142.67375 
" clip-path="url(#pae4e33090e)" style="fill: none; stroke: #cccccc; stroke-width: 0.4; stroke-linecap: square"/>
     </g>
     <g id="line2d_44">
      <g>
       <use xlink:href="#mc1b5b8c9e3" x="344.110312" y="142.67375" style="stroke: #000000; stroke-width: 0.8"/>
      </g>
     </g>
     <g id="text_26">
      <!-- 70 -->
      <g transform="translate(326.930312 145.713125) scale(0.08 -0.08)">
       <use xlink:href="#DejaVuSerif-37"/>
       <use xlink:href="#DejaVuSerif-30" transform="translate(63.623047 0)"/>
      </g>
     </g>
    </g>
    <g id="ytick_13">
     <g id="line2d_45">
      <path d="M 344.110312 110.925 
L 451.430312 110.925 
" clip-path="url(#pae4e33090e)" style="fill: none; stroke: #cccccc; stroke-width: 0.4; stroke-linecap: square"/>
     </g>
     <g id="line2d_46">
      <g>
       <use xlink:href="#mc1b5b8c9e3" x="344.110312" y="110.925" style="stroke: #000000; stroke-width: 0.8"/>
      </g>
     </g>
     <g id="text_27">
      <!-- 75 -->
      <g transform="translate(326.930312 113.964375) scale(0.08 -0.08)">
       <use xlink:href="#DejaVuSerif-37"/>
       <use xlink:href="#DejaVuSerif-35" transform="translate(63.623047 0)"/>
      </g>
     </g>
    </g>
    <g id="ytick_14">
     <g id="line2d_47">
      <path d="M 344.110312 79.17625 
L 451.430312 79.17625 
" clip-path="url(#pae4e33090e)" style="fill: none; stroke: #cccccc; stroke-width: 0.4; stroke-linecap: square"/>
     </g>
     <g id="line2d_48">
      <g>
       <use xlink:href="#mc1b5b8c9e3" x="344.110312" y="79.17625" style="stroke: #000000; stroke-width: 0.8"/>
      </g>
     </g>
     <g id="text_28">
      <!-- 80 -->
      <g transform="translate(326.930312 82.215625) scale(0.08 -0.08)">
       <defs>
        <path id="DejaVuSerif-38" d="M 2981 1275 
Q 2981 1775 2732 2051 
Q 2484 2328 2034 2328 
Q 1584 2328 1336 2051 
Q 1088 1775 1088 1275 
Q 1088 772 1336 495 
Q 1584 219 2034 219 
Q 2484 219 2732 495 
Q 2981 772 2981 1275 
z
M 2853 3541 
Q 2853 3966 2637 4203 
Q 2422 4441 2034 4441 
Q 1650 4441 1433 4203 
Q 1216 3966 1216 3541 
Q 1216 3113 1433 2875 
Q 1650 2638 2034 2638 
Q 2422 2638 2637 2875 
Q 2853 3113 2853 3541 
z
M 2516 2484 
Q 3047 2413 3344 2092 
Q 3641 1772 3641 1275 
Q 3641 619 3225 264 
Q 2809 -91 2034 -91 
Q 1263 -91 845 264 
Q 428 619 428 1275 
Q 428 1772 725 2092 
Q 1022 2413 1556 2484 
Q 1084 2569 832 2842 
Q 581 3116 581 3541 
Q 581 4103 968 4426 
Q 1356 4750 2034 4750 
Q 2713 4750 3100 4426 
Q 3488 4103 3488 3541 
Q 3488 3116 3236 2842 
Q 2984 2569 2516 2484 
z
" transform="scale(0.015625)"/>
       </defs>
       <use xlink:href="#DejaVuSerif-38"/>
       <use xlink:href="#DejaVuSerif-30" transform="translate(63.623047 0)"/>
      </g>
     </g>
    </g>
    <g id="ytick_15">
     <g id="line2d_49">
      <path d="M 344.110312 47.4275 
L 451.430312 47.4275 
" clip-path="url(#pae4e33090e)" style="fill: none; stroke: #cccccc; stroke-width: 0.4; stroke-linecap: square"/>
     </g>
     <g id="line2d_50">
      <g>
       <use xlink:href="#mc1b5b8c9e3" x="344.110312" y="47.4275" style="stroke: #000000; stroke-width: 0.8"/>
      </g>
     </g>
     <g id="text_29">
      <!-- 85 -->
      <g transform="translate(326.930312 50.466875) scale(0.08 -0.08)">
       <use xlink:href="#DejaVuSerif-38"/>
       <use xlink:href="#DejaVuSerif-35" transform="translate(63.623047 0)"/>
      </g>
     </g>
    </g>
    <g id="ytick_16">
     <g id="line2d_51">
      <path d="M 344.110312 15.67875 
L 451.430312 15.67875 
" clip-path="url(#pae4e33090e)" style="fill: none; stroke: #cccccc; stroke-width: 0.4; stroke-linecap: square"/>
     </g>
     <g id="line2d_52">
      <g>
       <use xlink:href="#mc1b5b8c9e3" x="344.110312" y="15.67875" style="stroke: #000000; stroke-width: 0.8"/>
      </g>
     </g>
     <g id="text_30">
      <!-- 90 -->
      <g transform="translate(326.930312 18.718125) scale(0.08 -0.08)">
       <defs>
        <path id="DejaVuSerif-39" d="M 2994 2091 
Q 2784 1856 2512 1740 
Q 2241 1625 1900 1625 
Q 1206 1625 804 2044 
Q 403 2463 403 3188 
Q 403 3897 839 4323 
Q 1275 4750 2003 4750 
Q 2794 4750 3217 4161 
Q 3641 3572 3641 2478 
Q 3641 1253 3137 581 
Q 2634 -91 1722 -91 
Q 1475 -91 1203 -44 
Q 931 3 647 97 
L 647 872 
L 997 872 
Q 1038 556 1241 387 
Q 1444 219 1784 219 
Q 2391 219 2687 676 
Q 2984 1134 2994 2091 
z
M 1978 4441 
Q 1534 4441 1298 4117 
Q 1063 3794 1063 3188 
Q 1063 2581 1298 2256 
Q 1534 1931 1978 1931 
Q 2422 1931 2658 2245 
Q 2894 2559 2894 3150 
Q 2894 3772 2656 4106 
Q 2419 4441 1978 4441 
z
" transform="scale(0.015625)"/>
       </defs>
       <use xlink:href="#DejaVuSerif-39"/>
       <use xlink:href="#DejaVuSerif-30" transform="translate(63.623047 0)"/>
      </g>
     </g>
    </g>
    <g id="text_31">
     <!-- Honest Routing Share (%) -->
     <g transform="translate(320.930625 139.067031) rotate(-90) scale(0.09 -0.09)">
      <defs>
       <path id="DejaVuSerif-48" d="M 353 0 
L 353 331 
L 947 331 
L 947 4331 
L 353 4331 
L 353 4666 
L 2175 4666 
L 2175 4331 
L 1581 4331 
L 1581 2719 
L 4000 2719 
L 4000 4331 
L 3406 4331 
L 3406 4666 
L 5228 4666 
L 5228 4331 
L 4634 4331 
L 4634 331 
L 5228 331 
L 5228 0 
L 3406 0 
L 3406 331 
L 4000 331 
L 4000 2338 
L 1581 2338 
L 1581 331 
L 2175 331 
L 2175 0 
L 353 0 
z
" transform="scale(0.015625)"/>
       <path id="DejaVuSerif-52" d="M 3066 2316 
Q 3284 2256 3442 2114 
Q 3600 1972 3725 1716 
L 4403 331 
L 4972 331 
L 4972 0 
L 3872 0 
L 3144 1484 
Q 2934 1916 2759 2042 
Q 2584 2169 2278 2169 
L 1581 2169 
L 1581 331 
L 2241 331 
L 2241 0 
L 353 0 
L 353 331 
L 947 331 
L 947 4331 
L 353 4331 
L 353 4666 
L 2719 4666 
Q 3400 4666 3770 4341 
Q 4141 4016 4141 3419 
Q 4141 2938 3870 2661 
Q 3600 2384 3066 2316 
z
M 1581 2503 
L 2503 2503 
Q 2975 2503 3200 2726 
Q 3425 2950 3425 3419 
Q 3425 3888 3200 4109 
Q 2975 4331 2503 4331 
L 1581 4331 
L 1581 2503 
z
" transform="scale(0.015625)"/>
       <path id="DejaVuSerif-67" d="M 3359 2988 
L 3359 72 
Q 3359 -644 2965 -1033 
Q 2572 -1422 1844 -1422 
Q 1516 -1422 1216 -1362 
Q 916 -1303 641 -1184 
L 641 -488 
L 941 -488 
Q 997 -813 1206 -963 
Q 1416 -1113 1806 -1113 
Q 2313 -1113 2548 -827 
Q 2784 -541 2784 72 
L 2784 519 
Q 2616 206 2355 57 
Q 2094 -91 1709 -91 
Q 1097 -91 708 395 
Q 319 881 319 1663 
Q 319 2444 706 2928 
Q 1094 3413 1709 3413 
Q 2094 3413 2355 3264 
Q 2616 3116 2784 2803 
L 2784 3322 
L 3909 3322 
L 3909 2988 
L 3359 2988 
z
M 2784 1825 
Q 2784 2422 2554 2737 
Q 2325 3053 1888 3053 
Q 1444 3053 1217 2703 
Q 991 2353 991 1663 
Q 991 975 1217 622 
Q 1444 269 1888 269 
Q 2325 269 2554 583 
Q 2784 897 2784 1497 
L 2784 1825 
z
" transform="scale(0.015625)"/>
       <path id="DejaVuSerif-68" d="M 263 0 
L 263 331 
L 781 331 
L 781 4531 
L 231 4531 
L 231 4863 
L 1356 4863 
L 1356 2731 
Q 1516 3069 1770 3241 
Q 2025 3413 2363 3413 
Q 2913 3413 3172 3097 
Q 3431 2781 3431 2113 
L 3431 331 
L 3944 331 
L 3944 0 
L 2356 0 
L 2356 331 
L 2853 331 
L 2853 1931 
Q 2853 2541 2704 2764 
Q 2556 2988 2175 2988 
Q 1775 2988 1565 2697 
Q 1356 2406 1356 1850 
L 1356 331 
L 1856 331 
L 1856 0 
L 263 0 
z
" transform="scale(0.015625)"/>
      </defs>
      <use xlink:href="#DejaVuSerif-48"/>
      <use xlink:href="#DejaVuSerif-6f" transform="translate(87.207031 0)"/>
      <use xlink:href="#DejaVuSerif-6e" transform="translate(147.412109 0)"/>
      <use xlink:href="#DejaVuSerif-65" transform="translate(211.816406 0)"/>
      <use xlink:href="#DejaVuSerif-73" transform="translate(270.996094 0)"/>
      <use xlink:href="#DejaVuSerif-74" transform="translate(322.314453 0)"/>
      <use xlink:href="#DejaVuSerif-20" transform="translate(362.5 0)"/>
      <use xlink:href="#DejaVuSerif-52" transform="translate(394.287109 0)"/>
      <use xlink:href="#DejaVuSerif-6f" transform="translate(469.580078 0)"/>
      <use xlink:href="#DejaVuSerif-75" transform="translate(529.785156 0)"/>
      <use xlink:href="#DejaVuSerif-74" transform="translate(594.189453 0)"/>
      <use xlink:href="#DejaVuSerif-69" transform="translate(634.375 0)"/>
      <use xlink:href="#DejaVuSerif-6e" transform="translate(666.357422 0)"/>
      <use xlink:href="#DejaVuSerif-67" transform="translate(730.761719 0)"/>
      <use xlink:href="#DejaVuSerif-20" transform="translate(794.775391 0)"/>
      <use xlink:href="#DejaVuSerif-53" transform="translate(826.5625 0)"/>
      <use xlink:href="#DejaVuSerif-68" transform="translate(895.068359 0)"/>
      <use xlink:href="#DejaVuSerif-61" transform="translate(959.472656 0)"/>
      <use xlink:href="#DejaVuSerif-72" transform="translate(1019.091797 0)"/>
      <use xlink:href="#DejaVuSerif-65" transform="translate(1066.894531 0)"/>
      <use xlink:href="#DejaVuSerif-20" transform="translate(1126.074219 0)"/>
      <use xlink:href="#DejaVuSerif-28" transform="translate(1157.861328 0)"/>
      <use xlink:href="#DejaVuSerif-25" transform="translate(1196.875 0)"/>
      <use xlink:href="#DejaVuSerif-29" transform="translate(1291.894531 0)"/>
     </g>
    </g>
   </g>
   <g id="line2d_53">
    <path d="M 344.110312 69.01665 
L 451.430312 69.01665 
" clip-path="url(#pae4e33090e)" style="fill: none; stroke-dasharray: 2.22,0.96; stroke-dashoffset: 0; stroke: #4477aa; stroke-opacity: 0.5; stroke-width: 0.6"/>
   </g>
   <g id="patch_16">
    <path d="M 344.110312 142.67375 
L 344.110312 15.67875 
" style="fill: none; stroke: #000000; stroke-width: 0.8; stroke-linejoin: miter; stroke-linecap: square"/>
   </g>
   <g id="patch_17">
    <path d="M 344.110312 142.67375 
L 451.430312 142.67375 
" style="fill: none; stroke: #000000; stroke-width: 0.8; stroke-linejoin: miter; stroke-linecap: square"/>
   </g>
   <g id="patch_18">
    <path d="M 348.988494 587.15625 
L 370.031632 587.15625 
L 370.031632 69.01665 
L 348.988494 69.01665 
z
" clip-path="url(#pae4e33090e)" style="fill: #4477aa; stroke: #000000; stroke-width: 0.6; stroke-linejoin: miter"/>
   </g>
   <g id="patch_19">
    <path d="M 387.248744 587.15625 
L 408.291881 587.15625 
L 408.291881 85.526 
L 387.248744 85.526 
z
" clip-path="url(#pae4e33090e)" style="fill: url(#h3df1ef0bf6); stroke: #000000; stroke-width: 0.6; stroke-linejoin: miter"/>
   </g>
   <g id="patch_20">
    <path d="M 425.508993 587.15625 
L 446.552131 587.15625 
L 446.552131 83.621075 
L 425.508993 83.621075 
z
" clip-path="url(#pae4e33090e)" style="fill: url(#h3e68930efd); stroke: #000000; stroke-width: 0.6; stroke-linejoin: miter"/>
   </g>
   <g id="text_32">
    <!-- (c) Honest Routing -->
    <g transform="translate(359.346562 9.67875) scale(0.08 -0.08)">
     <use xlink:href="#DejaVuSerif-28"/>
     <use xlink:href="#DejaVuSerif-63" transform="translate(39.013672 0)"/>
     <use xlink:href="#DejaVuSerif-29" transform="translate(95.019531 0)"/>
     <use xlink:href="#DejaVuSerif-20" transform="translate(134.033203 0)"/>
     <use xlink:href="#DejaVuSerif-48" transform="translate(165.820312 0)"/>
     <use xlink:href="#DejaVuSerif-6f" transform="translate(253.027344 0)"/>
     <use xlink:href="#DejaVuSerif-6e" transform="translate(313.232422 0)"/>
     <use xlink:href="#DejaVuSerif-65" transform="translate(377.636719 0)"/>
     <use xlink:href="#DejaVuSerif-73" transform="translate(436.816406 0)"/>
     <use xlink:href="#DejaVuSerif-74" transform="translate(488.134766 0)"/>
     <use xlink:href="#DejaVuSerif-20" transform="translate(528.320312 0)"/>
     <use xlink:href="#DejaVuSerif-52" transform="translate(560.107422 0)"/>
     <use xlink:href="#DejaVuSerif-6f" transform="translate(635.400391 0)"/>
     <use xlink:href="#DejaVuSerif-75" transform="translate(695.605469 0)"/>
     <use xlink:href="#DejaVuSerif-74" transform="translate(760.009766 0)"/>
     <use xlink:href="#DejaVuSerif-69" transform="translate(800.195312 0)"/>
     <use xlink:href="#DejaVuSerif-6e" transform="translate(832.177734 0)"/>
     <use xlink:href="#DejaVuSerif-67" transform="translate(896.582031 0)"/>
    </g>
   </g>
  </g>
 </g>
 <defs>
  <clipPath id="pac0a8fe973">
   <rect x="33.490313" y="15.67875" width="107.32" height="126.995"/>
  </clipPath>
  <clipPath id="pb3c11fc280">
   <rect x="188.800312" y="15.67875" width="107.32" height="126.995"/>
  </clipPath>
  <clipPath id="pae4e33090e">
   <rect x="344.110312" y="15.67875" width="107.32" height="126.995"/>
  </clipPath>
 </defs>
 <defs>
  <pattern id="h3df1ef0bf6" patternUnits="userSpaceOnUse" x="0" y="0" width="72" height="72">
   <rect x="0" y="0" width="73" height="73" fill="#228833"/>
   <path d="M -36 36 
L 36 -36 
M -32 40 
L 40 -32 
M -28 44 
L 44 -28 
M -24 48 
L 48 -24 
M -20 52 
L 52 -20 
M -16 56 
L 56 -16 
M -12 60 
L 60 -12 
M -8 64 
L 64 -8 
M -4 68 
L 68 -4 
M 0 72 
L 72 0 
M 4 76 
L 76 4 
M 8 80 
L 80 8 
M 12 84 
L 84 12 
M 16 88 
L 88 16 
M 20 92 
L 92 20 
M 24 96 
L 96 24 
M 28 100 
L 100 28 
M 32 104 
L 104 32 
M 36 108 
L 108 36 
" style="fill: #000000; stroke: #000000; stroke-width: 1.0; stroke-linecap: butt; stroke-linejoin: miter"/>
  </pattern>
  <pattern id="h3e68930efd" patternUnits="userSpaceOnUse" x="0" y="0" width="72" height="72">
   <rect x="0" y="0" width="73" height="73" fill="#ee6677"/>
   <path d="M -36 36 
L 36 -36 
M -32 40 
L 40 -32 
M -28 44 
L 44 -28 
M -24 48 
L 48 -24 
M -20 52 
L 52 -20 
M -16 56 
L 56 -16 
M -12 60 
L 60 -12 
M -8 64 
L 64 -8 
M -4 68 
L 68 -4 
M 0 72 
L 72 0 
M 4 76 
L 76 4 
M 8 80 
L 80 8 
M 12 84 
L 84 12 
M 16 88 
L 88 16 
M 20 92 
L 92 20 
M 24 96 
L 96 24 
M 28 100 
L 100 28 
M 32 104 
L 104 32 
M 36 108 
L 108 36 
M -36 36 
L 36 108 
M -32 32 
L 40 104 
M -28 28 
L 44 100 
M -24 24 
L 48 96 
M -20 20 
L 52 92 
M -16 16 
L 56 88 
M -12 12 
L 60 84 
M -8 8 
L 64 80 
M -4 4 
L 68 76 
M 0 0 
L 72 72 
M 4 -4 
L 76 68 
M 8 -8 
L 80 64 
M 12 -12 
L 84 60 
M 16 -16 
L 88 56 
M 20 -20 
L 92 52 
M 24 -24 
L 96 48 
M 28 -28 
L 100 44 
M 32 -32 
L 104 40 
M 36 -36 
L 108 36 
" style="fill: #000000; stroke: #000000; stroke-width: 1.0; stroke-linecap: butt; stroke-linejoin: miter"/>
  </pattern>
 </defs>
</svg>
